<mxfile host="app.diagrams.net" modified="2021-01-14T16:51:00.937Z" agent="5.0 (Macintosh; Intel Mac OS X 10_13_6) AppleWebKit/537.36 (KHTML, like Gecko) Chrome/87.0.4280.141 Safari/537.36" etag="de6MsieEj7140wMaDGmJ" version="14.1.8" type="github">
  <diagram id="8ufHfj4QIgtoy10MM6jQ" name="Page-1">
    <mxGraphModel dx="1113" dy="760" grid="1" gridSize="10" guides="1" tooltips="1" connect="1" arrows="1" fold="1" page="1" pageScale="1" pageWidth="827" pageHeight="1169" math="0" shadow="0">
      <root>
        <mxCell id="0" />
        <mxCell id="1" parent="0" />
        <mxCell id="7osTF7Cn3CsnB_B4Gb6I-14" style="edgeStyle=orthogonalEdgeStyle;rounded=0;orthogonalLoop=1;jettySize=auto;html=1;exitX=0.5;exitY=1;exitDx=0;exitDy=0;" edge="1" parent="1" source="7osTF7Cn3CsnB_B4Gb6I-10" target="7osTF7Cn3CsnB_B4Gb6I-13">
          <mxGeometry relative="1" as="geometry" />
        </mxCell>
        <mxCell id="7osTF7Cn3CsnB_B4Gb6I-10" value="" style="rounded=1;whiteSpace=wrap;html=1;fillColor=#d5e8d4;strokeColor=#82b366;" vertex="1" parent="1">
          <mxGeometry x="100" y="590" width="450" height="90" as="geometry" />
        </mxCell>
        <mxCell id="7osTF7Cn3CsnB_B4Gb6I-25" style="edgeStyle=orthogonalEdgeStyle;rounded=0;orthogonalLoop=1;jettySize=auto;html=1;exitX=0.5;exitY=1;exitDx=0;exitDy=0;" edge="1" parent="1" source="7osTF7Cn3CsnB_B4Gb6I-1" target="7osTF7Cn3CsnB_B4Gb6I-24">
          <mxGeometry relative="1" as="geometry" />
        </mxCell>
        <mxCell id="7osTF7Cn3CsnB_B4Gb6I-1" value="判断心悦等级" style="rounded=0;whiteSpace=wrap;html=1;" vertex="1" parent="1">
          <mxGeometry x="272.5" y="450" width="105" height="30" as="geometry" />
        </mxCell>
        <mxCell id="7osTF7Cn3CsnB_B4Gb6I-7" value="" style="rounded=1;whiteSpace=wrap;html=1;fillColor=#dae8fc;strokeColor=#6c8ebf;" vertex="1" parent="1">
          <mxGeometry x="290" y="603" width="250" height="60" as="geometry" />
        </mxCell>
        <mxCell id="7osTF7Cn3CsnB_B4Gb6I-8" value="判断游戏时长" style="rounded=0;whiteSpace=wrap;html=1;" vertex="1" parent="1">
          <mxGeometry x="310" y="618" width="100" height="30" as="geometry" />
        </mxCell>
        <mxCell id="7osTF7Cn3CsnB_B4Gb6I-9" value="判断登陆天数" style="rounded=0;whiteSpace=wrap;html=1;" vertex="1" parent="1">
          <mxGeometry x="424" y="618" width="100" height="30" as="geometry" />
        </mxCell>
        <mxCell id="7osTF7Cn3CsnB_B4Gb6I-11" value="判断游戏角色等级" style="rounded=0;whiteSpace=wrap;html=1;" vertex="1" parent="1">
          <mxGeometry x="150" y="620" width="100" height="30" as="geometry" />
        </mxCell>
        <mxCell id="7osTF7Cn3CsnB_B4Gb6I-13" value="发送礼包" style="rounded=0;whiteSpace=wrap;html=1;" vertex="1" parent="1">
          <mxGeometry x="275" y="760" width="100" height="30" as="geometry" />
        </mxCell>
        <mxCell id="7osTF7Cn3CsnB_B4Gb6I-32" style="edgeStyle=orthogonalEdgeStyle;rounded=0;orthogonalLoop=1;jettySize=auto;html=1;exitX=0;exitY=1;exitDx=0;exitDy=0;entryX=0.5;entryY=0;entryDx=0;entryDy=0;" edge="1" parent="1" source="7osTF7Cn3CsnB_B4Gb6I-20" target="7osTF7Cn3CsnB_B4Gb6I-1">
          <mxGeometry relative="1" as="geometry" />
        </mxCell>
        <mxCell id="7osTF7Cn3CsnB_B4Gb6I-20" value="" style="ellipse;whiteSpace=wrap;html=1;aspect=fixed;fillColor=#f8cecc;strokeColor=#b85450;" vertex="1" parent="1">
          <mxGeometry x="318.75" y="412.5" width="12.5" height="12.5" as="geometry" />
        </mxCell>
        <mxCell id="7osTF7Cn3CsnB_B4Gb6I-22" value="" style="shape=image;verticalLabelPosition=bottom;labelBackgroundColor=#ffffff;verticalAlign=top;aspect=fixed;imageAspect=0;image=data:image/png,iVBORw0KGgoAAAANSUhEUgAAA8oAAANCCAYAAAC+jDWBAAAgAElEQVR4AeydifOV0x/Hf3+CMQzDMDQMTQwZy2BkGUVji0G2xpYlUSlKZZedkPVni+xb2beISpaf9qKIEIpsiVCW85vX4XOde77Pc+9z7/3e9fs+M+f77M9zntc5z/2e9/l8zjn/mT59ulMUA5UBlQGVAZUBlQGVAZUBlQGVAZUBlQGVAZWBv8vAf5yCCIiACIiACIiACIiACIiACIiACIhAjoCEcg6FVkRABERABERABERABERABERABETAOQlllQIREAEREAEREAEREAEREAEREAERCAhIKAcwtCoCIiACIiACIiACIiACIiACIiACEsoqAyIgAiIgAiIgAiIgAiIgAiIgAiIQEJBQDmBoVQREQAREQAREQAREQAREQAREQAQklFUGREAEREAEREAEREAEREAEREAERCAgIKEcwNBqaxH4/vvv3YIFC9yMGTM0V7jmS08sA/PmzXNfffVVaxV8vY0IiIAIiIAIiIAIiEDFBCSUK0aoGzQigUWLFrmJEye6WbNmuY8//lhRDBLLwPz58305mT17tvvrr78asSgrTSIgAiIgAiIgAiIgAnUgIKFcB+h6ZHUJfPbZZ178LF++vLoP0t1bgsCqVavcW2+95bAuK4iACIiACIiACIiACIgABCSUVQ5ajsCUKVMcYllBBLISWLFihW9c+fHHH7NeovNEQAREQAREQAREQARamICEcgtnbkd8tZUrV3rBs3r16o74+nrnCghgVVYDSwUAdakIiIAIiIAIiIAItBABCeUWyky9inMM4EXfZAURKJXA9OnTfT/mUq/T+SIgAiIgAiIgAiIgAq1HQEK59fK0Q7+RhHKHzv6KXl5CuSJ8ulgEREAEREAEREAEWoqAhHJLZadeRkJZZaBcAhLK5ZLTdSIgAiIgAiIgAiLQegQklFsvTzv0G0kod+jsr+jlJZQrwqeLRUAEREAEREAERKClCEgot1R26mUklFUGyiUgoVwuOV0nAiIgAiIgAiIgAq1HQEK59fK0Q79RRxHKM2bMcB999FGbvP7ll1/cE0884X7++ec2x+qxY8GCBe7dd9+tx6NLfqaEcsnIdIEIiIAIiIAIiIAItCwBCeWWzdqO+WKNLJTPPPNMV27866+/8jL0wAMPdBdffHHePjYuueQSt+WWW7o1a9a0OZZlx8yZM93rr7+eGr/88svcbZhKae+993bvv/9+bl+8cs4557iDDz443t2Q2xLKDZktSpQIiIAIiIAIiIAI1IVAQwnl2bNnu2XLlqWCmDNnjjv55JNTj6cdeOWVVxwV9q+//jrtlLrsJz1nnXWW++CDDyp6/sMPP+wuuugi9+uvv1Z0n1Iu/v333x1cYwEX3gPR9swzz4S7qr7eyEJ52LBh7uyzz24TTz31VLfWWms5lknH2RdzThLKH3/8sVtvvfX8vdZZZx1ncezYsXncyRM7Fi4feeQR16tXL7fRRhulxnHjxuXuRRkYPHiw23jjjR1zECcFCeUkKtonAiIgAiIgAiIgAiLQ6AQqFspfffWVF0yIpjBibWL79ttvT43/+9//8vgcd9xxbt111/Wi9ocffsg7xsaLL77o1l577Tb7C+1AfG+wwQbuqKOOKnRaXY5h9dtqq63cCSecUNHzd999d9ezZ89M93jzzTfz8ok8woKIwCyUVxz7448/cs94++23vUDaeeed/f1yB4KVPfbYw1111VXBnuqvNrJQTnv7Tz/91ItblsXCihUr3Hfffefze8SIEX599erV7sMPP3TbbLONGzhwoOObJDKfNKI3tAJz/x9//NHNmzfP5xsCHeHMdtI3Vyw9HL/mmmvc+uuv75YsWeLdvq+99lpnsXv37q5r1665bdsfpynLc6p9jizK1Sas+4uACIiACIiACIhA8xCoWChPmDDBbbrppm6TTTbxlX2sS2zfeeedbuTIkW6XXXZJjbfccksbUlTuqVjvs88+bY6VKpSpuG+xxRY+XZ06dXKdO3duE7t06eLo71nNgAi59NJLE+Nee+3lrXu40SadgxW9UMAajdh5/vnnC52WO4Z4JX8QNjRKsL711lu7xYsXp+aT5SGCLAyIUiyKPP+1114LD/l1CeU2SBxlnjIZxs0228wzZBnuZ/3yyy/Puwl5Ae8wUnb4/hDOFv7880/vFn3dddfZrjbLzz//3N8HkV1psEavCy+80B1wwAG5yPdF2sJ9rNN3udGChHKj5YjSIwIiIAIiIAIiIAL1I1CxULakf/vtt77S/d5779muspcMRIQAxOKKq7XF/fff3z/Dtlmee+65ic957LHHHOIYS+tLL72UGBEd3DO0lMY3W7VqVbyr5G1co3GJ7dOnT0kRIXv//ffnPW/o0KFuhx12yEXEFKJp++23z+0Ljw8aNCjvetvA5Zv0tEegXyuBQaTCvEGE77bbbnn7sERXMzS6Rfnqq692eADMnz8/F2kcIg9ZhvsRlKH4hdvSpUsdlmcstUOGDPHrfCt4YyCKLQ4YMMA3wGDRZ9/NN9/cBnulQvmBBx5wV155ZZv7hjvkeh3S0LoIiIAIiIAINBYBPNHSuk+lpZSufvfdd5/77bffEk9hsFHq4WldAqnf33PPPY4BSBVKJ1BokFS8Bun6uHLlysw3xngxdepUfz5GMfI1LcZdAVs9LxtSKFvOAh+hZ/GQQw7xgsK2WVIYwoDL6ZFHHunPQyxwj6Rw2WWX+UGPCvVbRuDSh/OMM85IukXmfdxn8803zzufAhz+gLAebnMyQj8WyohbBlC66aabikYsuoceemjec22jPYWy3fPpp5/O5RV5Q/r33HPPvH2FPm67TyXLZhDKsZt8mus13QVioWxs4j7KeHDgMXHKKaf4iMfAQQcd5NePOOII74Jt19oyFsqffPKJb+ygwSMtjh8/3i53L7/8sm8AwhMiLUgop5HRfhEQAREQARGoDQG8zKjvJkU8Qelel3QsrUsW3cDw/jzttNMSX+Doo4922223XZt6rZ1MfRejQWiw+eabbxxelmmxb9++drlfcn88IkuNd9xxR959mm2DLqXU8Y4//njfbTJOP3lNV7wbb7wxPpTbxgj47LPPemPjTjvt5DXTvvvu6zUT14Zei/F6PK5Sq+dlwwhlBgm6++67U1unyN0srtf9+vXzBYRKPP1xEWqxa/X111/v3Y6LWTexVlNAsIpWEmKhjFjcdtttHYM7WWDAJoTOXXfdlRP3jF780EMP2Sl+yY8KrX9ZAtbdaghlfjgR2sW8B+R63TaXsChTpvAWsEhjDPtY2j6W7MsilGl0QSj37t0798ANN9wwNy0To1LTV9kC+cc/FtyieQbljB/Gxx9/3K+blwKNOxwjLVxv59l9WOKtwXH+ySYFCeUkKtonAiIgAiIgArUjwLgg/L8vNTLAZ1rAm5B6SzxoK/Vv9herYzMAKXUVPOkIDOZL+m644QbH4KJhRBTuuuuueUmh7oHR67nnnstFRDADmIb7wnXq3oyV0uyBLnN4xVJ3g/ODDz6YFzEs4mka7zfW1Bupo9tgsuSZBe6JHlu+fHlepC5J/sRCmetaOS8rFsqY5t955x1vXQIgopBtxCCFtVik/y6BTKEizuBWWCaTQhahHFpmSRuWTT4m7o+1EesarWdPPvlk0iPy9tFihmsIBaCSwPWIEAZhYnRq0nPeeec5Rg22QAsQ1mMY0EpGS09SqFQokxbyh/vst99+fp0PDjfaYnmFmw0BC+ixxx7rB1bjI8PtPilIKLelglDGbRqxapF+6Hw7c+fOze3j2GGHHVZQKPNDSEMQeRcK5Z9++snfzwYHi4UyXhYM4EaZ5LmUO7Yt0KrMfhtwq1u3bt59247Hy8mTJ/uyTZnmn2MYuQ8x3Md6Iw6upz7Kcc5qWwREQAREoFUIpLnSUic2N+r4nCSvTMYiwZJMpEEd7zXbZkljO3VZ2xcLaa63bnoYc1hnUFATyosWLfLIqZfg+UYYPXp0olCmy5oF6vjUn5OmzrRzsGK3glDmfbAKY/jD04/6NhHDHnUutJTtC5dWjzcedD3l/NCgiFDGbT4OVjcMhXJHyMuKhbK5jVqF2JYM5EWBBbhlGtuIRAYtYp2IELVAplPZtlGgGSAoHEmb/pDcK9zHephpdq9weeutt/rr+DHAZfWLL74ID1d9nT4Y8GD0bfoPhx92/HD6Z1Pw4MQPCH0NwlCpULbWI8snlohefjzIDyyHtPCxzg8gosbyihGuw0CfFvbR2IHLTJwvXIcrcLw/6Yc3vG8l683geo1QptHEIuWcfFi4cGFuH8fI/9CiTGPKtGnT/D7KMt8RP5KUmVAo0/DB/ax/fSyUjW/sem37+SfF9Vb2igllriNtuG6TPouU1R133DG3bftZajAvo62lCIiACIiACFSfAGOcMEBoHHHjxVU63o84TQq4XOPBhri1SH2FgTtt25Z4So4aNSrvNmPGjPEuv3htEhF1iOVYKGP9tSkpSUvs3Uk92erT1LMZ14W6C+9Dfdsi22YxbSWhnAf1nw30Ax6D1IUJGC0xTKT1BU8Tyo8++qiflpT+yBbp2grfUHN1hLysWChbRqUN5mWVdgAT+MBwLy4UrKM4I19TwC2SQQg327ZlKCbC+2JdRojjf89gWgxoZPcOz6vFOi7hWLVJEx3li0WsjEkDJSE+eB9cn4tFRDk/XkkhrY8yjRRY4Qm4vcR9q+N7GU9+hCw/WPIDZj9Y4X7WEYHVCs0glOGSNYZlmx86yjGNPTRAWaspg3VRJsgrrNA9evTw92edSJ9ovhvWKX8W0oQy/3gYiM1CMaGM6MWNGyu4BdLKPcI+9ngzpHkf2HX1XMqiXE/6erYIiIAIiEA1CTBtK4OAxpF6BVbheD8GnqRAPT7ubkV/WIRtHPB6i4VyeA5d+Kif4FFXTCgnuV5TX8HIQB2IeidWbOoZNPRzPwbsPeaYY3J1/1YQytT5zBs3ZImXIHXsWbNm5XZT50NL0bCBQcMCM+VQ38elnfrowQcf7LcxgJmBM62eGgplux/LVs3LqgvlN954w38ENrJ0FqGM7zwxDFTGyTQKQqGAde2FF17wHzyDSVlG8yFiLU2KWLFrEXiOpafYEstvUkAo01rEgGXFIuKlVKHMj8oVV1zhH51FKHNikoWeUZj54bJ8T3qXauxrdKEMDwZiwP3dXJzoxwt32w6XMT9rJQwH86KfcDi4G+WDco7FmX9e4bHQmm9CGYszrlFYegkMzsWgDhaKCeUzzzyzzXRut912m3e9sinFaFChNZh3bdQgodyoOaN0iYAIiIAIVIsAlmC6TWYN1OP5f44AtYh3IRZc27Yl3m9pQpl6AXUfxC2hHKGMkQaRj4GHOg1CGOMAOgBjUf/+/fMMBM0ulNE4CFw0jXV9xDCBeKahAFGMEYVGj5NOOskdfvjh3vMTzYG12QJu7dTHsDZzjHuyTb9zut3hLZwWw3qk3a+V87LqQhmxRV8FC1mEMpnJRxYGMpECbhbM0Hpl5zFvMq0pZDqj5iGUGbF6ypQpqZEWKgbSqkXAvx9REkb6CWPpC/exjotMUqjU9drumWZRJn/MHT6LUMblmh/CcL5nWvfWXnttP5gCz6NFK7RkWhqqsWx0ocw749lAOaW/Oq2elFMGXCglhEI5vI7+/dybPKBsI5KTAt8R/2D4VvgnifWXubAR6Vimw34soVCmFZM+0Bb4DnkeZcUCeU0fJVxywoALPufyHTRikFBuxFxRmkRABERABColgGs19bukSH2N//tJx9jHwLhhYB/d6hhs1iJ1dBrnbduWWCfThDJ1IOogWLoJsVBGO3AfQqE+ymZQoF6DQEawc1/EO16tYWh2oWzvQpc9urbde++9vt6GYQzdg+UYD1a8ERkTB8s/btTU6xHXcV7aoMU2uw8en9T/CkXGi4pDK+dluwtlRl+joDLAEIHWHEz7FvjACrleIxCpTIcdyelkTqGnIk/AIkc/2vgD4BitJFYRp4Kf1sfC0kPLU62Esj0zXFKoTzzxxHBXwfX2FspY6rH+0XJEQwOcza0ii1Bm5G5a7eyHisTTghVaJGmxOv300wu+V3sdbAahzLsiOBmxEJHMjxejC5YSkoQyrYDczwQqoxvyDyP+YaThyEa2pr80P4jWkMGPK32KbJs0hUIZT4Hwnx7PQmSH5zMKJf3TEd1x4Hvjh7kRg4RyI+aK0iQCIiACIlApAf6/UYcOI/2CqX9gjWXJtJDh8UmTJvlt82SzNFCPr9T1mm5Z1DcR6dSDqUPGQhkLKSNWE9KE8oQJE7zmoO6CNx3iGusqrtzUT/GuY0pVPOUQl60ilGFCvcuMh2wzSLGNLYNLunV1I08ZQwZjhXn5cT6WYasLwgmW1P+p81mk/zj5YNssEeJhaPW8rFgoY/IH/vDhw32hp+ADHtM/mci6tQgBNhTKuOyGPvMcRzRiCbP9LCnkuBCEAbcCXD/CkaPD46yToZUIZayluK4WmwYpfm4p27UWykwCT19pWtrIK34cEbVYsW+55RbfN8HSHwtla/Wz44hsrn/qqadsV266ICyaFhDhNGxkGWncril32SxCmW+GgSds4DQah2hgIG9stOlCDGg5tD7KnEeLISIZ74Sw0YJGKe7Nd2D7cU+iXMcu8/xz4dxw9EPuzT+W888/3yeH55JGAvejtTjsx8Q/In5UaXzhHxyDjdFIQhmjtZkyh3i3H3B/owb5I6HcIBmhZIiACIiACFSNAGIKIxb1D5tlhpGRBwwYkHsmBif+38eCmBOoxxNp+LZIXYD6g23bkmeEjetcz0BfCGT0AZZojC2DBw/OE8rWNcwMYmlCmYZ+GuaxiDJbDPUTppeyPrx040QA4t5NF7NWEsqwDOtx1K/svalvTZ061ecnWsjqbX7HP38QuOgrriNP8C608aTsPCzWWKvTQkfIy4qFMpCoGNPPwFpxrIWDgsvHE/Y3DoXyVVdd5d03LAPIVDKM1g8LfBy4hOAOgJsnVjJcRqnocy4V8bRQqVA28Y/lr1qhHKFM32RGsisWmT4o7KNM6xE/ZBR6fhARrkyBReDHiB+0//73v7lXjYUy+YzQtoDQCy3HiB+skbh78CyENQMD0ErJjyY/itbaZfdo72WjCmUaDihP5AktnrAcOnRozpJMuabFE1cayjWil4YgxDN9gF999VWPin9aeBVwDuKYhirO4X64Wdu3F3Lle+Ib4gcxbE20c/iHSB8fflgR8HGwKdYoS/xzow8LgX9KpMP+kbHPfnQpS6SfEdUvuOAC7/bDNFJ4LbA/7CsTP69e2xLK9SKv54qACIiACFSbAP//qeNRv8CCGP7vRjDz/5x6JZ6hNsZNbE0mjYyLQr0ujFinqWeE+2w9NDZRT6R+QCM+BjDqoog76pLUR/FSo67PcdJjdUzSFRrdSAf1Hhv12tjR0I+2oJ7B4GLUk8LQSkKZ/sowx5MWwwW8MHoRigllygINDNTzuQ5uaLawax33KSSUO0peViyUKdBkVhhwI6VyTyGm8hkGLJm09hDIFMQDAeszmYYItIBwxmKJBQqBR2ZyT85jEnTO5RiW36SAUMYVg87taZEfizTXa4QkH3Q48nDSc4rtY7odpqhKigx4xYebdIx9VujtGSaSYJElhkKZe4StT3ZPLH80aNCHJQxYiul/jNUeKyfPM6HLkP2IpnB0PcQW5/AjbGljnVEPcdnlGWaZDJ/TnuuNKpT5QaHllLJPuY5/jEIGNDDww0dLKeKZvkAmlBmpkPIYukvj6hz2EQ/vZeu4NDH1Q1Igf0mXdVmIzyGt/FjSKEbDhwXuaf3ZbR/eA8XcyJnzj+msGi1IKDdajig9IiACIiAClRKg3kbdC1FFxHCBS20c8OhEIFPvQ1AnNbzH19g2xqukUa/teLjEDZhgQpn10DuU59ItDEsz6U0LoVCm7oFAxnpMvRlvVAS4dSW0e7SSUGbgXesqR/2NerdZhIsJZWbVoU6O9uK60JMQgw51dyIaiLq+bbNEXFvoCHlZsVA2WLZEOFOwsSyF4O04AtpEFEv6QBBws8DlOnTvxYqMOwaVdEbPRqyZSzbX8DFhgUsbsAihjJi+4447UiOiO00o84zweT6hZfzBopcm1IvtRxiFAaHMSHdwLhbpGx4L5fBerCN+aITgo+GDCQPWP6YNsPwirRa4Dvf3MIwdO9ZP5I57Cy2IcQMKrYt8ZEl9V8P7VLLeqEK5knfStbUhIKFcG856igiIgAiIQO0IUFdmAFc80latWuWtthiR4sAxjDcYtBYvXhwf9vVERFNStHpi0jHbF4phbh4K5fBh1OkReliDQ6GMVTlsZA+FMp5uGAMwSOC5ihEMr0fEs3nB8YxWEcpoJuru6CMCnrYYDo1xklCm7o0XIoH6O0Yys0SHeg3DC5qLSAML97JtlibG/Y3++dPKednuQhlm9F0t1BKFhZUCjxALQzmiFAtp2rMQqKFrSfgsW8e6R6f/ZglY9GIrfVraaUnDpbdQoKWxUJ9YfjjJK35oYrfdUvOLDzjpAyuUvlKPSSiXSkznGwEJZSOhpQiIgAiIQKsSwL3ZhDIGF6ZdxZpM3RyPMCzOCE08B8N6H4Pt8n8yKTJwFtbNpGO2L+aZJK7oooWBBq85XLxDoYyXJ9ZOC6FQtn225D3wiqRvcmjUaRWhTLc2uoXa2DN4bcLTQpJQxupON1mCGbKShLLdg2Uh1+vwvFbOy6oI5RCe1kWglgQklGtJu7WexT/zjz/+uLVeSm8jAiIgAiIgAgEBxCNCmOlJ6d6ICy6zUZghgzFm2MZiiVCNu1gFt8qtluJ6bReF4opnMnYJ1mfrkomxi3SaUQbPx3DAMYQyApFxULJG3ufaa6+1JDTlEq9NLPg0KhBwk4cFg6laCIUyHr505cTQFjY0cG4slOmrjvu6RbyAmdnEtm0Zdx9s5byUULZSpWVLEJBQbolsrMtLSCjXBbseKgIiIAIiUCMCePbRD5n+xMx9W2h8E/q9Il7DwbjSklmpUKa/Lf1h6SppATdh0olYRvgh2PBwtIA4RPgxs0bWSPe/ZhfKMOrbt6/HgEcofOJZZcg3G3yXRgSENY0QcaNHLJTpF07DSbEYGxVCodxqeSmhbF+cli1BQEK5JbKxLi8hoVwX7HqoCIiACIhADQnQ7TGty2K5ycBtOx6Buti9+J9rA8IyRk7SYLPcA/dwBu01y7Ldl3FvzApu+4otmdkjnL602PmNejxkkTagcZh2LPbWfzncTznA9Z66cyWhlfNSQrmSkqFrG46AhHLDZUnTJEhCuWmySgkVAREQAREQAREQgaoTkFCuOmI9oJYEmLObVs1wAIpaPl/Pal4C9N8JR91v3jdRykVABERABERABERABColIKFcKUFd33AEpkyZIsHTcLnS2AlasWKFb2CxecIbO7VKnQiIgAiIgAiIgAiIQLUJSChXm7DuX3MCWAWxKjM9gIIIFCPAFGhYk+fNm1fsVB0XAREQAREQAREQARHoIAQklDtIRne017SBJRgogtH5FMUgqQwwzziNKrNnz273wU062jen9xUBERABERABERCBViIgodxKual3ySPAwF4LFixwM2bMcAzUpCgGcRnAilzqqJl5hUwbIiACIiACIiACIiACLUlAQrkls1UvJQIiIAIiIAIiIAIiIAIiIAIiUC4BCeVyyek6ERABERABERABERABERABERCBliQgodyS2aqXEgEREAEREAEREAEREAEREAERKJeAhHK55HSdCIiACIiACIiACIiACIiACIhASxKQUG7JbNVLiYAIiIAIiIAIiIAIiIAIiIAIlEtAQrlccrpOBERABERABERABERABERABESgJQlIKLdktuqlREAEREAEREAEREAEREAEREAEyiUgoVwuOV0nAiIgAiIgAiIgAiIgAiIgAiLQkgQklFsyW/VSIiACIiACIiACIiACIiACIiAC5RKQUC6XnK4TAREQAREQAREQAREQAREQARFoSQISyi2ZrXopERABERABERABERABERABERCBcgn8Z+LEiU5RDFQGVAZUBlQGVAZUBlQGVAZUBlQGVAZUBlQG/i4D//n++++dohioDKgMqAyoDKgMqAyoDKgMqAyoDKgMqAyoDPxdBuR6Xa4tXteJgAiIgAiIgAiIgAiIgAiIgAi0JAEJ5ZbMVr2UCIiACIiACIiACIiACIiACIhAuQQklMslp+tEQAREQAREQAREQAREQAREQARakoCEcktmq15KBERABERABERABERABERABESgXAISyuWS03UiIAIiIAIiIAIiIAIiIAIiIAItSUBCuSWzVS8lAiIgAiIgAiIgAiIgAiIgAiJQLgEJ5XLJ6ToREAEREAEREAEREAEREAEREIGWJCCh3JLZqpcSAREQAREQAREQAREQAREQAREol4CEcrnkdJ0IiIAIiIAIiIAIiIAIiIAIiEBLEpBQbsls1UuJgAiIgAiIgAiIgAiIgAiIgAiUS0BCuVxyuk4EREAEREAEREAEREAEREAERKAlCUgot2S26qVEQAREQAREQAREQAREQAREQATKJVBTofzhhx+6ESNGFE3re++952bNmpV33h9//JHb/v77792QIUNy20krS5YscZdccolbsGBB0uGK9z322GPuuuuuy7vPpEmT3FtvvZW3b9WqVe7yyy93X331Vd5+Nr7++ms3aNAgv4wPvv322+6cc85xf/75Z3wocfvOO+90vLOCCIiACIiACIiACIiACIiACIhAZQSqLpSfffZZ9+677/pUvvrqq26ttdbKpfiOO+5wEydOzG3bysCBA12fPn1s073zzjuuU6dO7ptvvnEzZ850n3/+uVtnnXX8ce6J4Pz999/9c0aPHu323ntvt/baa7vddtvN3X///bn7xCuIWM6955574kNFt8877zx38MEH55139dVXu6233tpxXwv33nuvW3/99X3abZ8thw0b5pGCCc4AACAASURBVDbddFM3Z84cR+OAxZ9//tntt99+bs8998zts2Msf/nlF7uFXyKQed/Jkyf77QcffNBdeumlifGuu+7Ku1YbIiACIiACIiACIiACIiACIiAC+QQyC2UsujNmzHCDBw92O++8sxes+bdK3kI8cj7Xh0IZqzACEqH82WefuYsuusitWbPG3yRNKM+bN8917949J5T/+usv17lzZ/fBBx+4vfbay2288cbuqKOOcrfccotbuHBhcoKivQ888IBPx4knnuh+/fXX6Gj6ZpJQ5nrSc8MNN/gLsQbvtNNObuTIkW1utGjRIrfeeuu5jTbayDcekHZEMxFrOQ0KrCOA4WTHWFrDg90Uwd2zZ0/bdBdffLE79NBD/b233357v872Jpts4gYMGJA7TysiIAIiIAIiIAIiIAIiIAIiIAJtCWQWyv379/fiDQFHfOONN9reLWEP1s8tttjCYVkNhfKFF17oLb5cMm3aNH9PE6ppQplzu3Tp4ubPn+8tym+++aY76KCD/FOxHmOhLifMnTvXC9zdd9/dLVu2rOAtfvrpJ+/OjVA+8MAD3SmnnOItyLhWI35xLT/jjDP8Ou7Q6667rsON+uOPP87d98cff3Q77LCDO+SQQ3zjAO9klm8s5ghjxC7hmmuu8WLbGhFyN/lnhfRy/tSpU+NDDpF88803+/2IdoTy+PHj25ynHSIgAiIgAiIgAiIgAiIgAiIgAv8SyCyUEXe4OCNGSxHKPGrMmDHe4mlCefny5V7cvfLKKz4lpQjl4cOHuylTpnihfNtttzn6BRMqEcpcj+DcZZddXNeuXRP7DPuHOOefh0u0WZRxEScdWKStESFpieXYAhx23HHH3HOuv/56Zy7RMMGt3Po041KOtXz69Ol2ed7ytNNOcyeccILfh6X5sMMO827o7MBd3QQ413PfH374Ie96bYiACIiACIiACIiACIiACIiACOQTyCyU7bJHH320JKH8wgsvuJtuusmLybPPPttfi6UVd2SWCNSsQpnzxo4d6wfRwiWZdSIu4aUKZfoRY0HmWgvffvutw9KNOE0LCNqjjz46J5QRtghshPJJJ53kfvvttzbx7rvv9m7Q4T2x8MKGAcHCyABeCO0LLrggbz/nwD4M9EnGFZsGDPo1I+DPPPNMfwr3hxHPIFxxxRV57tnhfbQuAiIgAiIgAiIgAiIgAiIgAiLwL4GqC2WEGyKWuO2223oRaNsscTXOKpRxI8ZdmesQk6wT6WfMPlyYEb9xDEfMRmx+8cUXDhdq7mEDYP2L5N810o6YDwN9fBlN2yzKuETjan3ccce5U089NTw1t37fffe1EcocREDjuh3G3r17+3Qdc8wxefs5BzdsC6tXr/YiecMNN/R9s3kX+kevXLnSn4LoZ5+Ja/jgAr/PPvt4wcygYAoiIAIiIAIiIAIiIAIiIAIiIAJtCVRdKIePxPqKeItDVqFs15mb86hRo2yXF8rHH3+8dw3Hgs1zGCAMV3EG/SIgmOkz/Pzzz2cSyvQ3RtxjnbWwzTbbuJdeeiknlG0/aSpVKNu14ZL+16T9008/DXcnrvNuTz75pI8MDBaOIM5UXNyHPty8N2KdiMjH0swI4goikJUAHhiffPKJH6EdN37F2jBgRHy4hyPpZ80znScCIiACIiACIiACIlA+gZoK5eeee84L1Ti5pQhlBt7afPPNfX9b+u7a1E4MjjVu3Dh/ayqViMTYamri8aOPPsoklKmgch+EMQHBTJ9f7m8WZXsXhDIW2169erWJ9EcO+yi//PLLXthj5Y0j78EzGS07PmbbEyZMsMf6kbrZj8s4AddvwjPPPOMZ0S+Z97AgF2wjoWVWAowgTyMMg9JRlmhkYdR6xeoygDO84Q7/rCP5Z81XnScCjFnB9IIMNqn4NwMaqfn2rIG93FIinu1Tpsrlr+tEQAREoD0IVFUo03eW0bEtIuaYBsm2WVL5yyqUcTfGrZrBs0wAMpIzVlgsvY8//rhnkiaUH374YYerMoI3i+s1N9t3331zg2WFwGOhjLX81ltvdQcccIBPC+u4OXfr1s3vt8G6uAfzQD/11FOZ4v777+/neg7PN+HLP3IG8uLdmZKKeZ0322wzn0xY9+jRw5188slu0KBBfh/nb7fddr7PePguWheBJAJ8J1iO+T5XrFiRdIr21YgA/MkH8iP0cKnR4/WYFiOwdOlSx6wRNMC89dZb/n8o0yx29Pj++++7d955x73yyqvutddey5utotQigFDu6DwrfX9+7xREQAREoJ4EqiqUH3roIW9Bxt2ZiMsv0bZZIvSyCmVGeGY+YIQmQpnACNi4FjOoFRZrQppQRjAiPAlZhTLuzUy/xD3DEAtlO0bfYnPBpo+zjUhtx23JqNbMH10sMqo2/bDtPN7dQt++fb31GRa4WNOAYC7bvCcDgnE+6acvONZwRsLWyNdGUMtCBJi3HGtmocHtCl2vY+1LgHwgP8gXBREolwDiBYGMkAvH7yj3fq16Hf+jqV8w4Gc5nEwotyqfar8XHksSytWmrPuLgAgUI1BVoRw+HGsm8/pefvnl4W6/nlUoIwQReaFQ5gZMXYW7slUg04Ty1ltvnZufuJhQpi8vltsvv/zS35uKRRjShDIWW6bDIhQSynvssYe/L+kuJWIRt3Duued68RsKX6zuVKg32GCD3IjXWJd5Hq7hoWXb7qOlCMQEGAyOMh83EMXnabu2BMgP8oX8URCBUgkg3piekP+ZCsUJ8L8UC/Ps2bOLnxydIaEcASlxU0K5RGA6XQREoCoE2l0oIyyTApU7BKFZPMNzGDkaN20LAwcOdFhSLfCPCkuoBaaUYpAtC7NmzfL3/vXXX/2uJKHMHMM8n3sRigllXJiffvppf+7OO+/sR9b2G//8SRLKWHt4Bs8ihEKZFmlLH8doOMCF8rvvvnPdu3f3gpftOGKdxkod7v8nCXmL//3vf27w4MHeso4YJh38oyHQ3wrrPUIZ1goiUIwAjU6MB6DQeATIF2sUbLzUKUWNSoD/efwf5v+BQnYCND7jis1sGaUECeVSaLU9V0K5LRPtEQERqD2BTEKZHywGkCIOHTrUizAGhWKb1mkLl112mT/24IMP2i6//OWXX3w/2549e+btT9tIEsqM6owQTIrMMdy1a9fc7ZKEMn38sEgjOAkmlF9//fXcdbbCnMS4M1srcpK4jIUyQphBtUKBHwrl5cuXe6Ga5MbKFE64Rw8fPrzNACL9+vXLu6elkSWVZUb2ptEAIcyo3/SVJh3M9UzgnzXWZBoaYHjYYYflBHR4L62LQEhg6tSpKichkAZa5/eY/FEQgVII4HItV9ZSiP177uLFi3ON7P/uLbwmoVyYT7GjEsrFCOm4CIhALQhkEsr8c8VCmRQZndnCxRdf7M+x0afZj4sXg1ohBE142vlpS8Qh8xJbwAp9zjnnpMZw1GeuSRLKdq9wyUjUzIGMJZh3JGINHjZsmGOQMARzWgiFMoOhMAI396MvsYWRI0f6/sX84DMwiA20ZcfDJe7nMGIKpzAwf/Kxxx4b7sqt89677rqru+WWW3KumAxYRj/wBQsWuEceecQPXobL+aJFi3yjBs9gm35XCiKQRoAGFxtBPe0c7a8PAfKF/FEQgVIIMHhX6LlVyrUd/Vy+OazxpfwmSihXVmoklCvjp6tFQATah0AmoVzKo0KhyHX9+/f3Ys0G2kq7F9ZoxCkRQY71N0vAMoz4Y+onC1mF8o033uitvHEDAP2MEZmFggllc+mmMQAxGgamgaKvsN0fa3yhgIUYyzSsttpqK9elSxdvKb7qqqsSL8NKHQdGvsZdG1dsnovbdlg5QiAzXdXee+/dxnod30vbHZcAlcIk74eOS6Rx3px8IX8URKAUAjSuhN1/SrlW5zr/zYXjgRRjIqFcjFDh4xLKhfnoqAiIQG0ItLtQjpO9cuXKPBEbH7dtpqsYP368F4lYQ0sJuEWFgYokltWsU9rgjs01xKyjWzIlFS30hELppQWawcdCsRqmNWkdoU//6BdffNFP25F0Tto+3NztWUx1kRRIk52TdFz7REBCuXHLgIRy4+ZNI6eMbzqpG1Ejp7mR0gY/xFvWIKGclVTyeRLKyVy0VwREoLYEqi6Ua/s6epoIiEB7EGhPoUzDjI0NQNqwasWeJ1Tgkwb6C9+FeyxZsiTc5ddp3EobRLDNyS2wQ0K5BTKxDq/Qnt90HZJf90dKKNc2CySUa8tbTxMBEUgmIKGczEV7RaBDE2jPSjVdCZ599llHVwHmJmX0WOYnJyxcuNB7ciCAb7rppoLMGYzo6quvdnhNhAF3yCuvvLLDeElIKIe5r/WsBNrzm876zFY6T0K5trkpoVxb3nqaCIhAMgEJ5WQu2tskBK6//np38803l5Ra+rMznzeCIy1ceumlfgC2tOPV2k+f9yFDhpTdf5x3Yt5s3P4qCe1VqWa+X8QtIpmRmidNmpQnlMk/xhmYOXOmi0fLj9PP6PBPPfVUvNtv021jypQpicdabWclQpm54Rk7wbqYME0dFv9iMfQISOPJoIJxHtDFg/wvNG8v+X7nnXe2uS0zKqSNz9Dm5HbY8dhjjzlmUAgD5ZXBGsNA1xh+P2j0iQPvO2jQoMRGGwaNZFDKLCy5L0ySPCjiZ2bdbq9vOuvzWu08CeXa5qiEcm1562kiIALJBCSUk7lob4MRoD84A5NRoQ/DIYcc4veH+xitnOnC0kQV83BvvvnmbsSIEeFlufXJkyf7gdDCqc9yB53zFd27777blRIRJ1kCIp5B2LKeH9+TAXu4Pq1/enx+2nZ7VKpxp77nnnvc888/7x9TSCjzvggDpmsjxuIEoYXVGOHAeayHkenqwm1bR+i0WqhEKMN29913d9tss42j4cEGI2R6uUIx/Bb69u3rmKs9Dtdee63bcsst/awDdowp8nr06FFQHO67775eQNo1tmTmA6azKyUgYhmokHJXarABGsPrEPnMEsB9Ldx7771+AMmk+YiZMWHTTTd1c+bMce+9914u8pu03377uT333DO3Lzwee0lQzpm9gN8iAo0JNN4lxaS8sLSGy/b4psP7dbR1CeXa5riEcm1562kiIALJBCSUk7lob4MRYGC2zp07uwsuuCAvZUlCGcvWhhtumGjVsYuZA5y5sj/66CPb5ZcI8R122MGdfvrpefvDjdWrV3sxysjknGuREdsZgd22bUnFmXRmDVT0mbasnMDUakwbVmmotFKNpfKJJ55wiAp4ERDKjz/+uB8EDy8A3K4RV1iUEQL333+/e+aZZ7wFMh4lH8F7++23+/sgUGjsyBIZTLDVQiVC2Vi89NJLPi9MKJMHWQN5gag2DwDENxZ9BlDcYost/HR1bJNfNNogNtkmxoMIIiC5Vzy/L/3YmTFg7NixWZOVO++BBx7w3+GJJ55Y0ijPSUKZdPC7c8MNN/j7Yw1mSkSm/osDsx4wVz3TBPLeG2+8sRfNfP94ibCPdQQwvxOsWyQfwoDg7tmzZ24XUy8eeuih/t7bb7+9X2eb35wBAwbkziu0Uuk3XejeHeFYPYQyHjnMYMFvXUcLEsodLcf1viLQmAQklBszX5SqBAK4RlKpDqcCi4UylhmsxbhGhoGKKNNthZHKarjNOtdSoWUZHkPkWTChHLuZ4lZ50EEH2Wm5JZbrJKGMKyZiII4IeNIW7x89enTunqwMHz7cV8apkFvkWhjZdtry7LPPzrtXvFFppRprMiKH/KDCg4Vs7ty5XgwjiMOIWMLl1Sx0CCv2WcDFFRdchLcFLHzcr1DM6uJq96z1Mh7QLH4+ojL2oOCccoUyjRSIPBoprAHBhDLzwHfv3j0xxnO7k4Zx48b5csZ0c5Sl/fffPxf32GMP/w2xDPezPmvWLP+aiEoakrBs871Zo9IBBxzgj9NQwv5OnTp58Y0At0jjS7FAuUDgYj0vJjJoJGDmAoTygQce6Ji7nvJFuSOdfL80XLGONwPfF99u2L0Bjwfege+css9vB2WcQLcCvmfELuGaa67x+cB5SYH0cn74m2PnIZKtqwnlG6FMA0SWUOk3neUZrXxOrYUy+YvXEt4ylLeOFiSUO1qO631FoDEJSCg3Zr4oVQkEsFLusssuviJrh2OhfMkll7htt922jSXpu+++81OPUQEvJ4ZzVreXUMadHDGAAMS1tVDElZwKUxiYdzt8F+bQRlgwcFa4P2kdIVEotEelGkFHYKqzJ598MvVxWPV5N6ZRQxjiNk1eE8LKYiiUyQ8sh4WiPT/1wXU8AH/embxJCohkGg+oKMdiuVyhbHO0I4iZ951gQhnBi4U/jnxv5EdSQHjHaeO8hx56yG222WaJx+w+uB1T9hF5dJEg0rceLw0Cwp1vOy67uEHDJEtAcJJ+vp3Ykh1ej4Ucl2izKPfp08fddtttDos0aUyLWI4t8O0yP709h7735hJNdwgasKxPM/nH+8VWdLvXaaed5k444QS/Sf7gfm5lme/bBDjXc9+sc/u2xzdtaWzWZVJ5jd8l7ZxaC2X+P9BAKKEc55C2RUAERKB2BCSUa8daT2oHAlRIcfW0EAtlrJHhcTuPJRYcBjNKiuYeHJ6PuOZ+Zn2zYyaUqdjjbmqRtGCxs21bsp8YBxPKVrmOj4fbuFPHQjk8zojQWLpwOw8DfX0RRqWG9qpU4zqI0EK0MPe4ueDaElGPkMYFm7RS6b/xxhtzycWSMmbMGC+0Q6GcO6EJV6iII4LJzySxbCLZjseWxXKFcoiKPux8SyaU4Q/3OGIZTRPK4f0Qr3QZIGL5xdJp2yzpEhAGE8omADlGX3aEMvmMOJ09e3Z4iV/fbrvtvBBvc8A5bwXGgozot0D54zsNn2PHbImgPfroo3NCGWGLwEYon3TSSV7wk2dh5H1Docy9aNR54YUXfN6SvxbxNOF96DZi+2xJP/Ew0CcZd2zKAF4VCHj6edv9cdvmGQTKR+ie7XcW+NNe33SBRzT0IfKPfEtrnCLx/B5xDufGoZZC2QZB5H8Z+SyLcpwb2hYBERCB2hCQUK4NZz2lQgI2NRDCNYxUnLHkhPtsPbaaYi2jwooVJozsM5dQLDmXXXaZT60NrMV0RmEwoYwgwHptETdnXCZt25bsTxLK06ZN8+mpVChjfaXCjEiPBf+LL77o+0SG6c+y3h6VanO/pqKHNROLMcIsjPS/w6Uc91REA+6tVFQtIJ5xUUbUhUJ56dKlXkAjotNimmur3buey1gMW+U93k/FPQ6VCmXmq8bKigAzoYxbsAnzeEk5tcC1t956ay7yXRLw5KBBJsxbWx88eLDDDTsMhYQyLtoMGJYUGCws9k6g3PCN4kLNt2wDYCVdzzvjPh0G+viSfrMoU25wtWYwsVNPPTU8NbeOO3oslDlI2cV1O4y9e/f26WIwwnA/67hhW+DbRSQzvgK/GbwL7uPWUId4Yp+JaxrP+A3CO4DvH6aFQnt80zQexl4Hth3/ThZKSz2O4X1iZdu+tzAdfGt2nHPjUEuhjNcAaaDhkDRJKMe5oW0REAERqA0BCeXacNZTKiRA5Rd3xawRy0vcl9GEMn2fLFAJDYUyldmLLrrIHy4mlCvto4y1gGdjSXvjjTcKRhoEqDAlBeYf5j4IkzjUUygzYBoWStJt0xFR2cdt2iKDJSHEOM57wISBpixgpSPEQhmLD/2eC0Vz37Z7NdoyFsU0BGBptMp6kkjmHSoRyrjrIq6w8MLWhDJuwVgw0yL5RKDhwr5BPBhsQC+EJsINd+w40viUJpS5L3lPZCA3LMp8k/RXP/zww/PKAs9HQCJYLHAd6eAbyiKU6W9MA5aVK+5DP2nKnAlluzcW5VKFsl0bLvGk4PukkaFYYH5xGgKIDAwWvqv9HjEOAu+NWCfCnt876+Of9oz2EMrvvPNOrnxaObUl33sjh/h7C8VyKJL5Bjk3DrUSynhE0NhLowSDWMJXQjnODW2LgAiIQG0ISCjXhrOeUmMCWHbThDIVeQQkERfgUoWyVchDSxuvV+pgXjyfZ1PRLxY5jwpTHEwk874EBA+D/VjEMsa1ts3S+k7G9wq3K61UI1KpxGNFJt1U7AkIZyqBuPqyH6FrgcHaeJ9wsDY7FgtlhDbWzEKx0Ny9dt96L+PKO0yIaSKZ9JYrlGFFOWHwLWtEQDizr1gcOHBgG1RYO0OhjOBEiMYRi2eaUKZshtH6KPMwygIW1i+//DL3bL6T8Lsz8Ug/d/suC1mU6XbB86wxBsGM9Y7Bu5KEMo0KvXr1ahPxYgktykxvRkNBUmSQL56Jx0fScfaFIpPGA/bhMk4wN2AaEswThvewQHnJ4oJd6TfN8+CFxT0p2jdu6WrEZfy9IZaziGTepRZCmd8sPGzolkOQUJ7eiMVIaRIBEehABCSUO1Bmd6RXpeKfJpQZ2db6DWOdoRJrrtdZLMqIUa7h/lhYLB5//PG+T6Ft2xKLWpLrNSMHh5XtQvlDxZkKcRgQnKRj55139kKHY/Q9NYsfS0bJ5ZxwHxX/YqE9KtVUnLHek26rROMmbZY1+lOHQhnRxuA1JgzCNMZCmX6kVCiZgigpch8sec0Q4sp7IZHM+5QrlLmWxpmkgFUSS1opIRbKTFeUFMinNKGM0F28eLGPuC2HQhkxjxs23yjrjKBOWQ7zlXEAcFVGwGURyqSPeZttsKwwvbFQpozhZs5I3DQCsI7o79atm18PG5xoELJByYoteSf6bYfnmfDlPUkbz2NKKgboY2A0AsKZOalPPvlkN2jQIL+P8/E2oVGhWGiPb7rYM5rhePy98ftETLMk2zvVQijTWEi5Mo8HCWUJZSt/WoqACNSHgIRyfbjrqWUQGDVqlDv22GMzRSwvaUK5UtdrppKhwl5KTBLK5q6aBQWVu9hCymi4l156qa9w0zCQFBBGuGWWGtqrUh0KZQQeA0PhUkgwoWwWZCyBiCpz8w3TnCSUERppgVGLQ0GVdl6j7LfKezGRTHrLFcpUwOkvnBQRZlg+k46xD55xiIUy1l5EXRyZ5ixNKPMuFmwwL9tmiYCkbGP1pQ8s31xoYUYwIjwJWYUy7s3cEytyGGKhbMdoPDMXbPo4J4lszqUBjf70xSKjavN7YOchsi3QN5t35PeLBgK4W8MS78mAYJxP+unXDxdGws4y8nV7fNP0gzaX73iZNoiivVsjLe17yyqSSXu1hTJsSQ+D2FnXFKYgYx+/f+wLv5dG4lmNtPC/g8ZTBREQARGoJwEJ5XrS17NLIoDVhIpqllhIKA8dOtRXOKl02oi0pViUsWLRV5JKCy3/FocNG+Yrt7ZtS+Y7ThLKRxxxRGqlOwsYs7wyanQzCGUqelh64UJAKGNBocJNIwDu2DRuUCmMQ6sLZd4X61GWUK5QZl5ryn4YGbDKhBkNKkQGmQrPYR1xGYdYKJdjUQ4r/klCmWfSVQLPAwbnI62hwGW6KJufuJhQpmEK4Y3Q5j4InzCkCWUstnhCEAoJZRoDuG+pEYu4hXPPPdeL31D4MsgXnGhwsBGvsS7zPFzDQ8u23Sdp2R5CGX64rSdF+w1NenYj7jOxXMySbGmvtlDmt8+Ee9qSNHeUIKHcUXJa7ykCjU1AQrmx80epK5MAwjHNokwl0yoiDNxFxdYqeVlcr+njyUBDcSiljzJWU9KIRajS0CxCmcHPEGsE3GhxHWfQIljAgQHN2E8/6tAlm/OThDL5O2fOnMSIsGkmi3IpZaBcoRw/g64BCC3E35FHHumnQsJjA2GI10SxEAtl3KaTLNK4GZdrUQ7TQB/dsKuCDUTGexCKCWUs3XwrBLorxCMbJwllBlHi98EGyguFMt0JQu8H3KBpBMJjghHAKdPWWBYusU7zOxPu84mK/jAiPDzpp40YJh3mDcPAXVjwyb+so7u3h1COktj0mwjPrOKz2kKZBiAGsgsjXhT8r8Lbhv2UmY4SJJQ7Sk7rPUWgsQlIKDd2/ih1ZRIoJJStssmtqXyEQhn3SXMNtoGCwmlPqBgjCK6//vo2KStFKCMQeW7WSlqbhwU7mkEowxRhzKBLFhC5BCyJjzzySG6AKUYnp39maG1MEsrkAcI7KfIsCWUjnb9EZCH4+EbgREC4nX766b4iPnLkSH8M62b4rdhdEGa4yCPU6L+LazBuwDRcpMXYpdymh0KYY9Um0v837KNsz7MlaWVeYQtY4HFNNvFgQjnJBZjRvPEysbmZk8RlLJQRwowNgKu0hVAo4yGBUA3LqZ3HFE7wxZsEAR0GRhwP7xkemzdvnh91n5G54cu4B/SVJh3M9UzAHZeGB1yuGRmbLhhJ+RTel3UJ5ZhIadvVFspJqVEfZbleJ5UL7RMBEagdAQnl2rHWkyoggHsc85FmjYVcr8NKJS6/CFarQIdJZGAsjjFnrwVchzfZZBPHNEdxCIVyWDmmHyVu1hZwmcZqh0hojxAK5UmTJuVG9KZ/Mn2YeQfWw1hMRLZXpZqGCAYtQ0ykzfOK0MKSHAYGeAoDFr3XXnstt4spVLBApwWY2ABJaec06/5yLcq4Lp911lneKovQCucZN6FsTOCNOMOCS/m1UXj5XhDHjPqM+y3zANs84Qx2BXfyiWmkpk6d6kUe+xgdmxHPrc+hCWXcphl7wCLnWKBRCksa12BdZe5nhGehQHoZ6R1LMNcReRe6RfDdIpjTQiiUbRos7kdfYgs0ItCNgt8Q3tMG2rLj4ZLRuRHLdC0IA67tad8+zHfddVffLcF+Y+jqgUs8Vn4alHDVxuWcOcdpQOIZbPNNFArt9U0XekYrH5NQrm3u8o3Z70Vtn6yniYAIiMC/BCSU/2WhtQYmQGWTSn7WWEwoL1u2zIvVLl26+Iq+WZFBgLsjlX+sNVi4zGKFQGGbUZaTQiiUqVBTuSUdCNVwMCT65VK5DQfxSbpf1n2hUGZAJgRBsUi/00JBlepCdOp7rFyh3L9/f2+1pbxYmbY3iYUy+zkHaz/CEKFJYIopkzLl6QAAIABJREFURHY4Zy9eEXwTnLfLLrs4vinchRGRrCNw2Y8LNo1PBLw1OMa7FAo0KPH9EHluOJBX0nUIbay8do0tuQ8is1AwoYyw5jos3IjRMDANFH2F7b7FviMsxFimmYaI3w7eGUsxDW5JASt1HBj5GndtGgt4LnkVeqIgkGm4gG/YQBffR990TKS07XoI5dJS2FpnSyi3Vn7qbUSgWQlIKDdrzindBQkwL2lslcRqST9Zq5xT8aRSHI8mjQUZ903cScM+iDwQK6VNdRQngMqrWZ8QEli1uD/u3HHI0gc0viZtm+eG1ta080rZr0p1KbRqe265QrmQiMJiTFnNEtLKf5ZryzmHwaxiYV/sPpwPJ2LW9OJlYZbzQt8nHiE0coVitVh66H9KAwVeHcW8OeJ78btlz7KGhvgc0mTnxMdsW9+0kShvKaFcHrdyr5JQLpecrhMBEWhPAhLK7UlT9xKBFiGgSnXjZmS5Qrlx30gpqwUBfdOVUZZQroxfqVdLKJdKTOeLgAhUg4CEcjWo6p4i0OQEGEDIpp9q8ldpueSTL+SPggiUQkBCuRRabc+VUG7LpJp7JJSrSVf3FgERyEpAQjkrKZ0nAh2IAAMxUVFRaDwC5Av5oyACpRBA6OHGrlAeAQnl8riVe5WEcrnkdJ0IiEB7EpBQbk+aupcItAgBBiEKR0VukddqidcgX8gfBREohQDjLqz8cWUpl+jcfwjQ5x2hzCj+WQPTeDH4nUJ5BCSUy+Omq0RABNqXgIRy+/LU3USgJQgwNQ0VQwYhUmgcAuQH+WJTBzVOypSSRifA4ISMNq5QOoEffvjBMfVeKUFCuRRabc+VUG7LRHtEQARqT0BCufbM9UQRaAoCWC0ZuZvBoxTqT4B8ID9kTa5/XjRjCphaC7GXdRTwZnzHaqWZKbjS5oFPe6aEchqZbPsllLNx0lkiIALVJSChXF2+ursINC0B3A2nT5/upk2b5lasWNG079EKCYc/+UB+lDpVUiu8v96hfQgwJZ4aWkpjyZR/DJ5XqneNhHJpnOOzJZRjItoWARGoBwEJ5XpQ1zNFoIkILFy40Lv7Ys1kHmnmiKYSo1hdBnCGN9xxtyYfFESgEgL0saWvMmJZluXiJBG7fHtY40sNEsqlEss/X0I5n4e2REAE6kNAQrk+3PVUEWgqAlhTEG1z5szxVk0sm4rVZwBvuJdqzWqqwqXE1pQAYhnLMm7Y9FlmgC9Gw8a1v6PHNWvW+G9tyZIl3oODRoVly5aVlT8mlDs603LfX0K5rGKni0RABNqZgIRyOwPV7URABERABESg0QlgJWWAL8QgVlPFvxnQgEBDAg1UiLxyg1mjxbX8skVjrIIIiIAI1JOAhHI96evZIiACIiACIiACIiACIiACIiACDUdAQrnhskQJEgEREAEREAEREAEREAEREAERqCcBCeV60tezRUAEREAEREAEREAEREAEREAEGo6AhHLDZYkSJAIiIAIiIAIiIAIiIAIiIAIiUE8CEsr1pK9ni4AIiIAIiIAIiIAIiIAIiIAINBwBCeWGyxIlSAREQAREQAREQAREQAREQAREoJ4EJJTrSV/PFgEREAEREAEREAEREAEREAERaDgC/2GuP0UxUBlQGVAZUBlQGVAZUBlQGVAZUBlQGVAZUBn4uwz8Z+7cuU5RDFQGVAZUBlQGVAZUBlQGVAZUBlQGVAZUBlQG/i4D/5k4caJTFAOVAZUBlQGVAZUBlQGVAZUBlQGVAZUBlQGVgb/LgPooN5w3vBIkAiIgAiIgAiIgAiIgAiIgAiJQTwISyvWkr2eLgAiIgAiIgAiIgAiIgAiIgAg0HAEJ5YbLEiVIBERABERABERABERABERABESgngQklOtJX88WAREQAREQAREQAREQAREQARFoOAISyg2XJUqQCIiACIiACIiACIiACIiACIhAPQlIKNeTvp4tAiIgAiIgAiIgAiIgAiIgAiLQcAQklBsuS5QgERABERABERABERABERABERCBehKQUK4nfT1bBERABERABERABERABERABESg4QhIKDdclihBIiACIiACIiACIiACIiACIiAC9SQgoVxP+nq2CIiACIiACIiACIiACIiACIhAwxGQUG64LFGCREAEREAEREAEREAEREAEREAE6klAQrme9PVsERABERABERABERABERABERCBhiMgodxwWaIEiYAIiIAIiIAIiIAIiIAIiIAI1JOAhHI96evZIiACIiACIiACIiACIiACIiACDUdAQrnhskQJEgEREAEREAEREAEREAEREAERqCcBCeV60tezRUAEREAEREAEREAEREAEREAEGo5ATYXyhx9+6EaMGFEUwnvvvedmzZqVd94ff/yR2/7+++/dkCFDcttJK0uWLHGXXHKJW7BgQdLhdts3fvx4d9NNN+Xd78cff3RnnnmmW7Zsmfv555/dqlWr8o6zsXTpUkcaLaxevdqNGTPGffDBB7bLLydPnuxuu+22vH1ZN3766Sd30UUX+ef89ddf7pVXXsl6qc4TAREQAREQAREQAREQAREQgQ5LoGShjKArJTz77LPu3Xff9Ze8+uqrbq211spdfscdd7iJEyfmtm1l4MCBrk+fPrbp3nnnHdepUyf3zTffuJkzZ7rPP//crbPOOv449/z666/d77//7p8zevRot/fee7u1117b7bbbbu7+++/353333Xfu0UcfLTvybAuzZ8/2aSJdJ510kuvevXtuG5HPubznvHnz3ODBg123bt3ct99+a5f75cUXX+zWX399d8MNN7g///zT7zv88MPdLrvs4tasWZM79+STT3ZHHXVUbruUlZUrV/p0vPbaa14sd+7c2XE/WCmIgAiIgAiIgAiIgAiIgAiIgAgkE8gslO+8807Xo0cPt+6667qNNtrI9e3b1wvC5Nv+u/fqq692O++8s8MiHAplrMIIRYTyZ5995i2fJhDThDLCE1FqQhkrKeIPK+xee+3lNt54Yy8qb7nlFrdw4cJ/E+GcF9ikOynyTgjrpGO2z8Q+Nz3ssMO8oEXUIuA5h3UiXEygIqh5p969e7s99tjD/fbbb3lpeuKJJ3yax44d6/d/8cUXbpNNNnFTp07Nnbflllu6E044wT399NO5aO921VVXeeGL+LXI88eNG+evR4Aj2GmsIMB5q622cqeffnru/loRAREQAREQAREQAREQAREQARHIJ5BJKPfr18+L2nPPPdc99dRT7tRTT/XbWG7NGpp/23+3fvnlF7fFFlu4e++9N08oX3jhhd7iy5nTpk3zgu7XX3/1F6YJZQ526dLFzZ8/31uU33zzTXfQQQf5a7AeY6EuJ5CW7bffvpxL3QUXXOCFc3gxghiBOmPGDL8bF2izbIfnsY54PeOMM3xjAg0KXbt2za2fd955/j6bb765C+N1113nb0Pjxfnnn58Xt9tuuzy3dBoPwmfjiv7GG2/EydC2CIiACIiACIiACIiACIiACIjAPwQyCeXHHnss5z5t5C699FIv4qZMmWK7Upf0ve3Zs2dOKC9fvtwLbeszW4pQHj58uOOZuF7Td3fSpEn+ubUSyvR7xhXaIsIUEWvbLI888kjPhncO959zzjmJjF588UWH+EVc4zp+1113+Yi1vFevXonXsBMXavp9h4H0mEWZ/WxfeeWV3uqORZ9jV1xxhXv44YfDy7QuAiIgAiIgAiIgAiIgAiIgAiLwD4FMQjmJFn2FEXZ333130uHcvhdeeMEPdoWoPfvss/01WEJHjhzpWDLgVVahzHm4KSMqcZVmnYjltlKhjKDE8lssIMwfeeQRH3F3pi+1bYdL3LERxuG+l156yd/+q6++cmeddVbeYF6LFy/2bOhLTfjkk0+8m/vtt9/u+zrjdk4MByfDUoy1nj7aBOsbjas1Ap2+0biVk09E0oTVGtfx//73v/4a/REBERABERABERABERABERABEcgnULZQph8t4sssuvm3/XeL0Z8RscRtt93WX2PbLBHcWYXyzTff7A455BB/L57NOvGBBx7w+3DL3n333dvEcMTsf1P27xqu19yP/sHXXnutw108S9hzzz3dsGHDEk/dYYcdcpZdXMWxhNOnmoAVGJfx9dZbzzGoF+7rnEMaPv30U4eQRvwyMvZmm23mre/056ZxAEu6iWWu22+//dzBBx/s740ox9Waa7F804iBezzCmJG4CStWrHBY9BVEQAREQAREQAREQAREQAREQASSCZQtlHHfRbQlTX2U/CjnpydCDMYhq1C260488UQvKkeNGmW7vFA+/vjjfT9lpmviOUyNRL9lE6i5k6MVhPI222zjLdVYXRlA68EHH0y87sYbb/Su1ghYnoEwDfsPs47r9P777+9FN4+iHzOCPg7090ZAExhBm/tZZNCtMLz++uv+WQ899FC423355Zd+P+li0LDTTjst7zj9nBnozMLll1/uDjjgANvUUgREQAREQAREQAREQAREQAREICJQllDGPRiBeMwxx0S3K7z53HPPeVfg+KxShPLcuXO9MEWkIwDvuecef7vQgot4R3AyVVOWEA7mhbUVl2qu32effdrMa8y7YxHm2CmnnOLXcY9mgCz2E3/44Qc/UjXu1Yh0RHixPsFPPvmkH8EbV3SEdji4GBZm3pdzkgL3xsWaSD/kMOCavummm/pdzOnMOgJdQQREQAREQAREQAREQAREQAREIJlAWUIZqyVCGVFXKOACjIC0iCDlOttmyVRHWYUyczjjWk1/Z4Qj/Xhxl8ZtGTH6+OOP++RUIpTtfZh7GFduLMzhHMocJ93st/enn/Azzzxjl/ol74p7NdM6bbDBBg6RGgdcp80tHCs4btQErNm77rqrd5dGmNM4gHBftGiRYzvJNRwX6yQLv7FdsmSJdxPfcccdi45UHqdT2yIgAiIgAiIgAiIgAiIgAiLQkQiULJTNrRkxVyzgJmyWTpb0sSWG+5gj2MRcsemhEOiHHnpobh5lns8I2IhNLKVYrAntIZS5D5bh559/3t8z/MOAWPQZxj2ayDvhim3biNkJEyZ4F27mT6a/cFLA+svI2AT6OjNNFMH6FnOtuWKHS0R4GBjkC5HMObibhwGm8B4yZIg/B9YKIiACIiACIiACIiACIiACIiAC6QRKEspYRxGF1q82/bZtj+CCjDsxfWTjkFUoY0lGvH7++ede9Nl9GKgKkYhgJLSXULb7x0sGMqPPMPM4ExHp11xzTW57zZo1flAu0sQxG0grvk///v3dscce63czsJmNRE1jBNZoBDdWeUb15l5Y39kOrdM0EjCoGJZ2XMARzFjYw9CjRw9/fSyww3O0LgIiIAIiIAIiIAIiIAIiIAIi8DeBzEKZuZQRYVg9Cw2OxeBSSWHixIlerDGqcxwQlghACwMHDvTTLtk2A1116tTJNr3LMyNoW5g1a5a/t1mkqy2U7bm2ZAAvRDyCf/z48W7OnDn+fWhUOP/88/1pzHnM4GPGjjTivo3lmXdHCONKTsACzbRTFnCb5vi3335ru/ySezGqOBbj999/398bF+xwsC76N9N/m7xDeBMQ0pauvBtqQwREQAREQAREQAREQAREQAREwGUSyrgCI/oQXPQDZjqm++67LxdNoF522WVe0MVu2fSpRcCZm3Ex7klCmamUBg8enBiZV7lr166521ZTKDNwVq9evfwo2507d/YiFRGLKzbinXd84oknHFZcBCzM6IuMYMW6bGHcuHG+vzbsmPZqp512skOO9x8wYEBuO0koI7z79u3r84X5lC28++673trNNhborbfe2vd3hh/5QyAPsUAriIAIiIAIiIAIiIAIiIAIiIAItCWQSSgj+BCDadEGu2JOYM5BBFrA7ZgRohGSs2fPtt0Fl/369XPHHXdc7hys0Oecc05qxG05dCuuplCmTzTCnDmLWWeUa/on22BePPuII47w4vSDDz7wlvChQ4d6Mdy9e/fcOyFUsQZjgceyDDMs61iJu3Xr5kaPHp0797PPPvNcQ4syLtcwsgHMcic75xj0DBd3xDF9unHVJs1ssx+3bp6tIAIiIAIiIAIiIAIiIAIiIAIi0JZAJqHc9rL0PYi6MNAPd8MNN8wNtBUeC9exdjKCNRGxjStzlvDTTz95EY5gtVBNoWzPCJfhqNcIUAb7MlH74osv+tGzeSfENWHFihXegkzDwZgxY/xo1whkrO5Y7hkle8GCBV6EY5Fm9G2s0TZCdvjspHUs2CNHjnS33nprztWba0866SR/f9KCu7qCCIiACIiACIiACIiACIiACIhAWwLtLpTjR6xcudILvnh/vL106VLfv5eRqxGJpYTFixfnnY5bMi7SCNIsgecxHVS5Acsy8y8TEO5mYbf7IVLjfYhZC3aMvsoIfu5BQDzT5/mll17K3d+uKXdJP2jcsxVEQAREQAREQAREQAREQAREQASSCVRdKCc/VntFQAREQAREQAREQAREQAREQAREoDEJSCg3Zr4oVSIgAiIgAiIgAiIgAiIgAiIgAnUiIKFcJ/B6rAiIQDqBjz/+2DGlnGJrMJg+fXp6ZuuICIiACIiACIiACDQgAQnlBswUJUkEOjoBhDKjxjPegGJzM/j++++dhHJH/6L1/iIgAiIgAiLQfAQklJsvz5RiEWh5AiaUW/5FO8ALSih3gEzWK4qACIiACIhACxKQUG7BTNUriUCzE5BQbvYc/Df9Esr/stCaCIiACIiACIhA8xCQUG6evFJKRaDDEJBQbp2sllBunbzUm4iACIiACIhARyIgodyRclvvKgJNQkBCuUkyKkMyJZQzQNIpIiACIiACIiACDUdAQrnhskQJEgERkFBunTIgodw6eak3EQEREAEREIGOREBCuSPltt5VBJqEgIRyk2RUhmRKKGeApFNEQAREQAREQAQajoCEcsNliRIkAiIgodw6ZUBCuXXyUm8iAiIgAiIgAh2JgIRyR8ptvasINAkBCeUmyagMyZRQzgBJp4iACIiACIiACDQcAQnlhssSJUgEREBCuXXKgIRy6+Sl3kQEREAEREAEOhIBCeWOlNt610QC7777rhsyZIj766+/Eo9Xe+fq1avdqaee6j799NO8Rz366KNu7Nixft/XX3+dd8w2fvnlF1stuOT6s88+2yFaqhV+++233K0XLFjgzjzzzNx2qSsSyqUSa9zzKxHKK1eudIMHD3YfffRRmxccNmyYmzNnTpv94Q6+7fC7njVrlrv55pvDU/z6hRde6D744IM2+7PsePbZZ919993nT6XcEhVEQAREQAREQASan4CEcvPnYYd4gz///NPdfffdJcWXX345E5sPP/zQrbXWWi7L+VOmTHEI2HLi5MmTc+n55ptv3DvvvOMj9+T548aNy+1bsWKFF+9HH320F9AbbbRRTjTbTRAgm2++uWdi+9KWiACe8dlnn7U55a233vL3DgVFm5P+2dGtWzd33HHHtTmMWNhiiy3cF1984Y9NnDjRP6/NiRl3VCqUf/3114IiaunSpY73Jp3/+9//3E8//ZSYsi+//NK98cYb7pVXXnEzZsxwYWNA0gW8vzGIj69Zs8an6dVXX3WUhSTxxzWch6DjmTx7yZIl8a3ytou9a9Z34DugLJI+BOjvv/+e95xyNyoRyq+//rpbZ511HN9LGGiIoTyTJ2nhq6++cp06dXI9evRwvBsB4cz9nnjiidxlixcv9veaO3dubl8pKyNGjHD77LOPv2TUqFFuk0028WWqlHvoXBEQAREQAREQgcYjIKHceHmiFCUQwOpKxXirrbZyO+ywQy5SKV1//fVz23Zs0003dYccckjCnZJ37b333u6MM85IPhjsPfbYYx2iNSmSPtKSdIx9Rx11VO5OL774ottll1183Gmnnfy7de3aNbcPEUcF/IgjjvDXTJ061d/7ySefzN2DlWeeecZX/BHuhUIhoWzPX7hwYaFb+GPbbLNNIlcaMuDdvXt3xzqNDvAoN5QjlBH6XAejq6++2l111VWJj580aZK74oor3LXXXuvuvfdevz569Og2jQh23vXXX+/uuecef96YMWPct99+m3dfrJ7k1+233+7PefPNN/OOs8E1t9xyiz9+1113Oe5DGh5//PE8i+d3333nLZ4c45k33HCDPw9BH4ZS37XQOyCIH3jgAf+cm266yd1xxx1+/bbbbnOrVq0KH1vWeiVCGUvvoYce2ua55O+WW26Zx67NSc55gX3kkUf63w0aIAh4j4S/DXhtIJ4nTJjgnn766VyEMYL85JNPbhNPP/10hxAnXH755W633Xbz6/y57LLL/G9Alu8pd5FWREAEREAEREAEGo6AhHLDZYkSlETAhDIWrzCcc8457qCDDgp3+XVEZlgZthPefvttt8EGG7SJVJQRufExBFSWgFUPYYjwKTXYtbF1DJFw2GGH5W733HPPtRFzHMSVdL311nOff/65F1aXXHKJiyNu0KTvrLPO8sewVlpA5GGtz2JRThPK3AtrNRZnLKWkdd1117VHlLwsRyg/+OCDXuAhfhGjSUKZ+yJCX3rpJUeZIiDkyOf//ve/uXTiBs95CP4//vjD7//hhx+8AA8bJXjnK6+80l133XVeaHFNklAmTZxjLvTck3tz/nvvvZd77v333+8FPGki0OhAWjkPy7CFLO+a9R1ee+01f/958+blysD777/v973wwgv2yLKX5QjloUOH+savDTfc0FuFrQEMIUtAmFK+8GIII+fFgXLNdTvvvLOP2223naNxiO1evXr53wmeg3dGGMkjyvL555+fF+kmwbdkVu5bb73VC/HwuXiH8F0riIAIiIAIiIAINC8BCeXmzbsOlfL2EsqIGCq5uF7iYlooYuFFoGQJJnazCGVECNZli7179/Zp6tmzZ24fx7bffntfcbfzbIn7aBymTZvmd/Xt29cdfPDBbSLup7z3vvvu649hrSwnJAllrJA33nhjXsQKh5CJ94fbJhqT0lGOUMZd2Ky9zz//fKJQNnGKa3sYcB0nr821eubMmV5sx+c99thjDuusheXLlzvyE6sslmXuEQtl+pGzn2eEgXuznzJIQBRj3US4hgE3cc6bPn16bneWd836DjQqIPbiwD7rIx8fK2W7HKHcp08fR3zqqadykbJHQ4J5K2AFp0HGIg1LCN2kQFnjPXGRJrJOHDRokP8uaEBLC3hjkDcWaCjp0qWLbfpuGDSwkU98m3g00HhFY501eORO1ooIiIAIiIAIiEDTEJBQbpqs6tgJNaFMZfjhhx/ORazGWIfCfayzP8mibEK5kEgz0litEChZggllLLPFAs9+5JFHfKSyv+OOO3pro+2zZb9+/XyF3LZtmdYHttBzC7leY23DDTkOWDARS8ccc4w799xzvXUN1jFXrHiI+jDi+o6VO9xn6wgeRPv8+fPjR+a2yxHKuYudc2lCGdfmZcuWhaf6dUQsrtHFwp133pkqHtOEMi6/5NnPP/+cd3sTysUGpML9l3K4aNGivOttI+1d7Xi8jN8BgQeXOMAD1/5KQ7lCGa+IMOCtgGWeMog7dRxoxKBsWcB1nG8mFLk04DConYUBAwb4+2FND6PxwKrMPcPfAVy3eT7u8/vvv7/r3LmzL8+UaTxTENGI8RNOOCG1v7o9X0sREAEREAEREIHGJSCh3Lh5o5QFBEwo42a57bbb5uLGG2/sXabDfayzPxZ03A7LKxXaagll7o0reJLVN3id3CputVhek9KD1Tu0XNH3MbRWcg3u1kQTf7iZ0tc67tNaSCifdNJJ3uU8lyjn/ABiWOdIG31EeSf6WadxDa9lnQG/rH91fIyBquDEIEppoVpCOel59MOlLzCWyrSAcGJgKdysQ1fp8Pw0oRyeE67T7xz38LSBxLBSk28IW6yf5gIe3oP1rEI5yzvYvXEpRxy2Rz/b9hTKp5xyii+TSenCSwIRbQEhS3mlwcsaI2j0ofsB/YuJsL/ooov8bwhdL2jcoWyeeOKJdhtv4UcAm9cGniZ4FfB9ssSlnmvoFmIDoKU1auRuqhUREAEREAEREIGGJyCh3PBZpARCwIRypX2UETtUahEXjChcKNKXMbQkFcoJsyhfcMEFbr/99vPPwKKEiE0K1heSyjmVcNu2JVYs0oZQJWB9ZJ0Rmi3svvvu/jm8T2hJo68tAiGcbqoUoUxlHysx9whHZkbgIpaTGiAsTSwR64w2nNRHmOO8F2nGbTkt1FIoY3XEeprUp5R+qIhjygFx9uzZaUlOdb1OuoBywX3TXH5x37VnMkiYDUSVdK9iQrmUd+D+NBzgTo+Ftj1CuUIZAUvjgEUEL67Xn3zyiR8RnP77JkxJJ94Pe+21V16SeXfENVZ5At0SKHsWuZ8F8p/B+vbYYw+fl7af5XnnnecbrXCL59pw9Hg8BdhnjVM//vij/05MWIf30boIiIAIiIAIiEDzEJBQbp686tApxfJDZTSufJY6mBejTXMfRGexyHmlCmXro4zQYVRe+i5irYytgUxXg0WKNDCYFv1UsYixn4hAZUka6HdLhR5LeRgQAViSsWiFQplzEBGM5G3PLUUoM00Oz01yReY5xYQyLqxcT6MGov3www/PEzRY0TleaA7oWgllhA+CPq1BgwYa8oKpvMgDBv2iT3JSyGpRZlAw+moXEqLkK+KOwbQoP3QnsP7T8bOLCeVS3gHhSXcA+tgWyp84DYW2yxXKlJE4mrCFISPg0zBlge4DBxxwgG0mLrE40wgAXxrC7HvlZOZr5puJXeQ5BnuuZdAvRnaPA54uNhgcZYQR7bMMjhffR9siIAIiIAIiIAKNQ0BCuXHyQikpQAA3SSrN9FG0+YdZHn/88W7PPffM28d+rLlJgo7RaLGKZgnl9FEOK94IJxttmr7VYaASfeCBB/q+v+ynb/Ouu+4anuKFytprr+3drTnGNDRJgWtjoYwQ2GyzzXIW6FKEMveDdTh4lD03i1BgdPk3AAAgAElEQVTmnXFP5R1xD0dEMHKwBQQi71VISNRCKOMeT0MIlvKsARfopIGvuD6LUMZai6DCnTrJgp2UDvKOdKbN81tMKMf3THsH8mP8+PG+MYDy016hXKFMX2Dc8y0iVE0okzYaYvDGwEOBQBnDtToONBRY4NvH5Z1AWeZ9cUkn8ptBtwXbtmtsyUjxfBdYuuOAQD/ttNP8nNc8g0YwBREQAREQAREQgeYmIKHc3PnXYVKPdS22LhXbThLKDBCEAM4SEHm4UWYJ5nodCmW7Dqsgle8wMJov6UdEYhlj8Cusy6wTR40a5U9HHNDXl8p3fA+7X5JQ5lhoESxFKCMESFtSP8tiQpkBuhAvWEEtIDAQxiZomKcX1+xCodpC2aY/Cvt8h+kh73HxjQMeDYjWeDRszismlHGfpqEHoZ3ULxlBx3vH92YwqmuuuabNqNmWtjShXOo7YOlnfuLQrdieUcmyXKGcNJhXKJRJ08CBA71lGIsvcxsnzYWOiMUtGis05dqm2eLbQ4yn/Y7EDRn0u+dcvlXYhoHvle4K9OVnyqlCjUDhdVoXAREQAREQARFoXAISyo2bN0pZQADXU/rM4hqKcLA4bNgwXzm1bVsOHz480aKM6MRy1N6hkFBOehbigRGFEV6INUaVxgrLOhHBRLA5WxEwaSFNKIfnmzt10ojZ8WBeWBwRBIi6OBQTyoiSrbfeuk0DA26t1ojAoGRJ892Gz6qmUKbvNjxtWqbwubY+adIkL4gZEToM9GfGVdtc2sNjhYQy5ZJrGWCKvE8KCGVEeDhPM+ch7Ngf98+3e6QJ5VLegXJIn2kaVNo7VFMo0/0ALxGEKdOn0Zc4DEuWLPFlmYYRRjangcZELI1PjFmA6CXindK/f//cdngfpqDimyAP6QKBaA4DrE1Ex2UmPE/rIiACIiACIiACzUNAQrl58qpDp5QpXejrGodS+igjZhk8K7ZKxfcsZ7tUoRw/A3GKeGSwKKxf9BMlYPHCQosII+C2HI+6jEs21rF4wCf639JHGkHAaL6IXARbHGKhPGPGDF/pD0f+5RrSgDt3kqWe40zHQ1rpc10oYPljzuhCoVpCGUFEH1Jcn+l7HEdc/AkMNIYVl0YIGhloYEAMISaxvCaFQkLZ5mmmESR+JtvmHkzjCc/gWTyTZ9N3nTRjEU0KaUI56zvwDIQ4Xg5JaYst3ElpKLSvmkI5fC7dE+h/HAZY4pVBoEsAA3sR+FYQtuG3hOs0I2LHgT73lHvmKCfwfXJtOF4Cz2UfDXQW6D/NtQoiIAIiIAIiIALNSUBCuTnzrUOlGhGKOzJTscShFKHMAFtUZmO3yfie5WyXIpQRRczDylyrzC2MpZx0EamQ4xpOX0tcthGeRLMyDho0KDdoEM9EzOKyjRWX0XqxOpoYRgwwRzL3oT9u6IodvmMslDmGGMZdGoHGVDwIPQQHaUkSylifSX/aSNfh8xitm/lrC4VqCWVEPKIwLYZ9S3FBpgHDzkU40/gQjrQcvkMhocy1dp+kpZVJ8gxX9fD8sWPHFpyPN00ok7Ys70DZSkqT7cs61VnIIlwvVygzvziWW4t8J2mNXHCjESxsxOA74LtgsDv6htOYNGHCBJ80+mBTXkPrb5JQZrwDnkuZDRsq8Azg+8OzgPEH+C44h3PNY4Bvm29PQQREQAREQAREoDkJSCg3Z751qFQjvjbZZBM/+nP84qFQNpdKzkFQhvP40oeRUW6Z/qUaoRShzPMRIYgwRM7MmTMdI/aGg3lhtcISjDURV2UaChBQvIO5DDPVDa6kWASpsMOJazp37uzdSLGgYdUiYumiP6cNcobYNV5JQhlRAD8T8PTLxAqLVS0UynA1q3fSKNm8K3196WOOaGOuYu6JpbZQqFQoF7p3qcd4R/qqG69Sry/nfJ7FM3l2e4R6vIOlu1yhvO+++/q++vT/tWjzIXNvyhTTazEYG670NBiFU47xbSFgEcMjRozw346NaE3DD8LaGpW4X79+/dpYlBHKDLqXNFYB3h80TuG1wbP4ZhDjDC7IlF40NFkDiLHQUgREQAREQAREoHkISCg3T151yJRivUMkUvFMCqFQHjlypK+cUjlGjOEKbAGXZSrGadMA2XnlLksVyvFzEI4mlOlXSVoR0gQs0FjVeC+sbGbRRJjG/VaxGtOfGy64mfbu3dtPFYXopZEAUYxgxkqZJeB2i0U5FBThdQz4hct4aMkLj7P+0EMP5QQ3+YLF3ARLfK5tN5JQtjRpWR6BcoQyZTQcEC7pyVjCrSGHBiKsvGHgN6NPnz7emsz85JMnT/aNTXYNwpiAuzVlmG8urbEnvK+t0++ZftGUVQv0eeb3imfgNaIgAiIgAiIgAiLQvAQklJs37zpMyrFIJg2eBAAsNjZKLwP7YGHCVdT6moaQsEBVKyAksVLZiLqlPof+qFivLDAlThx4vzQO8bm13E4T0ZYGhD4DaDEvdNaGCgllo9f8y3KEcta3puxZ/+6ka6xsmqUZF20ad+w3g2sQvPTP5nejPbwGaMjC68PGFUhKl/aJgAiIgAiIgAg0PgEJ5cbPI6VQBDocAQnl1snyagrl1qGkNxEBERABERABEWg0AhLKjZYjSo8IiIB3Z63GVEVCW3sCEsq1Z64nioAIiIAIiIAIVE5AQrlyhrqDCIhAOxOQRbmdgdbxdhLKdYSvR4uACIiACIiACJRNQEK5bHS6UAREoFoEJJSrRbb295VQrj1zPVEEREAEREAERKByAhLKlTPUHURABNqZgIRyOwOt4+0klOsIX48WAREQAREQAREom4CEctnodKEIiEC1CEgoV4ts7e8roVx75nqiCIiACIiACIhA5QQklCtnqDuIgAi0MwEJ5XYGWsfbSSjXEb4eLQIiIAIiIAIiUDYBCeWy0elCERCBahGQUK4W2drfV0K59sz1RBEQAREQAREQgcoJSChXzlB3EAERaGcCJpSZIkqx+RlMnz69nUuIbicCIiACIiACIiAC1SUgoVxdvrq7CIhAGQQQyoqtxaCMYqBLREAEREAEREAERKBuBCSU64ZeDxYBERABERABERABERABERABEWhEAhLKjZgrSpMIiIAIiIAIiIAIiIAIiIAIiEDdCEgo1w29HiwCIiACIiACIiACIiACIiACItCIBCSUGzFXlCYREAEREAEREAEREAEREAEREIG6EZBQrht6PVgEREAEREAEREAEREAEREAERKARCUgoN2KuKE0iIAIiIAIiIAIiIAIiIAIiIAJ1IyChXDf0erAIiIAIiIAIiIAIiIAIiIAIiEAjEpBQbsRcUZpEQAREQAREQAREQAREQAREQATqRuA/06dPd4pioDKgMqAyoDKgMqAyoDKgMqAyoDKgMqAyoDLwdxn4z/z5852iGKgMqAyoDKgMqAyoDKgMqAyoDKgMqAyoDKgM/F0GZFGWRV0eBSoDKgMqAyoDKgMqAyoDKgMqAyoDKgMqA0EZUB/lunm968EiIAIiIAIiIAIiIAIiIAIiIAKNSEBCuRFzRWkSAREQAREQAREQAREQAREQARGoGwEJ5bqh14NFQAREQAREQAREQAREQAREQAQakYCEciPmitIkAiIgAiIgAiIgAiIgAiIgAiJQNwISynVDrweLgAiIgAiIgAiIgAiIgAiIgAg0IgEJ5UbMFaVJBERABERABERABERABERABESgbgQklOuGXg8WAREQAREQAREQAREQAREQARFoRAISyo2YK0qTCIiACIiACIiACIiACIiACIhA3QhIKNcNvR4sAiIgAiIgAiIgAiIgAiIgAiLQiAQklBsxV5QmERABERABERABERABERABERCBuhGQUK4bej1YBERABERABERABERABERABESgEQlIKDdirihNIiACIiACIiACIiACIiACIiACdSNQc6F83333uU8//bTdX/j666938+bNK+u+d999t7v22mvdX3/9Vdb1t99+u/vyyy/bXDt27Fj30UcftdlfzR2vvPKKe+yxxwo+gvf8+uuvC55TrYMDBgxw7777rvvwww8daS0lzJkzxw0fPryUS3SuCIiACIiACIiACIiACIiACJRMoCyhjND6/fffS34Y4mzdddfNE0g33nij6969e2L84IMPMj3j6quvdmuttZYbP358pvPDk55++ml/7ZVXXulWrlyZF3/88cfw1MT1t956y19PWn/77Td33HHHuU8++cSfu9FGG7knnngi8bpq7Pzzzz/d9ttv7xCjYfjjjz/c+++/7x544AHXv39/t8UWW7j111/fzZ49OzytJuvrrbeee+SRR9xTTz3lNt98c3fYYYe5L774ItOzEcrk88yZMzOdr5NEQAREQAREQAREQAREQAREoBwCJQnlN954wx188MFu4403dgiePffc002cODHzc88//3y3zz775J0/ZMgQt8cee7i77rorF8eMGeMF0YwZM/LOTdp49NFH/bk77bSTF4BYK7MGBNcGG2zgr0eAJUXuXygcf/zx7qCDDvKnwId7LF++3G/XWigjytdee233+OOPOxoPTjnlFLfXXnt5UUy6EMjHHnusu/nmm93ChQsLvVbVjlF2xo0b5+//3XffuT59+rgddtghc8NL586d3SWXXFK19OnGIiACIiACIiACIiACIiACIpBZKCMCEWEILSy39957r+vWrZvfl8WFdtmyZV6wTZkyJY86QvmEE07I2/f99997wVlIKGMlvfTSS/3zb731VrdmzRp34oknegH/8MMP590v3uDa6667zp+LgESYf/vtt7n4+eefe/GOyFy9enV8eW57/vz5bp111nGTJ0/2+y6//HLXtWtXhwAkbrjhhp6TbbNMu9+qVaty9y1nheu33XZbbzHGyn3UUUe5ESNGONzKp06d6nm+/PLL5dy6pGtwq6eMpEUs2ZSb8Pjee+/tt43BN99848sY5SyOZ555prvpppva7Oe8SZMmlZRWnSwCIiACIiACIiACIiACIiACSQQyC2UuRnCF4eOPP/YCDHfeYqFv376OSMAF+5BDDnE//PCDK0coc/0BBxzg3bjvueee3KNxCcdqjfjlvgiuONA3FmGGwKVfMyIfKydimetxA953333ddtttV9QluGfPnl702TO4L88uFCdMmGCn55aDBg3y6cE1utwwdOhQ/9y0PtGkqRZC2dyjafzgveK42Wabud12263Nfs775Zdf/Ou//fbbPk/Il1Li/vvvXy4+XScCIiACIiACIiACIiACIiACOQIlCeXcVcFKp06dvDUw2NVm9YUXXnCch9UWiyruyr179/bnIWh79OjhnnzyyVy8//77veiLLcr0GaYvMeIJy+2sWbPaPIsdr732msNFF4subrorVqzInYdQPvTQQ93cuXNz+xgEbMstt/T9pLk3/WbDa3InBisMSob4RPATpk2b5refe+45ny7ShvV09OjRuW320TgQB1zPuVe5A1Uh9k2cm9t3/IxaC+XFixfHSfDbsA37UNM4USzQ9zst/Prrr2mHtF8EREAEREAEREAEREAEREAEyiJQkVCmfzICrNAoywhD+gEjQBm8ifM33XTT3KjLCGWO4zZscZtttvHnhUKZfrfcA0swLtYMCoYQTYv0fUV4cj4ifenSpYmAFi1a5F24u3Tp4u9P+rBWI9YZ3Csp0LeZ55IeE8q9evVyWJjDkLWPMqISy3gxcR7e29bpkw0/+miT9kYRym+++abDhd0i7vSEwYMH55ixfe6557bhZu/GksHR+vXrF+7KreNZQP4Wc7XPXaAVERABERABERABERABERABEchAoGShjPC58847vessYhWhk9bv1p5/ww03OEaXfv75572ow3psIavrNaIIkYVrMRZG+kwXijZiNiNQh0L+s88+c7g/46JNH2QTxgyExXvQx/bCCy90uAgjhhHCbHPcrKRHH320v5Z35zhWUSzXiMMwZBXK4TWlrPNcXMR5Dxt9e8mSJW769OltIu/JIF7xsZ9//tm7qPOO5Uas6xbM9ZrnhZG+xQT6hiPqCYhnrP6jRo3y20l/GJSMQciSAv2SeYblS9I52icCIiACIiACIiACIiACIiACpRIoWSg/9NBDOQFEX9OsIoX+pwzidNFFF+WlMatQzruozA36LCPMEF5YKhkELOzTS/qsDzGiGYs5A4ZhLUb0Pvjgg/7JDOLF4GT/Z+9MfC0pyv/9+xMIgUgwEiQSMWJQohAwqBBAiMpi/KKABFlkEwUEFFBAdmSTXXYVBUVREFCBmQGGfWBg2IZd1plhk3XYh6F+eWqsY98+1eeePufMTPe9TyV9u7u6uvvtp7rv6U+/b1VxLcmjnDNpcQtlzsnHBz4iJIGaet4uitRey7QHhgEe9UEnPPwp4W3nfMzxbjPB6IADDohF4MsHFj52HHvssdEjnBuDOh0PjznHe+ihh1JWZ04INz1mmyQgAQlIQAISkIAEJCABCYySQG2hzMkJEaa9bQqBTgKyyjDGXP7Od74Tttpqq0AbYcQSHlh6n64rlOndmo6i+pmOO+64LpMQy4w3jBAuT4RoEwJdzuec7FNORaGcxiYuhoIj8HIh4gjbUacklDn2/PnzuyZswZNf3kYdjDKlttrFa0xeec6DxxtbaEdOCP73v//9nqeHPUzpvbucEPaHHnpoOdt1CUhAAhKQgAQkIAEJSEACQxEYSCgXz0inXGuttVYxa8wy4cF0noU4oj0p4y8TKrzffvtF8YlQRjAxJnOa8OxSvthGOR0UTyTbEFhHH3105cQxaGucSwxtxTH6neg4LJeKQpkepenIqzgh8A4++OAxeWzv1TlV7jz95CWhvLTbKF9zzTWRa7GTLdpu4z1OCYGLJ3jllVfutFVP23Lzr33ta50e09N2OmOj/gglN0lAAhKQgAQkIAEJSEACEhglgaGFMm1IESzFEOaygbQHPvvss2M4Lh7CYkIoI5wZGilN5557bjxmL6E8bdq04mG6lgnLrRLKjNdLuC8TPV6nZTzKp512Wlx/+OGHY3tlthW9o8UTFYVyMT8tL4nQ63SupghlwtnhWEyIYtq1p0Q0APfMhRdemLJie+XOSmkBr3H5YwXtmhHc/fSaXTqcqxKQgAQkIAEJSEACEpCABHoS6Fso01aUjrzKiXbKCMKiAKaH6VyoctoX4YnnkVQ39Dp5lIcRyskOhBqijmGrSHTgRW/XJELFCRmu6vmaMqMSyg8++GAcx7nKGxwNGudPU4TyXnvtFceppjdxPnwQyr7sssvG9t5cwnXXXRcjCBDKdLSW0uqrrx7oaC2X6NWa8gwPltLnP//52PlYWncuAQlIQAISkIAEJCABCUhgVAT6FspbbrllFJUnn3xyQDQjVHfdddcoYOiNOqXp06fHvD322CNm4fG75557wvnnnx9222236BlE9CCw2ba0hPIJJ5wQBT6dX6VUFMoIZEJ+8Xbnxj5mn1EJZVjA5Cc/+Ukypfa8CUKZ+sR7TO/ZiF7C35m4F/jAgbee8HvGUmYIsNQ+GdZcf9XwWLRr5gMGHcKRZsyYEcvj9TdJQAISkIAEJCABCUhAAhIYNYG+hTJtTum5mHBXRA0TbUzplKsY/oqAZtsuu+wSbaUjL9ol4wFkiCCG9KFDLby49LjMeMebb755XGadKY3PTFvishhKHmXGZEZsVU14uXOh14gyerHGk4zgLybykkeZfEK0N95447DRRhuFYpvbtM+ohDLDTDEWMkNQDZqKQpn20rQBL07UCZ2pFfMYZ3qUifNynptuumnMYWG38847x20wI9rgxhtvjJ5mRDXDh6222mqdfWj33mtCjNNJWq4M422bJCABCUhAAhKQgAQkIAEJDEOgb6FcPAmh07RJLgrk4vY5c+bEHq1TXgptTuvMEczFHqKrlrfZZpvibtEziRhDoNN7dtWE+M4JZQ52zjnnBMLDU0Ko0QaW45bHQkbU0x6WnrDLaVRCmeMO2/t0USgjuL/73e+OO9FWeJQptTcvHxPhvNJKK8U6L26j3Tq9hcP9rLPO6mzae++94zjdg8yvvvrqznFckIAEJCABCUhAAhKQgAQkMAiBgYTyICca1T54I6+66qo4Pm+vY/773/8Os2fP7lWks+35558PhIwX28x2NvZYwNtNGHBVYjimXLvuqvLD5BMejjd1cfSo3a9dRA8w/FcuFdsXF7fTtr2qs7RiOZclIAEJSEACEpCABCQgAQksKQKtE8pLCoznkYAEJCABCUhAAhKQgAQkIIHJSUChPDnr3auWgAQkIAEJSEACEpCABCQggQoCCuUKMGZLQAISkIAEJCABCUhAAhKQwOQkoFCenPXuVUtAAhKQgAQkIAEJSEACEpBABQGFcgUYsyUgAQlIQAISkIAEJCABCUhgchJQKE/OeveqJSABCUhAAhKQgAQkIAEJSKCCgEK5AozZEpCABCQgAQlIQAISkIAEJDA5CSiUJ2e9e9USkIAEJCABCUhAAhKQgAQkUEFAoVwBxmwJSEACEpCABCQgAQlIQAISmJwEFMqTs969aglIQAISkIAEJCABCUhAAhKoIKBQrgBjtgQkIAEJSEACEpCABCQgAQlMTgIK5clZ7161BCQgAQlIQAISkIAEJCABCVQQUChXgDFbAhKQgAQkIAEJSEACEpCABCYnAYXy5Kx3r1oCEpCABCQgAQlIQAISkIAEKggolCvAmC0BCUhAAhKQgAQkIAEJSEACk5OAQnly1rtXLQEJSEACEpCABCQgAQlIQAIVBBTKFWDMloAEJCABCUhAAhKQgAQkIIHJSUChPDnr3auWgAQkIAEJSEACEpCABCQggQoCCuUKMGZLQAISkIAEJCABCUhAAhKQwOQkoFCenPXuVUtAAhKQgAQkIAEJSEACEpBABQGFcgUYsyUgAQlIQAISkIAEJCABCUhgchJQKE/OeveqJSABCUhAAhKQgAQkIAEJSKCCgEK5AozZEpCABCQgAQlIQAISkIAEJDA5CSiUJ2e9e9USkIAEJCABCUhAAhKQgAQkUEGgUUL5lVdeCf/+97+dZOA94D3gPeA94D3gPeA94D3gPeA94D0wwe+BCo3aiOzGCeUpU6aEmTNnOsnAe8B7wHvAe8B7wHvAe8B7wHvAe8B7YALfA41QxBVGNFIoV9hqtgQkIAEJSEACEpCABCQgAQm0nABRxDhHm5wUyk2uHW2TgAQkIAEJSEACEpCABCQwwQgolGtWKG2UCb02SUACEpCABCQgAQlIQAISkMDEJKBQrlmvCuWawCwuAQlIQAISkIAEJCABCUigZQQUyjUrTKFcE5jFJSABCUhAAhKQgAQkIAEJtIyAQrlmhSmUawKzuAQkIAEJSEACEpCABCQggZYRUCjXrDCFck1gFpeABCQgAQlIQAISkIAEJNAyAgrlmhWmUK4JzOISkIAEJCABCUhAAhKQgARaRkChXLPCFMo1gVlcAhKQgAQkIAEJSEACEpBAywgolGtWmEK5JjCLS0ACEpCABCQgAQlIQAISaBkBhXLNClMo1wRmcQlIQAISkIAEJCABCUhAAi0joFCuWWEK5ZrALC4BCUhAAhKQgAQkIAEJSKBlBBTKNStMoVwTmMUlIAEJSEACEpCABCQgAQm0jIBCuWaFKZRrArO4BCQgAQlIQAISkIAEJCCBlhFQKNesMIVyTWAWl4AEJCABCUhAAhKQgAQk0DICCuWaFTbRhPIHH3wQTj/99DB//vyaJHoX53hHHXVUeOGFF3oXzGzFpl/84hfhb3/7W2br+FkvvfRSOP/888M777wzpjD555xzTnj77bfH5E+UleOPPz7ceeedtS7n8ccfDz/84Q/Da6+9FqZOnRoeeeSRWvtffvnl4eyzz661j4UlIAEJSEACEpCABCTQdAIK5Zo1NGqh/N5779W0YLTFr7jiivDRj340/Oc//+kceOeddw4bbbRR1/SNb3yjU6bXwoIFC8I3v/nNsPzyy4d58+b1KprddsABB4TlllsuXHfddeGNN94YM7311lvZfYqZCMZPfepTATvuvvvusMcee4QPP/ww3HPPPWGZZZYZSLwXjz/e8rPPPhs222yzgSYeyJSefPLJMHv27DHTnDlz0uauOdf829/+tiu/VwbCGiZz584NRx55ZFhhhRXCz372s66PDFXHOOOMM8LKK68clvZ9XGWf+RKQgAQkIAEJSEACEhiEgEK5JrVRCOVnnnkm7LTTTlHMLbvssuELX/hCOPnkk/uyBG/rXXfdFX784x+HddZZJwrBvnasKLTBBhuEww8/fMzWtddeO9qHVzZNe+21VxRRYwpWrFAW8b3GGmuEDTfcsJYw5XwIt6oJIffEE09UnDlEcYxgRCyTjj322MD1kJaUUMYri/0HHXRQOProo/uafv7zn8d97r333mgrfzbZZJMuDjvssENne3lhEKF8//33x3MkpgjzddddN3qZy8fPrfMPhGu9/vrrc5vNk4AEJCABCUhAAhKQQCsJKJRrVtuwQvnVV18Nq6yySvjKV74SLrjggnDllVeGbbfdNoqNI444YlxrfvCDH4wRTzfffPO4+1QVuOqqq8JKK60UsKmYEJbYVkx4nhGpvRLH2XrrrcPHPvaxcNttt0WBjOj69Kc/HUVqr30J/d11113jtXEehBde7jTh+YTbgQce2Osw4dxzz43nT9f0ta99Ley+++7h5ZdfDjfeeGM8PkKW9TThbS6nhQsX9u1VLe+bhPJzzz1X3lS5/uKLL0bbykL5lFNO6ezDtSOUCSF/7LHHuqZVV101fiBgG9eW0tVXXx2233777ITnH6HLPJVhmegBxHtKDz30UAyFJxy+PPHR53e/+11XPuUQ4iYJSEACEpCABCQgAQm0jYBCuWaNDSuUOd3tt98e3n///c6ZEWWrr7569MB2MisWXn/99ShAEYQInEGFMu13P/e5z3VCdWmfus8++8SzDiKUEbKf+dhHFWYAACAASURBVMxnwic/+ckx7WQRrFtuuWUU2bRlzYXoXnvttWG11VaLQhg7TjzxxLg8bdq0aA+88JZ++9vfHsOtjAhRTRgwnlwS4vsjH/lI5ASrqgnhWUx47WGA4H/44YeLm/paLgrlm266qSNAkxAtzxGydYQyodFV15LyCaNOifDoFVdcMey9995dU/rw8q1vfatr23HHHZcOEX71q1/Fjyp8WKkzFe3oHMwFCUhAAhKQgAQkIAEJNJyAQrlmBY1CKOdO+b3vfS984hOfiG1pc9vLeX/+85+HEsqIra9//evxfIjZz372s+HUU0+Np0EkEj5NR01pOvjgg7MeZdrR0gaYNsV4IhF85YTH9te//nXcnw8CF154YQyRTuXwPOJNLu7L9SFyEdkcG287HxR6peSRRtSRfvnLXwa8rLNmzYpTYoYAT3nMactcTNQx7asRnf/4xz+Km/paLgrlBx98MIbVE1pfNdGOuo5Qxr6nnnqqa+JaTzrppJifPOoYjFDGq1+V8ODDJqWchz1tY049FD/0FLeRX+ZZ3O6yBCQgAQlIQAISkIAE2kBAoVyzlhaHUKaDJsKKEaf9piT6BvEoIxQRgXh/8Q6yTHvYJEQRytiDeE4TIqwcek1oLiL24x//eNhqq63idspUTbSF/r//+794vo033rhzvuI1I9II28b7STtnjo1opYMxPM9VIix52PECI5TpdRvvMj1vp1SnjfKtt94aLr300oB3uW4qCuV+960SyoRbE77M9P3vfz+GXnPMRx99NDz99NNjDl/VRhmhTF3TyVhxSr1/r7XWWpFZOhjtyg877LC0OmYOD4510UUXjclPK3/9619j/ac2zynfuQQkIAEJSEACEpCABNpEQKFcs7ZGJZQJfUZsMAwSnmS8sXWGUhpGKCPKEJOEOdMGFrFcFDb9hl7T5veYY46JIc7YjmjvNT3//POR9i233BKYSAivBx54IPz+97+Pod90AIYnGWGcytxxxx3R40w+rAhdprMuQpYJt0Y8k0/INb11c22EUxNWTPh1SnWEctpnkHlZKF9yySWxfqnj8nTxxRfHU1QJZTp742MEEx80UmdeRCB89atfHfOxoZdQZt/yhKglYdO+++4bl9NHlBtuuCGu5/5svvnmsbO33DY6mevlvc7tY54EJCABCUhAAhKQgASaRkChXLNGRiWU6fk6CReE6vTp02tZMoxQTifCK4nXdcqUKSkrzvsVymN2GnAFsQ4Hev5mPF8+HqSOqBjjl3bPaUgk8hF3DB9Fb914j+m4ikTnXwjmJJRz5iwtoczHBDo142NAcSIv9TheJZRznXlxbXyYoO5SuDx5VUKZMohXzpEm2NGZGwmRvOmmm8ZlwvHxMPdKfIjgw0Qurbnmmp227rnt5klAAhKQgAQkIAEJSKANBBTKNWtpVEKZ0+JVprOoE044IYYXE27cbxpWKOPdJayac9PTMgKV8GVSXaFMWPCOO+7Y1/T3v/+96xKTV5iOvooTx0VEI+iL+Szjic6FRSehjJe6HAKeOvYq56+33npdNg2TUfYoI5QJOS8n8gYVyhyLnqa5Fh5iUpVQpq02HyKKCRZ8pCDh1aazL0Le4c1xeyU6V0v1UiyHHeSXP7wUy7gsAQlIQAISkIAEJCCBNhBQKNespVEK5eKpTzvttBhem8KTi9tyy8MIZdqp4vlD1BDSi0ebcFp6pSYhlPHkrr/++p2JHrIRZbmUvMJ0uNVr3GDaGyPacon2t9jT74T3OZeSUH7jjTdiR1x0xpUm2upyfIRhymNe15ufO28xb0kJZdpz0554zz33jKevEsp0xIYHPiU+MMAhtW8n7J51xDRtx8frzOvdd9+N4fG//e1v0yHj/Mwzz4z3Eh8yTBKQgAQkIAEJSEACEmgzAYVyzdpbXEI5efPK4qPKvGGE8ptvvhl7qv7jH/8YQ5fLwgihvNtuu0UvM55mpv33339coTyeQEKcVwlluM6dOzd2UMWYvSwjYBFwM2bMiOt4mMlnKvbqXGSUhHIxLy0vzdBrxs3+5z//OWYibzyPMkM0MSQYEyHSqY1yuiY+eiBcSVVCmXG6adOcEmHbcC0OfUUHXXSahsgn0dFXOm7arzhHeJc/VtAh3C677FIs5rIEJCABCUhAAhKQgARaSUChXLPahhXKqdOr8mlpd4t4YTzilDjXW2+9lVbHzMcTyojJOom2voh1Ut3Q6+RRHkYoc14EOwKddrIkhBxMGAqJXqwRgnR+Vhb2sfB//4xKKBM+fMEFF1QOg1Q8Z3k551GmTTAh3uXpnHPOibtXtVHm+otTWSgXz10llPlAATfGdP7Tn/4UUm/lMCXRDprIAqIGUjg7w2Z96UtfKh5+zDJe7OL2efPmBToeS+HcYwq7IgEJSEACEpCABCQggZYRUCjXrLBhhfKJJ54YRQnD/iAqGEMXEcNQSAjUNEQTHkTEFe2IUx7nvuyyy+L0k5/8JAqoY489Nq7TW3FKhD8jrlKPyik/zWkbjWiiUya8jXTMhDeRHotJS0Mo80EAWxB1Kfy8KJSxCwG62mqrxWG0EpN0TWk+CqFMp2Gpl+krrrgiHbrveU4o59ooFw9YJZS5NxgGKk305l2VckKZDyZJwNI+HKFOSD3iGK/xTjvtFO8VhibjHkjtk/F+92q7TY/klEmJ+xqvdBLaKd+5BCQgAQlIQAISkIAE2khAoVyz1oYVypzu/PPPj2IUAYOgpe3vdtttF8NrkzkMa0QHS7QVTuJj5syZsXzRw5iWEbcpEc5L/oUXXpiyxswZIxghSPgsQgyRjWiirSodNTFE0yGHHBKXWWdCCNEBFMt4D4speZTZr9fEOXOh17Nnz47eTEKREYwpEYLNdeBRTomOvRjTmQ8NuTQKoYwIp+0vwo+et+umslDmwwTh7r3Sk08+Ga+V8PKUEK3Jy5/yinM8wvSeTq/gPMi0NWcoqmKiHrmPypEJ7IcQZlvqYI1Ox2hHzn1DqDZDdJEefPDB8O1vf7vnxMcWeOXKsb9JAhKQgAQkIAEJSEACbSKgUK5ZW6MQyumUCB1ExPvvv5+yxszpDXo8gTVmh8IKHsiqRIg0nV2V03777RdFe7lX6PL66aefPmbXJJQvvfTSjsc7eb6Lc4RUTigjJPFuM08JoUZ5vOplkYdYZ5ilXBqFUE7HrfJap+1V87JQripHPmKUoZu4ToZ7ytVL1f6Ey6cPJcz5SEGb5WLiAwpiuZzo7ZxoBT5SpMR9uM8++8R7gI8iRDuQOA89sg86pSG80nmcS0ACEpCABCQgAQlIoOkEFMo1a2iUQrnmqRtbHC8wY/KOJywRXmUhV3VRhF0T3svHgjqJfaqEGR2AIeaLgrzOsfstS9g8Qh4v/XgJocrY0Ndee+0Yb/p4+6XteLx5iIue+LSNOW3iqxhWiXKiGVL75eKxXJaABCQgAQlIQAISkMBkIaBQrlnTCuWawCwuAQlIQAISkIAEJCABCUigZQQUyjUrTKFcE5jFJSABCUhAAhKQgAQkIAEJtIyAQrlmhSmUawKzuAQkIAEJSEACEpCABCQggZYRUCjXrDCFck1gFpeABCQgAQlIQAISkIAEJNAyAgrlmhWmUK4JzOISkIAEJCABCUhAAhKQgARaRkChXLPCFMo1gVlcAhKQgAQkIAEJSEACEpBAywgolGtWmEK5JjCLS0ACEpCABCQgAQlIQAISaBkBhXLNClMo1wRmcQlIQAISkIAEJCABCUhAAi0joFCuWWEK5ZrALC4BCUhAAhKQgAQkIAEJSKBlBBTKNStMoVwTmMUlIAEJSEACEpCABCQgAQm0jIBCuWaFKZRrArO4BCQgAQlIQAISkIAEJCCBlhFQKNesMIVyTWAWl4AEJCABCUhAAhKQgAQk0DICCuWaFaZQrgnM4hKQgAQkIAEJSEACEpCABFpGQKFcs8IUyjWBWVwCEpCABCQgAQlIQAISkEDLCCiUa1aYQrkmMItLQAISkIAEJCABCUhAAhJoGQGFcs0KUyjXBGZxCUhAAhKQgAQkIAEJSEACLSOgUK5ZYQrlmsAsLgEJSEACEpCABCQgAQlIoGUEFMo1K0yhXBOYxSUgAQlIQAISkIAEJCABCbSMgEK5ZoUplGsCs7gEJCABCUhAAhKQgAQkIIGWEVAo16wwhXJNYBaXgAQkIAEJSEACEpCABCTQMgIK5ZoVplCuCcziEpCABCQgAQlIQAISkIAEWkZAoVyzwhTKNYFZXAISkIAEJCABCUhAAhKQQMsIKJRrVphCuSYwi0tAAhKQgAQkIAEJSEACEmgZAYVyzQpTKNcEZnEJSEACEpCABCQgAQlIQAItI6BQrllhCuWawCwuAQlIQAISkIAEJCABCUigZQQUyjUrTKFcE5jFJSABCUhAAhKQgAQkIAEJtIyAQrlmhSmUawKzuAQkIAEJSEACEpCABCQggZYRUCjXrLCmCGXscJKB94D3gPeA94D3gPeA94D3gPeA98BEuwdqSrTFUlyhXBMrN+GUKVNq7jX64lQcdjjJwHvAe8B7wHvAe8B7wHvAe8B7wHtgotwDM2fOHL14GuCICuWa0JoklJtyE9VEaHEJSEACEpCABCQgAQlIQAJdBJokTptkSxeo/2b8v6oNSyNfobw0qHtOCUhAAhKQgAQkIAEJSGCiE2iSOG2SLVX1rlDOkGlDxWXMNksCEpCABCQgAQlIQAISkECWQJM0TpNsycIKISiUM2TaUHEZs82SgAQkIAEJSEACEpCABCSQJdAkjdMkW7KwFMp5LG2ouLzl5kpAAhKQgAQkIAEJSEACEugm0CSN0yRbukktytGjnCHThorLmG2WBCQgAQlIQAISkIAEJCCBLIEmaZwm2ZKFpUc5j6UNFZe33FwJSEACEpCABCQgAQlIQALdBJqkcZpkSzepRTl6lDNk2lBxGbPNkoAEJCABCUhAAhKQgAQkkCXQJI3TJFuysPQo57G0oeLylpsrAQlIQAISkIAEJCABCUigm0CTNE6TbOkmtShHj3KGTBsqLmO2WRKQgAQkIAEJSEACEpCABLIEmqRxmmRLFpYe5TyWNlRc3nJzJSABCUhAAhKQgAQkIAEJdBNoksZpki3dpBbl6FHOkGlDxWXMNksCEpCABCQgAQlIQAISkECWQJM0TpNsycLSo5zH0oaKy1turgQkIAEJSEACEpCABCQggW4CTdI4TbKlm9SiHD3KGTJtqLiM2WZJQAISkIAEJCABCUhAAhLIEmiSxmmSLVlYepTzWNpQcXnLF0/ur3/96zB16tSeB3/33XfDNddcE+bPn98pt3DhwvDhhx921v/4xz+GKVOmdNbLCx988EG48sorw69+9asx+915551j1mfNmhXOOOOM8u7hF7/4RXjkkUe68vvJuOqqq8Lvf//7WJT6Zxo2zZw5Mxx//PE9D3PKKaeEm266qWeZF154oed2N0pAAhKQgAQkIAEJSGA8Ak3SOE2ypYqbHuUMmVFWHEJxwYIFmbM0NwthhjhOaaONNgrHHntsXH3++efDgQceGN5+++20Oc6fe+65sMwyy4TZs2d38rfccstwzjnnhGnTpkUGP/jBD8IJJ5wQXnzxxY7w5lx/+9vfwu677x5WWWWV8NGPfjTstttuYe7cuZ3zkb/xxhuHRx99NOYhnJdbbrnw17/+tXOuJ554Ip7/vvvu6+TVWTjooIPCV7/61bjLkUceGVZeeeVwxx13jDnEW2+9Fa+PayxOfCTIpd/97ndhtdVWy23q5K2xxhrhpJNO6qwXF/jQsM8++4QVVlghPPbYY8VNLktAAhKQgAQkIAEJSKAWgVFqnFonzhRuki0Z82KWQjlDZhQVd/PNNweE4korrRQ+8pGPhPXXX7+nN7VoBiIUz+s222wT1llnneKmcZdfeumlcPHFF4dNNtkkIEwHSa+99loUrQhYUlEo47XdYIMNYj5CMHmaewnlbbfdNorlJJR/85vfhB133DFce+21Udyut9564YADDgh4dcsCnBNxTVtvvXVYffXVw/vvvx/Pve+++4ZvfvObcZk/HBPxfNlll4UrrriiM/Gh4qGHHgq77LJL17TnnnsGhD/pmGOOCdiR0tFHHx0+9rGPhYcffjhlhRtuuCHayweB4lTlxR5GKOOZhxEiOTHuGOKCBCQgAQlIQAISkIAEahIYhcapecrK4k2ypcpIhXKGzLAVh0hedtllw/bbbx+9pQimL33pSzGvH9GDl7EoxDImZrOeeeaZMft9/etfz5brJ5PQZuxAmCahjCcY8fiPf/wjHuIb3/hGOPTQQ+NyL6HM9eOxTUJ5s802C7fddls8Dt7ifhKCFwHMhwOmNddcM6y99tpxeYsttoiiGW/0qquuOmYinPvxxx8PhxxyyJgJrzWMEeEkPOgI8WK68MILwzvvvNPJQigjXFN6/fXX4zEQ4nh8yxNh19iT8tN+xXnOo0woNvnYc/vttxeLuywBCUhAAhKQgAQkIIGBCAyrcQY6acVOTbKlwsSgUM6QGUXFldudckyEWT9eXsQbIck777xz3CdjYjYLUch+TAitYYQyAhGRd91113WE8s9+9rO4nE7er1AmHPqoo46K145HGk8pCcHdr1CmPNd1/vnnxxBpwqRZZtp7770jp16iEq8vocwp/fnPfw6f/vSn02pgfcUVVwzz5s0LhHZffvnlsR00Av+VV16J5aqEMm2Rix82qpapn3IqCuUHHnggflxh/x122CHg2TdJQAISkIAEJCABCUhgFARGoXFGYQfHaJItVdekUM6QWVwVhyjEy9xv+tGPflRLKBePi8d1UKGMID3vvPPCySefHOeIua222iqceeaZscMsQqRJ/QhlOuYiLJqJdsaEk6d1PMTjCeWzzjorXHLJJWNELmHU+++/f+dy4YR3+f777x8zvfzyy7EMApVrSO2sySR0m3DuU089NXL61Kc+1RG7hHAjohHjiPo5c+bE41QJZTzKTz31VNdE22M+NqRtHYMLC0koI8ZZxlveT9RB4RAuSkACEpCABCQgAQlIYFwCi0vjjHviTIEm2ZIxL2YplDNkFkfF0eYYT+Ff/vKXzBnzWUtLKCM4aa+bJsKNP/nJT3bWf/jDH0aD+xHKtPWlLTETHlsEfFr/+9//HtsVf/nLXw7lCU8xCSFLO29suffee2Ped7/73bDffvvF9sW0MaY972GHHRbDorGVNuGw3mmnnWJ5/lx//fXxXLfcckvM+9znPhc/BNAhGB8EEPTsc+ONN3Y6Xyt3oJWEchLkeLDZB281IepsL6a6bZSJJMh5nYvHdFkCEpCABCQgAQlIQAKDEFgcGmcQO9inSbZUXYNCOUNmVBX37LPPRo8socHLL798+PnPfx7ee++9zBnzWUtLKJet2XDDDcMvf/nLcnZfHmV6vSbRYzXttvHcwoWEZ5p2xeeee26cNt988yiIWSf8OSUE5K677ho75SKPTtIQqGn6wx/+kIrGNsV47b/yla+EN954o5PPwsEHHxw9xYhm9n366ac72998882Yl4avov0x7bGTsKYgQpj98DiniXWEMuKZOi56g3NCmd6yv/jFL3Ym9uEjRDGv13JVx2GdC3FBAhKQgAQkIAEJSEACGQKj0jiZQ9fOapItVcYrlDNkRlVxjBucxBweUYYwqpOaIpSxPTeEUT8e5SSUEa+EWSO6CZOm/S3e3GI7YYTsdtttNy4i9j/99NMDHYjhob700ks7+/z4xz+O50D4lhPDOLEv4pwOysoJwXr22WfHbK533XXXHTN+c/Iop/1SZ15JvB5++OHxQwD5pJxQxgOOlzxNDEP1rW99q7MOa2xM28tzwuJNEpCABCQgAQlIQAISqEtgVBqn7nlz5ZtkS84+8hTKGTKjrDgE4axZs2IYMN5Dhm7qNy0toYw3l56704SAZPimtM6cYZz6FcqEWNPrN2MlM44y7YO/973vRRaf//znOzh6CeWiJx5Pb+osjXa9DGNFe2Qm2hQTGp7WOwf/7wIeXz5eEKpdTlzPHnvsEeg9nHMUx2mm7HhCmQ7QEO4pND0nlMvnTG2UUz5jTnOf0FO3SQISkIAEJCABCUhAAqMiMEqNM6xNTbKl6loUyhkyi6vivv3tb4e11lorc8Z81tISyog9xFqaEJZpOc0ZX7gfobzPPvvENsa0503DQ7311lvhjjvuiN5bPKgp9RLKnIuw6FdffTUK3blz58bdEPEI7+S5L8+LwzuxAwKdMh//+MdjL9rp3MyPPPLI8IUvfCEQAs6QUwxJVUzjCWXKYiNh2XTgNYhQ5hh0eoaXudhLd9EOlyUgAQlIQAISkIAEJFCXwOLSOHXtoHyTbKmyX6GcIbO4Ko5xdRFp/XoLl5ZQLiKh8zE64cqFMvcjlI844ohwwQUXxEMmoZyOf+CBB4Ztt902rcY2xLnQ6zQ+9IMPPhjbNRPCnUQsnl8ELCHJTAyrxHnSeufg/x2OCv70ov3Zz342iubidobCSiKaYaLKKQllQquZ6A2b8in0OpVP9TuoUOZ4XNdPf/rTdEjnEpCABCQgAQlIQAISGIrA4tI4gxjVJFuq7FcoZ8gMW3GELqcOq4qHx3uKAKKH5JQQZFWew15CmVDkXu1V8QpXDQ/V65zJrjTfYIMNYsh0Wi/O8e7S4zSJ9sKIRjqrSolOt1IbZfLwGBfX8bAzrnJKVR5lOhKj3S4JDzUde5HgWD4nodP0iF1OdLb1iU98Io5NzbbUC3mxsy7aPXM8BHxKhx56aOyoi3WEMtvLU1kop30HFcrsz9BZnAexTNtqkwQkIAEJSEACEpCABIYhMKzGGebc5X2bZEvZtrSuUE4kCvNhKw6BiNeTYYcQzbQ7RdwhfOhsKqXp06fHPMRdSvQOfdlll8Vps802i9vTehoeibKbbrppDIfG1pRuu+22zr6EJCMu074pVDl3zrR/eX7llVfG8zNk0nipSihvsskm8Zq57uJEB1wIV7y7KeWEMh8RPvOZz8ThmwjZ5rq4JlI6Z9H7mxPKM2bMiOHfDEGFuE+JjrIIzWZIJgQ7IdOUYTgqxjUm0Yb6X//6V1xOHmV6yy5OxQ8f6djM6whlbKAtO2L9jDPOiIeBEcNd0akY12CSgAQkIAEJSEACEpDAoASG1TiDnje3X5NsydlHnkI5Q2bYikN80fkVPTon7yO9GxOGnEKGOS0Cmu277LJLxwrEddqnPC96SmnHirBDWKdEu9byPmn98ssvj8Vy50z7F+d0ZEV7ZEKZ+0kIR85F2+WUGAsZDrkJzzAikM7OUsoJ5X/+85/xOhHDBx10UOwsK4WBM7wUxyh65OkwrMiJYyMy+eiQeqNO52N+zz33xKGkCC/nXAhpxPj6668fvd8MaZU8908++WQ47rjjirt3LROOTTQBc3rBZrzmqsRxYcyHACIN4Ecb9tNOO62zCx56IhHYxpy23iYJSEACEpCABCQgAQnUJTCsxql7vl7lm2RLlZ0K5QyZUVYcYog2q0WBXDwlggpvYt1EOC5DDQ2Sxjsn14+AQ3gnUZo7DyJ31VVXjR1jIVgRmP2GCR911FGxh+ricXNCmVBt2i3jTeZceMRTz9WIR4QxCXFMR1zYceaZZxYP23OZds/bbLNN7FAgFcRzvPrqq0dxuvXWW6fsvuY77bRT3A/b+JBxzDHHVO6HxxiBzMeIiy66KHrIqwrzgYMPKvQ2bpKABCQgAQlIQAISkEBdAqPUOHXPXS7fJFvKtqV1hXIiUZi3oeIK5i6WRcKAi57aqpMgWhn+CQGb89hW7cfHAbzQxcQ5GXqqnJIdL774YtxEqPNjjz02Zn8EL3YQ6l71UaJ83F7rCxYsiB7/N954o1exrm2EbPNhhF6vi0NadRX8bxtrPgCYJCABCUhAAhKQgAQksLgJNEnjNMmWKu4K5QyZNlRcxmyzJCABCUhAAhKQgAQkIAEJZAk0SeM0yZYsLNso57G0oeLylpsrAQlIQAISkIAEJCABCUigm0CTNE6TbOkmtShHj3KGTBsqLmO2WRKQgAQkIAEJSEACEpCABLIEmqRxmmRLFpYe5TyWNlRc3nJzJSABCUhAAhKQgAQkIAEJdBNoksZpki3dpBbl6FHOkGlDxWXMNksCEpCABCQgAQlIQAISkECWQJM0TpNsycLSo5zH0oaKy1turgQkIAEJSEACEpCABCQggW4CTdI4TbKlm9SiHD3KGTJtqLiM2WZJQAISkIAEJCABCUhAAhLIEmiSxmmSLVlYepTzWNpQcXnLzZWABCQgAQlIQAISkIAEJNBNoEkap0m2dJNalKNHOUOmDRWXMdssCUhAAhKQgAQkIAEJSEACWQJN0jhNsiULS49yHksbKi5vubkSkIAEJCABCUhAAhKQgAS6CTRJ4zTJlm5Si3L0KGfItKHiMmabJYGBCcycOTM4TRwG/A8zTQ4CCxYsCM8++2y4//77fYYL/8fuuuuu8NBDD4UXXnhhqBvhlVdekWuB66C/E0NVgjtLQAIjI9AkjdMkW6oAK5QzZNpQcRmzzZLAwAR4+eGF0Kn9DB555JGgUB74UWjVjk8//XS47rrrwk033hSod0Shz/Ar4eWXXw7PPfdcuO+++8LUqdPCrbfeGl566aWB6haeU6ZMkesQvw/wM0lAAs0g0CSN0yRbqmpHoZwh04aKy5htlgQGJpCE8sAHcMfGEFAoN6YqFqshDz/8cBRwc+fOXaznafvBFy5cGD8iINbmzJlT+3KSUK69oztEAkQ8KJS9GSTQHAJN0jhNsqWqhhTKGTJtqLiM2WZJYGACCuWB0TVuR4Vy46pk5AbhSUZ8vP766yM/9kQ94DPPPBOZvfrqq7UuUaFcC1dXYYVyFxIzJLBUCTRJ4zTJlqpKUShnyLSh4jJmmyWBgQkolAdG17gdFcqNq5KRGoTwINxaT3J9rA888ECg7XKdpFCuQ6u7rEK5m4k5EliaBJqkcZpk81myoAAAIABJREFUS1WdKJQzZNpQcRmzzZLAwAQUygOja9yOCuXGVclIDaLjLtokm+oTeOedd6JXef78+X3vrFDuG1W2oEI5i8VMCSw1Ak3SOE2ypapCFMoZMm2ouIzZZklgYAIK5YHRNW5HhXLjqmSkBtG7NXVsGozAzTffXKutskJ5MM5pL4VyIuFcAs0g0CSN0yRbqmpHoZwh04aKy5htlgQGJqBQHhhd43ZUKDeuSkZqEM/qsEMejdSglh3s3nvvrdUrvEJ5uApWKA/Hz70lMGoCTdI4TbKlirNCOUOmDRWXMdssCQxMQKE8MLrG7ahQblyVjNQgn9XhcNJbOL/x/SaFcr+k8uUUynku5kpgaRFoksZpki1V9aFQzpBpQ8VlzDZLAgMT8OV7YHSN21Gh3LgqGalBPqvD4az7fCiUh+OtUB6On3tLYNQEmqRxmmRLFWeFcoZMGyouY7ZZEhiYgC/fA6Nr3I51hUDjLkCDehLwWe2JZ9yNdZ8PhfK4SHsWUCj3xONGCSxxAk3SOE2ypaoiFMoZMm2ouIzZZklgYAK+fA+MrnE71hUCjbsADepJwGe1J55xN9Z9PhTK4yLtWUCh3BOPGyWwxAk0SeM0yZaqilAoZ8i0oeIyZpslgYEJDPvy/eqrr/bsiffRRx8NN954Y5g2bVqgMx1ennKJl9gbbrghXH/99eHBBx8MH374Ya5YzPvggw/iOV9//fVsGfLvvPPOOBzMrbfeGp5//vnKcjNmzIjlbr/99sCLca803rX2cw3vv/9+5ACP6dOnh8cff7zXKWttqysEah3cwkudwLDP6lK/gKVsQN3nYxRC+b333ov/i/g/ONmSQnmy1bjX23QCTdI4TbKlqt4Uyhkybai4jNlmDUjgz3/+czjqqKMG3DtE0feLX/yiVgcxA5+stOO7777byXnooYfCPvvs01mvszDIyzcvf/fdd1+46KKLwrHHHhv+9Kc/dZ2Sl6S0/fTTTw/nnntuLHvWWWeFt956q1O+WI5tZ599diz3u9/9rktUI3inTJkSTjnllFhmzpw5neOkBViceOKJ4Ze//GW48MILwwknnBDLIoSLiY592Hb88ceH3//+93HOMiK9mOpea69r+M9//hPOPPPMaM/5558fTj311Lh86aWX9vwwULSn13JdIdDrWG5rHoFBntXmXcXSs6ju8zEKoXzNNdfEZ/wvf/nL0rvwpXRmhfJSAu9pJVBBoEkap0m2VOAKCuUMmTZUXMbsCZuFN3Dq1KljJryOvMCcc845PSe8jim99tprcVgVhlYpToiWZZZZJtxyyy1j8lOZl19+OR0iO8c29i+Lq2zh/2bedttt4Te/+U1fwuhLX/pS+N73vtd1uKuuuip88pOf7IwJinjEjkFS3ZdvXn4Qoscdd1xA4J188slZoYxnGBHN2K/JOwwn8v71r391TMXbTN7s2bM7eSyTB6uUGAOVPOoMYc5yWSi/+eab4Ve/+lUUvvPnz4+7vvPOO1EwI5yTB5qPDCeddFJAjLOdhCCmXtg/3Tv9Xmu/18D5OH4a4ofzXHvttV3Xn6657ryuEKh7fMsvXQJ1n9Wla23zzl73+RhWKD/77LPx2eZ/pUK5efeDFklgshFoksZpki1V94FCOUOmDRWXMXvCZn3lK18JH//4x8MKK6wQll9++bj8mc98JjzxxBNh3XXX7TkhfFLacssto5BETNaZ1l577XSI7Hz33XcP6623XnZbVSbHxAY8muOlNdZYI3zzm9/sKrZw4cKYv9FGGwWWEVtLSigj7nhhT15hPKg5jzIe01//+tddtpOHIE3pH//4R/jjH/+YVuOca0JQ/u1vf+vkE6L8zDPPxPUHHnggK5RhioDG211MrJP/2GOPxex58+YF7MP7XEx4nSn34osvxux+r7Wfa3j77bfjsfnIUUx8xOGchGIPm+oIgTfeeCP8+Mc/zoZ+//SnP43h4b3sIbQ9fQCh3KxZs8IZZ5zRtQsRF9g1SIIV3n4S/5uZ6iQ+4lxwwQV1dum7LNEHMKhK99xzTzjyyCOrNsd87rP0UaZnwf9uVCiHwEeu9KGpitnTTz+d3VTn+eAAwwhl6pWPuVdccUX8uKdQzlZJrczLL7888FyNOhHpc/DBBwfmJglMZAJN0jhNsqWqzhXKGTJtqLiM2RM+a7/99gvbbbfdwNeJUEYU4IHsdzr00ENDUSgfeOCBYaWVVhozLbfcclHAl/PL6/vvv3/HdrykvLwXRUZnY2mhSihTjJdBPM4ISIQaHxIGScO+fFcJZcRoziOPR/jKK6/saSreYLwwVeKxSiizH/WLJ7iYklCmjXGvRJgk501e5nLZqmstl2O9fA20TcY2vN7FlIQy7beHTXWEAJEZ3L8vvfTSmNPy8YCPLnfdddeY/OIKIfCrrLJK2HjjjUNqe4lo5Hh//etfO0X5oMWxyh8uOgXGWTjooIPCV7/61VgK0bnyyiuHO+64Y5y9/reZj0y77bbb/zJ6LD355JMxqoFohjRRX1XpU5/6VPjtb39btTlcfPHFPZ9JmHziE58IP/rRjyqPUd4w7LPK8bi3+aCUm9KHpPJ5m7KOSOZ/ZzEqo2wbH1dyH8soV+f5oPwwQpn+B2giwgdF/ucplMs1VX/9s5/9bDjiiCP62jE9w8U59ZlLvPfxf2qU/UXkzmOeBJY2gSZpnCbZUlUvCuUMmTZUXMbsCZ81CqGM8CUUjhf68SZekAnNLQplQogRpGlCfCMWeDFLeVXzQYVCTijT3ve0004bM+2yyy7xpbycX1yv8sIM+/JdRzwi7nmJ7eVNp45SSHdZxKUbvUoop+3lOaLlvPPOK2d31vH24hGlzq+++upOfnmh32vt5xrSsW+66aYozlOoeMofZF5HCODp/da3vtV1Gjylq6222rgfcqibrbfeOqy++uqBjwCkfffdd0wEBJEDiOfLLrssetbwrjHxkQhBzn1bnvbcc89O52vHHHPMmIiNo48+OnzsYx/ref8UL6iOUN5kk03iyzIvzGnaYYcdiocbszyMUL7uuuviBzf4V32UGXOy/64M+6xymOeeey4+gzyH5Qlh1+TEs5JszonlJJIpw/ZiPw5cV53ng/KDCmX+1/LBjd8MkkI5Yhj6T79CGW9+eoaLc6KIckmhnKNi3kQk0CSN0yRbqupaoZwh04aKy5g94bOGFcqXXHJJ7E2ZFyi8OGn6yEc+En9QCe9Oeczp5AnPb9UPKy9ceHB5ASom9iEculdCKNDGt5zmzp0bQ5W/+93vhp///Ofx6zZCvRx6/YUvfCF8/vOfHzNhP9dSzmcdsc3LAuIyl4Z9+e5XPOJZQeRXeVbuvvvu2AEXdYRYS+HPOZvrCGXaufPSWuUd5GNCevmmbnql8a61zjVwHgQ1bafLHY31sqHXtn6EwE9+8pPAPfTRj340fuhhmSldO00JuLdpA1+cKFNOCF72W2eddeK05pprxo9LrG+xxRbx3uU8q6666piJF1m8N4cccsiYCe8v92r6QEKYPkK8mOigrSwuEf18CCtP3Ps8Q+V81g877LDiYQNCuSgUiSBBKGMLntbyxDVxn5Kfi5zIeZR5BviYwDUS4VJsHjLGmIqVYZ9VDkud8WGjaqo4dWOyy2I4fQCsyi8a3s/zUSw/iFCGL5EGxeYoCuUi1cGX6wrlYlQM/9f4Ped/bvlZJnKJZ5I52/hwapLARCTQJI3TJFuq6lqhnCHThorLmD1hs6gPhu8h7PprX/taXCbUk96U8Vb1mlLbxhwcRCm9RCMI6GW5nHq1g+JFaNNNN40v4OUXXbyRyy67bPlwY9a///3vhxVXXHFM3lNPPRWFBPbgZdp8882j54wQ7rJQHrPjf1fo8Os73/lOblP0lPISQBhsLg378j2eeOSchEJTZ7RhrXoJIQSZlxRCgqkTjlsllvsVyhxvPCEKF8KeaQ/NBxK8fVVpvGutcw2EgSPSqz4cVNnQK78fIcCzxPT3v/+9MyEo//CHP3TaulNXxegIhCjCMJcQKryAEiLNxDLT3nvvHV8+e30EwF7ao6dEL/Sf/vSn02pgnWeFMH6iQGijyD1ESHYxjJL7mxfhb3zjG2MmPiBhdzkf8Yynu5iqhPLPfvazeB2co2rKtUUuCmU8m7RXxQtNFMo///nP4qn7Xh72We37RA0vWBbFhPunj105T3O6nH6ej1SW+SBCmfudD6HFZh4K5SLV/pZpCpGadaQ9ykKZ+qEjznJKHuWcUP7yl79c+Ryn55vfIJMEJiKBJmmcJtlSVdcK5QyZNlRcxuwJm5U8TOkHjPn2228f+LHDe0UYJh4rlnkh5uWXZSa8WsWEWOMHEIHMyzchnwgEXmhTQgQjCjgPPUnnEl5RtvPiXk6DCGXswluHKC62kSIUmOsbTyhjMy/feE1zid6isbdKdA778j2eeMQ+RChhzYR99pPwvHE9vBDnUj9CGQ8ywjd5SnPHKedR57xwI3hzabxrLe7T6xrYxscAwsHL3tHiMeou9yMEEMnldn60dadHbgQk4dTlhJjnWUkJDkRpFEUuz1OxLT5tbzke4afFKXlfeZnlmPBOCW8r52fYrK9//etRWHLvMvFsI6IR4zvuuOOYCAG259qzV4VeI6z6Fcq8jPMhqzzx/4Z7mvyiKErXUhTKiHs+guGlLgr8VLbf+bDPKueBPx8RcxMfJtqSimK5H5HMdfXzfBSvv65Qpjz/c/gd4P9tmvggxoco1qs+FBbPO1GW+W2r+h0d7xr57ed3vJjKQpn/oXT0WY4W6iWU+Q0qP8uMWsD/EOZsG+X/5KL9LktgaRNoksZpki1V9aJQzpBpQ8VlzJ7wWVWh17ww47ki8eJe5fViDF86AkJQ0qNv6hWVMZQRqPx4MtHumNBrOnXKpSSS+XEm0akRL8Fp+uEPfxh/cNM6c7xrxVT2KNN+mR/pchg3+yAkxhPKiJD0I8+Lw1ZbbTWmMyuuhe1VL2jDvnyPJx45PyGqiXmRBcu8mMCxnOgJO8eEcuMJZXovpcdjBF5RzKVzMEwUz3q5DSNhebx0V7Upr7rWOtdAyCuilLDiUbRLTtfEvB8hUCWUd9111yjmcu3HCSVF9KaEkOW5wYubOiGjyQDPKXXJxLUR3syzwpSaOey0007pMLE5BII1eYU+97nPxXpDyFJ/eAfTvc1LN4kogXKizCiEMkI2iXqe09RGGc9W+f6t20Y5hQiXba+zPuyzyrm493kmc1OvaIo6di6pskWx3MuTnOzp5/lIZZnXFcppSLwk3HPz3AfW4jkn0vIwQpnfPj6cFVNZKBPRRbmdd965WCz2JM//BD78pOeZj9Hpt5iO1orRYPwWUL74oXrMAV2RwAQh0CSN0yRbqqpXoZwh04aKy5g94bOqhDJeJ15GSL2EMqHWfNlOL9u0Jd5ss82iZ5pQ5w022CCKaMKmuQdyCbHHjyme6iSUGReYfdNEm2DKpHXmtNUsprJQphdX9uEluJz6Ecp4yBEYeG55GaddKW0/U0Iscl1sz6VhX76rxCPnQgAR+swLalVChCGKUt1QDo8AL754YXKpl1Bm2CMENvsWj1k8Di9E3DflsGDuC/IRvrlUda39XgOinfsUoTmMZzFnG3n9CAGEMgIWxmlC8MKLcEfGBv+///u/MewQ9dzLxUTbXcR1GmKrPARbse7w0BAJwnBv1E8xMSwLnmJEBs9BUZDSQzh5ySuFyCPKIgnrdBzKjEIo85wg3Jk4ZhLKNG3Ak1386JITyrQ7/uIXvxgnroljpPXx5rQdHy8N+6yOd/w2bkcs9yOSubZ+no8ig7pCmQ9v3N/liQ+sfPgjvyjQiueaiMuDCmU+1vHslJsolIUyzOBKWX6LU0oe5fQsp+cZocwHY4aYJHIsJX7zOYZCORFxPlEJNEnjNMmWqvpWKGfItKHiMmZP+KwqoYxARKSQeglltvOSQrghnW0hQNmPF1/y+JFEUOI1o6OfXEI84IGmbWcSyuVyg4ReI1o4f85TNp5QRjDyElDshAihwws/IdckvOl40qvSsC/fVeIRryyiE168gJSnFN6MR5JyeBFTGUK1yUsirGx7lVDmRZWXIUJiGRYkHS/NEYIkvLpwQbAilokmYE6IJB8ueNHKpapr7fcakgeMDsaSTcX5sC/R/QgBhDL3W3lKwpYwYjrQKj4HtLmknW+vxLODIIAlIZP0XJ4SAnLDDTfsGhqL7dQZ+9KEItcRHh9+iJQgUa+Mn17+6MO1jEIoF5+j1JkX5+UDFBEp3C8p5YQy9zplmIh24dlM63y8wk7aV6e84ny8IdM477DParJ9os3T/5Lxrquf56N4jLpCubhvcdk2ykUa4y/z8YzIrvL/w5xQ5n85/yP22GOPzoGTUM61UaYQkRM8m8m7r1DuoHNhghNoksZpki1V1a5QzpBpQ8VlzJ7wWUkoI5wQK3j8nnnmmfjiycsPqZdQxhtMG0E67EEQ86WbH1jak/GCzgsswg6vFuUQL+WUwnRp8zpKoYyw4/yE45bTeEIZ8cLXcTxtxYQwSUKFIXVyPRan8sO+fFeJR8LeELtVU3pJwQ56i0Y0pLIIrqrwZ8pXCWUiB9IxcnM8Tynxcs29gMebsswR6HxQqUpV10r5fq6B+y1nV8obNjy3HyGAUCakkU7M0oRQTUKZa6GtHi+S6WMLIo/Q6nIqvsji6WX4HhL3LSxpD8uEaKRZQlovH4ePOzwD5Z6oKcc9zkswzzvn4INKObEvTRQYWqo4IWYR7cU8lolE4fqKqaozr1SG55Pnnt8IUk4op7LMi22UUz4fAoov9Cm/3/mwz2q/55mo5fp5PorXrlAu0qi/PIhHmd9ZmlDRiV455YQyZfjfze92asIznlBmHyK71lprrSjGeab5H5L73S/b4LoE2kygSRqnSbZU1alCOUOmDRWXMXvCZvHDhYePcGd+yHi55YWWMCu+0vNCnlJZKBdDOPkBTd5EvFGIXV6g6b0aTy4e2BTmtc0228Sw7Kr2o6MWynz15tqKbTe5JgQbX9Wr2igj2uBBuHCvhDDgOqtSk16+CbVlWpKJlyq8qFVe5Lq2LI1rSDb2IwSq2igXhTLH22uvveIzwosr9xBCt5wQsYRFw497mA8VJDw8aRgk8stTubMcQpspQy/V5Y8F9CjNhx56gqcZQ9mbzPnYl17xEeTFCTv4H1HMYxnBWlcoc1684rAgDSKU8WTxv4ae/AdJTXpWB7F/ae/Tz/NRtHFUQrl4zMm0PIhQ5sMu/Rmk3+siryqhzO87zxV9gpD6Ecr8n+HDG8N4KZSLlF2eyASapHGaZEtVnSuUM2TaUHEZsydkFh5fPDi09aMHXYaGSSF2dK6DJziFZAKgLJTLnmF+GBHXCGQm2jbx8ssxedHmJZSEwGY7P8p33HFHF9tRC2VOgBjmh57QUtpnEaKLl4+X+ZxQxruFzVU9XReNpodw+FUlX76ryLQvvx8h0K9Qpg0yYxbzjPDxiHDIYkoRHXy04n4lvD+JWF5A6WGeZ46Jtr4/+MEPOuvF4zAMFfcyzy/PHKK5mBCXbEdEM0xULiHY8eiXE88OveeWE891uQMgPsDxPBGdwYTQT22U0/509pYiSwYRyhyHDw6wyjW1SOepmvusVpHpL7+f56N4JIVykUb95bpCmQgXfreJsMmlKqFMWT5+pQ/CSSgTGZOeZ/oISJ15pWMnD7JCORFxPtEJNEnjNMmWqnpXKGfItKHiMmZP2KzysA9cKC/WeIm23XbbMddN+0B64uXHGc8WL9f8SPKjmYQoHiFeyIveQ8I9ebEvejLx5iIoEKrlto9FocxLPO2S00QbZs6b1tOcUOGUyp15kY9HjnGQ2TeJAoYO4mW+KJR5SecFHrsQ/bnEl3hC1BH81157bTweXvmq5Mt3FZn25fcjBPoVysWr5yWTcPhiItyRjzkkOpSjYy8SH7i4h2kjnhLhxjSfKCd6pCVqIolWvNPsW+ysi/OSR5vhlGg/zb7jpSqhnNsPocx5ilNZKBf3G1Qo8wzTMRrtwIvND4rHrlr2Wa0i019+P89H8UgK5SKN+st1hTJn4Pc9fYwqn7GXUObjcWpak4Ry8VlmuSyU0/EVyomE84lOoEkap0m2VNW7QjlDpg0VlzF70mTRxhMvMy/p5fBNPFxpCBp+FOmlNiW+LOOFTglvDi+6hGYiOunQK5doZ1sU1ZQpCmVCQunkZ7ypnx5tOTbebTzKxd51i3ZhN+dkaJeqlHoBTS8J9Ghc/AhQ3s+X7zKR9q73IwQQyrTNw3ObJj4wlUOvE4UU2VG857g/aRvPiyljQvMcXXbZZXEXOvPi3it6f3NCmfBjzkvEAx+KUqKtOs82zx090/J8UoayCBcSvcv/61//SrtUzusKZc7HB6Y04VWvSnWEMsfhQx7/B/g/RVttegnn2gg17dUuvnh+n9UijfrL/TwfxaMqlIs06i8PIpR7naWXUC7ul4Qyojs9y8yrmlMplIv0XJ7IBJqkcZpkS1WdK5QzZNpQcRmzJ00WHuLUDjJ30by046UhDLPY0VC5LCGiaRzRqqGAyvukdUJJ6fRraaUqEZ3s4bq5Jj4MECo6XvLlezxC7dnejxBAKOM9pe1vcUrjIXO1RCTQC/isWbPiGNiEQ7744osdELTnR+QhhunFmaYK6WMMYdh8zCrep7vvvnuXRxmhzBBtPNPldM8998ShpFZcccXYdwBCGjG+/vrrh3POOSc2U+A5HC/VEcp4pHq19+clG5FLlAu/Ewh3olOq0gEHHBA/GOB158MBTUUY4zz9v+FlHv6w4jrxuBeZ5Y7rs5qj0n8eHyGpu36TQrlfUvlyoxTKfESmyUJVWHbRAn7febaKH+uK21nm4xW/jzzPfHTjGe31blHe33UJtJFAkzROk2ypqkuFcoZMGyouY7ZZEhiYgC/fA6Nr3I79CGU66SoOg5S7CCIpUkQCzRLw8hYTYhXBzYcpeqidPn16HH857YMwJiH+iIBADFY1FSgeNy3T7pl20UVRQ5tnwpU5x9Zbb52K9pzXEco9DxRCbFOcro85zT+qPkTxos51E81xxBFHRAGOZz6XeGHHq0wkyHiJZ7WfDwTjHWeybudjUPGeGo+DQnk8Qr23DyuUibTg/w8f5XjmmBMdNor0m9/8pvM/jmPTWaBJAhOdQJM0TpNsqap3hXKGTBsqLmO2WRIYmIBCeWB0jduxH6Hcr9F4N3tFZSTvZ/I0IwRpGkCIY0oIXkKOifJIHX2lbYPMefGmz4B+Q5UZr7o4luog5yzuQ+c//Eakay5uKy8Xw8nL2wZdp102dWwajADDneX6vag6mkK5ikx/+cMKZc5CfwVEqRDFRbOOUSWad/A804FYv/9PRnVujyOBpUWgSRqnSbZU1YdCOUOmDRWXMdssCQxMQKE8MLrG7ThKody4i9Og6MG+6cZFY1WLox4BhBGdxVW1U80dTaGco9J/3iiEcv9ns6QEJDAegSZpnCbZUsVNoZwh04aKy5htlgQGJqBQHhhd43ZUKDeuSkZqEMKDnvZtS1kfKyMP1I0uUCjX51zcQ6FcpOGyBJY+gSZpnCbZUlUzCuUMmTZUXMZssyQwMAGF8sDoGrejQrlxVTJygwhtxzOa6wRt5CebIAekEzaY1Q2HVygPdwMolIfj594SGDWBJmmcJtlSxVmhnCHThorLmG2WBAYmoFAeGF3jdlQoN65KFotB9N6M8NOz3Bsv7eh5JmBVp21yOqpCOZEYbK5QHoybe0lgcRFoksZpki1VvBXKGTJtqLiM2WZJYGACSSjzUujUbgYK5YEfg9btiGeZMGzaLFPv9Ibt8/tKHKOaTp/uu+++MHXqtECHbr3Gw+5V8Ukoy3Xw/4t8pDBJQALNINAkjdMkW6pqR6GcIdOGisuYbZYEBiaAUHaaOAz4H2aaHATw2DFEFb1h+wz/7xmmLTJjgQ87lBYCWa7/4zooi8nxNHqVEmg+gSZpnCbZUlVzCuUMmTZUXMZssyQgAQlIQAISkIAEJCABCWQJNEnjNMmWLKwQgkI5Q6YNFZcx2ywJSEACEpCABCQgAQlIQAJZAk3SOE2yJQtLoZzH0oaKy1turgQkIAEJSEACEpCABCQggW4CTdI4TbKlm9SiHD3KGTJtqLiM2WZJQAISkIAEJCABCUhAAhLIEmiSxmmSLVlYepTzWFLF2cvl4L1cyk523gPeA94D3gPeA94D3gPeA94DzbkHksbJK6Alm9skW6quXI9yhgwVx3AGTjLwHvAe8B7wHvAe8B7wHvAe8B7wHpgo9wC91zchKZRr1gJfnLgJl3ZSKPvPcKL8M/Q6vJe9B7wHvAe8B7wHvAe8B7wH0j2gUO5faepRzrBKXzgMFWlOqIh1YV14D3gPeA94D3gPeA94D3gPeA8Mfg8kjZORP0s8q0m2VF28QjlDpg0VlzHbLAlIQAISkIAEJCABCUhAAlkCTdI4TbIlC8vOvPJY2lBxecvNlYAEJCABCUhAAhKQgAQk0E2gSRqnSbZ0k1qUo0c5Q6YNFZcx2ywJSEACEpCABCQgAQlIQAJZAk3SOE2yJQtLj3IeSxsqLm+5uRKQgAQkIAEJSEACEpCABLoJNEnjNMmWblKLcvQoZ8i0oeIyZpslAQlIQAISkIAEJCABCUggS6BJGqdJtmRh6VHOY2lDxeUtN1cCEpCABCQgAQlIQAISkEA3gSZpnCbZ0k1qUY4e5QyZNlRcxmyzJCABCUhAAhKQgAQkIAEJZAk0SeM0yZYsLD3KeSxtqLi85eZKQAISkIAEJCABCUhAAhLoJtAkjdMkW7pJLcrRo5wh04aKy5htlgQkIAEJSEACEpCABCQggSyBJmmcJtmShaVHOY+lDRWXt9xcCUhAAhKQgAQkIAEJSEAC3QSapHGaZEs3qUU5epQzZNpQcRmzzZKABCQgAQlIQAISkIAEJJAl0CSN0yRbsrD0KOextKHi8pbVWGmqAAAgAElEQVSbKwEJSEACEpCABCQgAQlIoJtAkzROk2zpJrUoR49yhkwbKi5jtlkSkIAEJCABCUhAAhKQgASyBJqkcZpkSxaWHuU8ljZUXN5ycyUgAQlIQAISkIAEJCABCXQTaJLGaZIt3aQW5ehRzpBpQ8VlzF5sWb/+9a/D1KlTex7/3XffDddcc02YP39+p9zChQvDhx9+2Fn/4x//GKZMmdJZLy988MEH4corrwy/+tWvxuxXLldcv+SSS8L999/fybrxxhvD22+/3Vlv4gJc3njjjWga18o1k5555pnANtITTzwRLr/88rjsHwlIQAISkIAEJCABCQxLoEkap0m2VHFVKGfIjLLiEIoLFizInGXxZr333nsDn+CFF14IiOOUNtpoo3DsscfG1eeffz4ceOCBXWL0ueeeC8sss0yYPXt22i1sueWW4ZxzzgnTpk2LDH7wgx+EE044Ibz44osd4c25/va3v4Xdd989rLLKKuGjH/1o2G233cLcuXM7x1l11VXD8ssv3zX94x//iMfbYostYtnf/e53YcUVV4zn6+xcWPjZz34Wdthhh3Gn733ve2GbbbYZI/rTYRDifDSoM912221p9zg/66yzwje/+c24zPy4444L77//flhjjTXCX//615h/+umnh/XXX3/Mfq5IQAISkIAEJCABCUhgUAKj1DiD2pD2a5ItyabyXKFcJhJCGEXF3XzzzVEorrTSSuEjH/lIFD29vKlFM/CIUhaxts466xQ39Vx++umnw8477xxWW221sOyyy4YvfOELUYT23Cmz8bXXXouiFQFLKgrlX/ziF2GDDTaI+QjT5GnuJZS33XbbKF6TUP7Nb34Tdtxxx3DttddGcb3eeuuFAw44IFx11VVdApwTPfbYY9HbiseV6aijjgpwff3116MAZ/+tttoqfPrTnw533nlntG3mzJkBD3UxnXbaaeGQQw4Zd9p6662jXW+99VZx97iMaOeDQJ2Jeiimd955J/K9++67o2BGKJ900kkd8UzZXXfdNfzoRz8q7uayBCQgAQlIQAISkIAEBiYwCo0z8MlLOzbJlpJpnVWFcgfF/xaGrThEMkJ1++23j0IVQfmlL30p5iVh+b+zdS/hWSwKse4S3Tl33XVXFF8bb7xxQIieffbZYe21147HQZDWTWeccUb0cOLpTEIZT/DHPvaxgCeX9I1vfCMceuihcbmXUOb6DzrooJCE8mabbRbwsnIcvMjjpT322CN8+9vfDv/5z3/CU089FUUyojele+65Jyy33HLh1ltvjVnnnntutHPGjBmpSK054dzwL4aNpwPgqSfMvDzx8WD//ffvyqdc0buP/RdccEH8oHHyySfHOvrOd74TPxQgmNlGecQ1x7vuuuvGTK+88koyxbkEJCABCUhAAhKQgAT6JjCsxun7RH0UbJItVeYqlDNkRlFxN91005gjc0zEF2JxvPTSSy8FQpLxDrNPPwkv8PHHHz8mzBuP6AorrBA23XTTfg4xpgxeT7ynCLUklAldZjmlfoXyfffdF73AXDseabzJpH6FMmJzn332CWuuuWb0sOM9LotYjvuZz3wm/PCHP4zliu2Wk718pOAY401cNx8E6iSEMl7x8RIe7+222y5OX/3qV2P9IvK5ppSP7dQ7XnMmbEnrfIQxSUACEpCABCQgAQlIoC6BUWicuuesKt8kW6psVChnyCyuisN7ipe530Tobb9CueqYCDCEX52ESD/vvPMCHk/meLg5zplnnhmFLiHSpH6EMp1V4eFmwttNOHlav+KKK/ryKHMu2j5//OMfD5/73OfCWmutFTbccMMxE+HXhKnjyUfc5xLtnmkDPN6EkOea6yTaE+M17zfxMYTrQCR/9rOfDZ///OdD+rhy6qmnxnqfNWtWPByeccL3i57pfs9jOQlIQAISkIAEJCABCUBgcWmcQeg2yZYq+xXKGTKLo+Joc4zo/ctf/pI5Yz5rFEL5a1/7WhSo+TPkc/FoIjzThFf6k5/8ZGcdry2pH6F89NFHx7a3dFpFR1t4c1lm+vvf/x6F4pe//OVQns4///x4DkK/6UiMzrxoO4zAvOyyy7ITYcl0BIb4ZJ9iG+NXX3019DvRWRnXnsqnnqjztBblEipN2+l+El5lyu+9996xHTsh13jX8R7/61//iuHYXAMdoZH4WMGHAZMEJCABCUhAAhKQgAQGJbA4NM5EsKXqGhTKGTKjuomeffbZKHIQRAi9n//857W8gsMK5TfffDP2In3YYYdlrrL/LETaL3/5y64d+hHKSew9+uij0dv7qU99KsCFhGeaXq5pU8y0+eabR4HKMmISoYtgRWAjJulxmtDjXhOdeOGxxntPG+3UppiPFINOjz/+eLQX8U0YdG7i2Hh9c9vIS2HZeIe5F+BJ+DgdneF1J3Hf0Z4bwUydpRD1vfbaK/zkJz+JZfwjAQlIQAISkIAEJCCBQQiMSuMMcu7yPk2ypWxbWlcoJxKF+agqjnGDkzhD8DE2bp00rFA+8sgjo3f13nvvrXParrLYTq/M5VRHKBNyjnhFdCNgaVNNCDQ9Vad08MEHx3a6aZ05ZQiZZtxhWBISTchybuL4qYdpvMHFdsp0RIbgJZyZ5TTRARjHnT59eiePbTfccEOgkzCWU+/ZcKROyxMfQFI9M6xWeTvrqTduromPBiTyEMHFxPBZJ554YuBcCGzaisMIDiYJSEACEpCABCQgAQkMSmBUGmfQ8xf3a5ItRbuKywrlIo3/Lo+y4hCEiLOddtopehIvvvjizBnzWcMI5UceeSR25JV6pc6fIZ+LgCt6bQm7xiNazGMIq36FMiHW9PrNWMkIwX333TcwVjEsaJubUk4op21JKN9xxx0pq2vOh4EklLs2hhDFPmHkp5xySkf8Pvzww1HkEgqeEuM+I1IZoqmfRDnagXMthJqPl+jFG28xHwxgy3KaaItNqDfeZgQyTLAF3iYJSEACEpCABCQgAQkMSmCUGmdQG9J+TbIl2VSeK5TLRBZjQ3eGOMIT2m8aVCgzjBIdRCEa8UjWTbQjJjw4TXhL03KaIzD7Ecr0Vk0o8e23394ZHoqQagQvQ1jhrU5pcQtlznP11VeHT3ziE+HrX/96IDQ9CWXaBCPcCYnmGhHd/bRNpuMzytPxGUNerbzyynEYq3RNuflZZ50Ve+dGtLMfnXf99Kc/jR82Xn755c4uhHrTORmh+yYJSEACEpCABCQgAQkMQ6BJ4rRJtlQxVShnyCyuimP4JkRnavOaOfWYrEGEMiKUYYfwcD722GNjjjfICp2P0UYYUVlO/QjlI444Io4NzL5pHOV0HDrNoo1uSv0I5STUc3PEbi+PcjrPnDlzokAlNJvOv6iT3/72t1GoMsQUor6fxEcIhsuiN+758+fHXfbbb7/AONELFizoeQjKII5TwqPMR4ViIvwb2wy7LlJxWQISkIAEJCABCUhgEAKLS+O03ZYq+xXKGTLD3kSELqcOq4qHx3tKGC09Oac0b968Ss9lL6FMJ1V4M4uJMG+EG17NBx54oLhpzHKvc44pGEJgfGBCpnOJdsBJID733HNR1BE6nNKWW27Z6bmZPIRw6tyLdTzsjH+cUi+hTCgybZWPOeaY2Ls0y8WJHqcZnqnMJB07zRG3eI7hhNjeYostot1PPfVUuPLKKzudi6XyVXPaLWM/XuFbbrmlU4wPCquvvnoUvaltc2fjfxeoJz4apPBuGBABQHh5SpTBs0+7a4bESpzTducSkIAEJCABCUhAAhKoQ2BYjVPnXOOVbZItVbYqlDNkhq04BCICh7BaRDNtXmnHinfwxz/+ceeMdCBFHm1WU6KjpzT8EV5Htqf1Yqdcm266aRR62Epi2CSEOOXx4l5yySXh97//fWdKbXtz50znLs8RjhyP3qbHS1VCeZNNNonXzHUXp0svvTSGQGNnSr2EciqDyKWnbER6Sohf2vr+4Q9/SFld8/vuuy/sv//+MQycujn88MMDNqfQa4Qy6aKLLopcv/WtbwV6qM6l559/PrAdoT116tSuItdff33chse9l3DH44/dMEZ0p7Brroc203R8Rhg94fq0ca8S3l0GmCEBCUhAAhKQgAQkIIESgWE1TulwQ602yZaqC1EoZ8gMW3EIHTq/ojMmRBATXl4ELJ7RlBDQbNtll11SVhTXaZ/ynLDelDbeeOPYo3XqQZmeksvli+t0oEXKnTMdszgn3BchuMMOOxSzK5effvrpeH6EZ0qMhQyH3ESYMd5YPKcp5YQyPYUz5FOa8N4yxBSCNuUdcsghMdQcYZvymKePCBz/O9/5TvyQwMcD6ielslAmn2iAPffcM/Jdd911Ax54Eh5fhnKiLumIq9cHBM5P/ROWTYdqSYhzHEK/aZdMW2kEMp2k8XGFnsX5oIEnmRByPn6Q8NLjfebDScqLG/wjAQlIQAISkIAEJCCBPgkMq3H6PE1fxZpkS5XBCuUMmVFWHB5F2iQXBXLxlIimQTyF7777bsCzOUga75xcPyIZr2mubXI6JyKXttCIQUQv3lHs6icRKk273GLKCWWGT0KYDjIR3pxSURyTx4eFNG4zbbDL2ymDx/e8885Lhwg777xzvN4LLrigrzp75ZVX4scR+OBd5h7Asw1bhPs111zTOTYLhJIzFjMivcydDyL0qo0n3iQBCUhAAhKQgAQkIIG6BEapceqeu1y+SbaUbUvrCuVEojBvQ8UVzF0siwxp1U+vz4QeM/wTId2vv/5637bwcQAvdDFxTryrSyIhPAnjvuKKK6KHt59zFttk91M+laGDtaInuNgWOZVJc4b1qko5MV9V1nwJSEACEpCABCQgAQkUCTRJ4zTJliKj4rJCuUjjv8ttqLiM2WZJQAISkIAEJCABCUhAAhLIEmiSxmmSLVlYIQSFcoZMGyouY7ZZEpCABCQgAQlIQAISkIAEsgSapHGaZEsWlkI5j6UNFZe33FwJSEACEpCABCQgAQlIQALdBJqkcZpkSzepRTl6lDNk2lBxGbPNkoAEJCABCUhAAhKQgAQkkCXQJI3TJFuysPQo57G0oeLylpsrAQlIQAISkIAEJCABCUigm0CTNE6TbOkmtShHj3KGTBsqLmO2WRKQgAQkIAEJSEACEpCABLIEmqRxmmRLFpYe5TyWNlRc3nJzJSABCUhAAhKQgAQkIAEJdBNoksZpki3dpBbl6FHOkGlDxWXMNksCEpCABCQgAQlIQAISkECWQJM0TpNsycLSo5zH0oaKy1turgQkIAEJSEACEpCABCQggW4CTdI4TbKlm9SiHD3KGTJtqLiM2WZJQAISkIAEJCABCUhAAhLIEmiSxmmSLVlYepTzWNpQcXnLzZWABCQgAQlIQAISkIAEJNBNoEkap0m2dJNalKNHOUOmDRWXMdssCUhAAhKQgAQkIAEJSEACWQJN0jhNsiULS49yHksbKi5vubkSkIAEJCABCUhAAhKQgAS6CTRJ4zTJlm5Si3L0KGfItKHiMmabJQEJSEACEpCABCQgAQlIIEugSRqnSbZkYelRzmNpQ8XlLTdXAhKQgAQkIAEJSEACEpBAN4EmaZwm2dJNalGOHuUMmTZUXMZssyQgAQlIQAISkIAEJCABCWQJNEnjNMmWLCw9ynksbai4vOXmSkACEpCABCQgAQlIQAIS6CbQJI3TJFu6SS3K0aOcIdOGisuYbZYEJCABCUhAAhKQgAQkIIEsgSZpnCbZkoWlRzmPpQ0Vl7fcXAlIQAISkIAEJCABCUhAAt0EmqRxmmRLN6lFOXqUM2TaUHEZs82SgAQkIAEJSEACEpCABCSQJdAkjdMkW7Kw9CjnsbSh4vKWmysBCUhAAhKQgAQkIAEJSKCbQJM0TpNs6Sa1KEePcoZMGyouY7ZZEpCABCQgAQlIQAISkIAEsgSapHGaZEsWlh7lPJY2VFzecnMlIAEJSEACEpCABCQgAQl0E2iSxmmSLd2kFuXoUc6QaUPFZcw2SwISkIAEJCABCUhAAhKQQJZAkzROk2zJwtKjnMfShorLW26uBCQgAQlIQAISkIAEJCCBbgJN0jhNsqWb1KIcPcoZMm2ouIzZZklAAhKQgAQkIAEJSEACEsgSaJLGaZItWVh6lPNY2lBxecvNlYAEJCABCUhAAhKQgAQk0E2gSRqnSbZ0k1qUo0c5Q6YNFZcx2ywJSEACEpCABCQgAQlIQAJZAk3SOE2yJQtLj3IeSxsqLm+5uRKQgAQkIAEJSEACEpCABLoJNEnjNMmWblKLcvQoZ8i0oeIyZpslAQlIQAISkIAEJCABCUggS6BJGqdJtmRh6VHOY2lDxeUtN1cCEpCABCQgAQlIQAISkEA3gSZpnCbZ0k1qUY4e5QyZNlRcxmyzJCABCUhAAhKQgAQkIAEJZAk0SeM0yZYsLD3KeSxtqLi85RM3d968eWHhwoVjLnDu3Llj1lnJ5XUVMkMCEpCABCQgAQlIQAKTjECTNE6TbKm6DfQoZ8i0oeIyZk/YrOnTp4dlllkm7LHHHp1rPProo2PexRdf3DOvs9EFCUhAAhKQgAQkIAEJTGICTdI4TbKl6pZQKGfItKHiMmZP2Kxp06ZFUbzLLrt0rvHwww+PeRdeeGHPvM5GFyQgAQlIQAISkIAEJDCJCTRJ4zTJlqpbQqGcIdOGisuYPaGz5syZEz744IMx1/j000+PWWcll9dVyAwJSEACEpCABCQgAQlMMgJN0jhNsqXqNlAoZ8i0oeIyZpslAQlIQAISkIAEJCABCUggS6BJGqdJtmRh2ZlXHksbKi5vubkSkIAEJCABCUhAAhKQgAS6CTRJ4zTJlm5Si3L0KGfItKHiMmabJQEJSEACEpCABCQgAQlIIEugSRqnSbZkYelRzmNpQ8XlLTdXAhKQgAQkIAEJSEACEpBAN4EmaZwm2dJNalGOHuUMmTZUXMZssyQgAQlIQAISkIAEJCABCWQJNEnjNMmWLCw9ynksbai4vOXmSkACEpCABCQgAQlIQAIS6CbQJI3TJFu6SS3K0aOcIdOGisuYbZYEJCABCUhAAhKQgAQkIIEsgSZpnCbZkoWlRzmPpQ0Vl7fcXAlIQAISkIAEJCABCUhAAt0EmqRxmmRLN6lFOXqUM2TaUHEZs82SgAQkIAEJSEACEpCABCSQJdAkjdMkW7Kw9CjnsbSh4vKWmysBCUhAAhKQgAQkIAEJSKCbQJM0TpNs6Sa1KEePcoZMGyouY7ZZEpCABCQgAQlIQAISkIAEsgSapHGaZEsWlh7lPJY2VFzecnMlIAEJSEACEpCABCQgAQl0E2iSxmmSLd2kFuXoUc6QaUPFZcw2SwISkIAEJCABCUhAAhKQQJZAkzROk2zJwtKjnMfShorLW26uBCQgAQlIQAISkIAEJCCBbgJN0jhNsqWb1KIcPcoZMm2ouIzZZklAAhKQgAQkIAEJSEACEsgSaJLGaZItWVh6lPNY2lBxecvNlYAEJCABCUhAAhKQgAQk0E2gSRqnSbZ0k1qUo0c5Q4aKmzJlipMMvAe8B7wHvAe8B7wHvAe8B7wHvAcmzD0wc+bMjPpZ8lkK5ZrMX3nllXgT1txt5MWxw0kG3gPeA94D3gPeA94D3gPeA94D3gMT7R4YuXga4IAK5ZrQuAnx5JokIAEJSEACEpCABCQgAQlIYGISUCjXrFeFck1gFpeABCQgAQlIQAISkIAEJNAyAgrlmhWmUK4JzOISkIAEJCABCUhAAhKQgARaRkChXLPCFMo1gVlcAhKQgAQkIAEJSEACEpBAywgolGtWmEK5JjCLS0ACEpCABCQgAQlIQAISaBkBhXLNClMo1wRmcQlIQAISkIAEJCABCUhAAi0joFCuWWEK5ZrALC4BCUhAAhKQgAQkIAEJSKBlBBTKNStMoVwTmMUlIAEJSEACEpCABCQgAQm0jIBCuWaFKZRrArO4BCQgAQlIQAISkIAEJCCBlhFQKNesMIVyTWAWl4AEJCABCUhAAhKQgAQk0DICCuWaFaZQrgnM4hKQgAQkIAEJSEACEpCABFpGQKFcs8IUyjWBWVwCEpCABCoJLFiwIMyfPz+8+uqrgd+X119/PbzzzjuV5d0gAQlIQAISkMCSIaBQrslZoVwTmMUlIAEJSKBDYOHCheG5554LDzzwQLj55pvDlClTstO0adPCnXfeGfiRRjybJCABCUhAAhJYsgQUyjV5K5RrArO4BCQgAQmEt99+OzzyyCMBAXz99deH+++/Pzz77LPhtddeC++991748MMPI6UPPvggvPXWW+HFF18Mjz/+eJgxY0YU0ohmBLZJAhKQgAQkIIElQ0ChXJOzQrkmMItLQAISmOQE+KHFc3zHHXeEefPm1aZBaPbDDz8cjzFz5swYpl37IO4gAQlIQAISkEAtAgrlWrhCbEPGC49JAhKQgAQk0IsAnmE8wdOnTw9z587tVbSvbbRdxhPNb9BTTz3V1z4WkoAEJCABCUhgMAIK5Zrc9CjXBGZxCUhAApOQAJ1zIZDvueeeGFo9SgSIbsQyXmaTBCQgAQlIQAKLh4BCuSZXhXJNYBaXgAQkMMkI0PnWddddFx588MHFduX8FtHWWbG82BB7YAlIQAISmOQEFMo1bwCFck1gFpeABCQwiQgw3NMtt9wSe7Ve3Jedfo8Mw17cpD2+BCQgAQlMRgIK5Zq1nl5Mau5mcQlIQAISmAQEGPaJnqqXVEph2PSebZKABCQgAQlIYHQEFMo1WSqUawKzuAQkIIFJQoAhnWg7vKRFKx183XXXXZOEspcpAQlIQAISWDIEFMo1OSuUawKzuAQkIIFJQoAerh966KElfrX0ro1AR6ibJCABCUhAAhIYDQGFck2OCuWawCwuAQlIYBIQoJdrxOqbb765VK529uzZYdasWUvl3J5UAhKQgAQkMBEJKJRr1qpCuSYwi0tAAhKYBAQeeeSRpRr+/PLLL0eh/t57700C2l6iBCQgAQlIYPETUCjXZKxQrgnM4hKQgAQmAYFbb701LO3ep2+44Ybw/PPPTwLaXqIEJCABCUhg8RNQKNdkrFCuCcziEpCABCY4AYaEIuya8OtBEx1yXX311YPuHve7++67w6OPPjrUMdxZAhKQgAQkIIFFBBTKNe8EhXJNYBaXgAQkMMEJzJ8/Pwrl999/f+Ar3XPPPcPyyy8/8P7s+PDDD4d77713qGO4swQkIAEJSEACiwgolGveCQrlmsAsLgEJSGCCExjF78IohPLjjz8eZs6cOcFpe3kSkIAEJCCBJUNAoVyT8yheiGqe0uISkIAEJNBgAvwuTJ06dSgLRyGU2/CDPhQkd5aABCQgAQksQQJt+F39f0uQx7inUiiPi8gCEpCABCYVgUF+F954442w/fbbd6Y11lgjLLvssp11ttVts9yGH/RJdWN4sRKQgAQk0GoCbfhdVSi3+hbTeAlIQAITm8Drr78e2yjTqVe/iY6/1l133c608sorh2WWWaazzrY//elP/R4ulmOIKsdSroXMwhKQgAQkIIFKAgrlSjT5DYN4DvJHMlcCEpCABCYCAcYuptdrvMSDplGEXtORFx16mSQgAQlIQAISGJ6AQrkmQ4VyTWAWl4AEJDAJCNx4441h7ty5A1/pKITyzTffHObMmTOwDe4oAQlIQAISkMD/CCiU/8eiryWFcl+YLCQBCUhgUhF44IEHwn333TfwNQ8rlNMQVW+++ebANrijBCQgAQlIQAL/I6BQ/h+LvpYUyn1hspAEJCCBSUXghRdeiD1f12mnXAR08sknhy222KKYVWv5scceCzNmzKi1j4UlIAEJSEACEqgmoFCuZpPdolDOYjFTAhKQwKQnQOjzE088scQ5LFy4MNxwww3h2WefXeLn9oQSkIAEJCCBiUpAoVyzZhXKNYFZXAISkMAkIfDMM8+E66+/PtC515JMjz/+eECkmyQgAQlIQAISGB0BhXJNlgrlmsAsLgEJSGASEbjjjjvC/fffv8SumGGm6HH7ueeeW2Ln9EQSkIAEJCCByUBAoVyzlhXKNYFZXAISkMAkIpDGVH7yyScX+1Xjub7lllvC7NmzF/u5PIEEJCABCUhgshFQKNescYVyTWAWl4AEJDDJCMybNy96eQnFXlzp/fffD3feeWeYOXPm4jqFx5WABCQgAQlMagIK5ZrVr1CuCcziEpCABCYhATrWIiSaH9lRpzfeeCPcdtttUSgjmE0SkIAEJCABCYyegEK5JlOFck1gFpeABCQwSQk8//zzYdq0aWHWrFlhVOMb46WeOnVqHLOZ3q5NEpCABCQgAQksHgIK5ZpcFco1gVlcAhKQwCQmgEBGKONdfuSRR8Lbb789EA1ENx2FIbyffvrpgY7hThKQgAQkIAEJ9E9Aodw/q1hSoVwTmMUlIAEJSCAgdGfMmBEFM8KZ0OxeXuYFCxaE//znP1FcM/QTQvvhhx8O7777rjQlIAEJSEACElgCBBTKNSErlGsCs7gEJCABCXQIvPzyy+Ghhx4KN910UxS/1113Xbj11ls7HXMhptM2xDGddRFubVvkDkIXJCABCUhAAkuEgEK5JmaFck1gFpeABCQggSwBwrBfeuml6F1+4oknYsdfTz31VKDX7Ndeey3YBjmLzUwJSEACEpDAEiGgUK6JWaFcE5jFJSABCUhAAhKQgAQkIAEJtIyAQrlmhSmUawKzuAQkIAEJSEACEpCABCQggZYRUCjXrDCFck1gFpeABCQgAQlIQAISkIAEJNAyAgrlmhWmUK4JzOISkIAEJCABCUhAAhKQgARaRkChXLPCFMo1gVlcAhKQgAQkIAEJSEACEpBAywgolGtWmEK5JjCLS0ACEpCABCQgAQlIQAISaBkBhXLNClMo1wRmcQlIQAISkIAEJCABCUhAAi0joFCuWWEK5ZrALC4BCUhAAhKQgAQkIAEJSKBlBBTKNStMoVwTmMUlIAEJSEACEpCABDGDIUEAACAASURBVCQgAQm0jIBCuWaFzZkzJ8ycOTM88MADTjLwHvAe8B7wHvAe8B7wHvAe8B7wHvAemKD3wD333FNTLS7Z4v9vyZ6u99kQylOmTIliGcHsJAPvAe8B7wHvAe8B7wHvAe8B7wHvAe+BiXcPzJgxo7c4XMpbGyWUDb1eyneDp5eABCQgAQlIQAISkIAEJLCYCRh6XROwQrkmMItLQAISkIAEJCABCUhAAhJoGQGFcs0KUyjXBGZxCUhAAhKQgAQkIAEJSEACLSOgUK5ZYQrlmsAsLgEJSEACEpCABCQgAQlIoGUEFMo1K0yhXBOYxSUgAQlIQAISkIAEJCABCbSMgEK5ZoUplGsCs7gEJCABCUhAAhKQgAQkIIGWEVAo16wwhXJNYBaXgAQkIAEJSEACEpCABCTQMgIK5ZoVplCuCcziEpCABCQgAQlIQAISkIAEWkZAoVyzwhTKNYFZXAISkIAEJCABCUhAAhKQQMsIKJRrVphCuSYwi0tAAhKQgAQkIAEJSEACEmgZAYVyzQpTKNcEZnEJSEACEpCABCQgAQlIQAItI6BQrllhCuWawCwuAQlIQAISkIAEJCABCUigZQQUyjUrTKFcE5jFJSABCUhAAhKQgAQkIAEJtIyAQrlmhSmUawKzuAQkIAEJSEACEpCABCQggZYRUCjXrLCJKJQfffTRcNBBB41LYvbs2WHWrFljyn3wwQedddjsu+++nfXcwjPPPBOOOOKI8NBDD3U2z5s3L5Cf0nvvvRdOPfXU8Mgjj6SsOJ8+fXo466yzxuT1uzJ//vxw2GGHxfN8+OGHYerUqX3t+qc//SkcfvjhoXidfe1YKnTiiSeGmTNnlnLHX33hhRfC3nvvHZiX0+233x4OOOCAsHDhwvKm7Pp55503hnO2kJkSkIAEJCABCUhAAhKQQFAo17wJRi2UEYWDpEH3S+e66qqrwp133hlXp02bFpZZZpm0KZx77rlhypQpnfW0sNdee4XtttsurYYZM2aEVVZZJbz00kvh7rvvDs8++2xYbrnl4naOibhbsGBBPM9JJ50UNtxww7DsssuG9dZbL/zhD3/oHAchusIKK4RTTjmlI/r+f3t34nNHVfgP2D+BEBoMRKOJRgwahIgGiLhEUOICGgUVDIgCLoiiuAVFg4qKGy5oNNGvYgQFQcENlH0HC0ULFVooVCh9KUvZ24L1/PIZMvc379t3udOW985wn5MM771zz53lOVOSzz1nzuy///5l9913L0888cSg3uGHH17e8573DN63efHwww9X53jRRRdVYfHFL35xyfZyfDOV/ICQ49pll11Kjn/qct9998301Unrzz777GrfMV+xYsVguf3220tC+2zlM5/5THn+859f/vnPf5b8UFEvjz76aHnTm95UXvva1w7W1Z/l7+OPPz5ps/khIvb5sSHl1FNPLV/96lenXX72s59N+q43BAgQIECAAAECBMZNQFBu2eJbIigntLz//e8vCWsJL7vuums56aSThjqS9AruvffeZcGCBeU5z3lO+cAHPlAF1aG+3Kj0zW9+s+y2225VT2kzKOf8Eg4TlBPq0gtbh9WZgvLixYvLXnvtNQjKCX85t/QIv+51ryvPfe5zq4D7ox/9qNx8882No/j/L88888yq3v/93/9VK++6667yvOc9r1x22WWDSjvssEM59NBDyznnnDNY6u2deOKJVfBN+K2X2JxyyinV99Prmh8DElZTcm4veclLypFHHjnYfvNFepAT7HfcccfyoQ99aNKS9dnWML3Sq1atKi984Qur+vnO1OXkk09u7nbS62XLlpVtt922aud8L44JzVnSc591eZ1rKG1Wf5a/9Y8g9QYTuPfZZ5/6bdVL/o53vKPa9stf/vKS11liftRRRw3qeUGAAAECBAgQIEBgHAUE5ZatvrlBec2aNVUv7Gte85ry85//vPzxj38sBx54YBV6MiR5tpLAlkD0+c9/vqSX8oMf/GD1PsFt2OG39fbT4/iiF72o/PKXvyzNoPylL32p6vFNvSuuuKI6rrVr11Zfmyko58MEyhtvvLHqUb7yyivLvvvuW30nvcfpoR6mJLx+9KMfrQJ8QvzOO+88eP2FL3yhOpaEzuby3e9+t9p0fkA47rjjJi3pCW4OBU/QbPZkZ/j35ZdfvtGhpZc5ttttt13517/+NenztF+2O8xQ9dWrV1c/gqTn96GHHiqPPfbYYDnkkEOqz7JuupL6+QHl7W9/e/VDRXzrY0/vfa6D9MSnfOtb3yqvfOUrBz9oTN1ewnrqN390qOskJNdhPddQgvJZZ51Vf+wvAQIECBAgQIAAgbEUEJRbNvvmBuXsLveW1r20eZ+Akt7NnXbaadajOeOMMzbqKczw2fQsXnrppbN+d7oPcx9wehnroJxgl0BV95S2Ccqf+9znqmPI0OvcR3zhhRdWu2wTlPOFc889tyT85pwy1DnDgLOkh3q//fab7jSqdQm3GSrdLAm0dY9y1uf9N77xjaqnO+ecz77+9a+X3IdclwTX9Kxm/wmfH/7whyctOZ/05idINz+bOoR65cqVZY899qi2cf/999ebr/7m/F7wghdU9z1M+qDxJsf3ile8YnBvckYc1EOi0z5xnpiYqL6Rc0/P/Uz3QOc40xOfkp7md77znYMh5xk6XwfwfD/bzY8BCgECBAgQIECAAIFxFhCUW7b+lgjK0+0yPYwJT1MD13R1m+vSu5hQl97pNuWvf/1r+eEPf1iF2k996lPVNtIre+yxx5b8TS/ksEE59TJkOgEww4DzOst1111X9U7P1qOcsHfMMcdMmmRq+fLl1fHUATP38iac/vSnPy0Z5l0vzQnBEvbSQ15PepX7puOSoda5r3nPPfestpF1WTJsPb3WCY0/+clPKrp169ZVgXP77bevfjDIjwgZslwv6dVNUK7f5++73vWuanvNHv3zzjuvGjWQ/eQHkATmesk+sz5tXa+r/04dLp1tpp3i2lwygVe28cUvfnHS+tQ5/fTTJ10GuSc5Q7Hjkvuac0/z0UcfXdXJ9tNe2UdKfjRoDs+etCFvCBAgQIAAAQIECIyRgKDcsrGfjqCc+3HTs5ehzW1LhtMmNNU9uMN+P2EpoS/Ly172smob9fv8TQAfNihn6G6GCOd7OZa8zvLrX/+6WpeA+epXv3qjJfcBpxc4w7RzL26GEie8ZQh3tnPHHXdUvaYJeZkZO+EyPd5ZEvDS+1mH5XwvQ5zf9ra3VT82/Pa3v63u6c13M6Q9PyRkiHqCcYY1pzz44IMlvejNku8tWbKk6t3PPdXNkh7thONmScjMsWb/dckxZDKyhNLsLz3X9ZIfRBKe6/f5m+Hv2cbFF19cb2LwN8d9xBFHTFoOOOCAqv5BBx00aX3qZRh2XTLhW0Jygn+GnWcf6ZnPxGYpmYws6+pwnfbLjw1veMMbqsCcScEUAgQIECBAgAABAuMoICi3bPUtFZRz32+CZO4JTgBMsKx7Q9scUnoBExhnutd1mG1lKG8C09QybFCuv5cJyrKdr3zlK/WqKii/733vq+5TTg92Ps8EYellbvae557rDN9OyWzaqVcvCZbNkkCZ4Hfaaac1V5cMd876H/zgByVhMkOOmyX3OWeIcl2+9rWvlbe85S3120l/Mww+oTjHUi/5boJu/T5/MyQ6x9kMygmgObe3vvWtg/uI643n2PKjQbPku9nGdEG5Wa9+3fwhoV430984/+EPf6iW/BjRnM08P1Jkv/mhIj9a/OpXv6qW/LCQHyLSK68QIECAAAECBAgQGEcBQbllq2+poJyZr+sgmHBXP7anzeFkaHK+m57FzSl//vOfq2HJU7fRJihn0qtMspXQnkD5i1/8otpcJqRKr2lKwnzOea6eygS79Hxm+Hfuy82EU3XJUO3sI3WmK7nfOMO0s+Q+32bJcPD0sKZkGHJeJ6BPV1760pdWw7ObE4dlm+nNbq6Lf86pGZTr7W1OUP7b3/5W/cjQ7OWvX8c0+8w91PW6qX9///vf14dR8qNMPs+PMikZYp6SieRimSXD2+tiCHYt4S8BAgQIECBAgMC4CgjKLVt+SwXl7DYBJo83ynDZhLCPf/zjrY4mPaYJagmUbUp6rjPbc70kQGU79fv8zXENG5QzxDe9pJnEqw5dmT05PZ/pmf3d735XHd5sQTlBM72aKel5zjDqlDzvN/fwZrh0fhhIIE9IzKOT8n7q84LznQyxznFM7WWvzyc/UqS3OJNlTRdws40Mhc890c0y7NDr+jsJyvnRIPcU10vuAU7Qrt/nb44l59TsUc4zqRPih1ne/OY3V+fcrFsH3/RsZyKvtEOeU51h4RnBkJJ2z6PG8jit+tpL/Ux6ljZQCBAgQIAAAQIECIyrgKDcsuW3ZFBu7jpDchPu6pmMm59N97oexpwg2bZkyHLd65q/GWabpbku4aoOlnM9HiqBPTNFJ9zlHFIyC3eCb3pt02OdMltQTu9vPZFUgmMeE5VS31ucx2klTE5d6l7SqnIp1URfOYbUyxDvZsl55BzzyKjUyfnNVFIv9ys3y6YE5fT+vve9751zmRqUs99cC3lk1lxLtp+h+3W9tENd8izpbDvnmyHW+TEj936nJGBnQrDUT0957kvPpGj5kcDM17WgvwQIECBAgAABAuMoICi3bPWnKyhfddVVVaCphyzPdljnnHNOFWzre3pnqzvXZ+lBzNDm3K87tQwblBO+EqyaQTnbSi9wQlpmqU6ZLSh/5CMfKQcffHBVL8OE65mo84NAAl56j9MTnpm0s830eOd9hlDXJcE8E2ildzu9wQmH6dVulvSg5vtTA3azTgJn6mQSsvQ610ueq5zgX7/P39RJ3el6pqcbet3cT/06bZAJ0ZoBN5/N9ONA9jfbksm76pJnbif8NoNvRgDkkVI5n3rG63hkf5nMq34MVb0NfwkQIECAAAECBAiMm4Cg3LLFNzco18Oep+42Q3ATfpqPCMq+pg4fzrOUEwDT45qANVPJxFbDlEzulP3WvYzN7+RZzzneumRW7vRe1iWTWaX3sS4ZAp4ZtOuyaNGiatt1j/RMQTnr87im3Feb/eV46qHDmViquc/63u5MmNUsschM3ukJzqzVeZ8h2M3JutJDmx7e+CV4pyRIH3fccc1NVZOs1T3KZ555ZqmX3Xffveq5rd/nb76b492coFzvPDOY1z3pWZdzyHZzrHvttVcVePN+6pJnOuc+9eb6epvNv9dee235xCc+UYX9hOEcd66xlEzclXNOUG4+47v5fa8JECBAgAABAgQIjIuAoNyypTc3KH/729+uglp6gzPbdIa7pjcvvYCZnClhJyW9sQmPCZ71ugxDzhDphL3c95tZs+uZivO3DqQnnHBCFYLmGpad+3sTJushz3NRTBeUM5Nywtd0S57ru/POOw82O1NQzmRfuUc6x5+e1TjUJfs86qij6rfV85YT8JpBOb2jGWIcm/Se1iU/OtT3/aYHOhN05X7nHHOMUuI4dRbqPBs5j3eaWtoOvc5w6KkhfOo2m+8z/L557s3P8ginDI/OdTP1B5IPfehDk35MaH4vvfkZgp7rKEE4M5Dnukuv/YEHHlhVzf8E0pucHz1ik0da1QG6uS2vCRAgQIAAAQIECIyLgKDcsqU3Nyhnd+nNSyBKsEvoSwBKr2n9fN/UyTN+MzQ24a6e5CpBJ/VnWurH+eR5xKlTzzY93SlmX3lebvZ9ww03TFdlo3UJZHk8Ul3SC92clGrq6+ZMy/nOTEE5QTW9wekFz48DOe70aiYQ7rnnnuU73/lOvcvqPtycWzMoxyfHVU8aNqhcSskw4wwrTwDMfdQZqp0An/dZn2Hd2XddMqw928+M0FPLdEE5P0akfv1jRvM7CckZ1n7RRReVW265pSxfvnzaJROTnXvuudUkX8ccc0xzE5NeZyh82is/ijRLnp9cD1tvrs/rtEF+HMgzoWuzzAyeay/PoM592PmRJtdZjiP3imcfeZ9h7goBAgQIECBAgACBcRQQlFu2+pYIyvUuH3nkkWqY8ExDXRNsmvfg1t8b5m/us52t5J7gBKR6oq2Z6qbnNTNYZ0kgzP3Iw5ScWwJXntVbl+mCcn4QyI8GCevf//73q9mu62HTCXP5sSCBLttJT3ruCc59wvWPB/W2Z/qbAHvssceWH//4x4Oe2Hz3sMMOG/xQkSHidUloz0Rm05X0Muee34TvDFHOEO6YvPGNb5yuejUZV3pt01OberMtmQk7YXe6WbybG08PcY4/7ZbnS8cjP6CceOKJzWqD16tXrx68rl9k5usM185Q7BxThm03h9gnIOf+64w2mNp7XW/DXwIECBAgQIAAAQLPZAFBuWXrbsmg3HLXW7T6ww8/PCnEzrTxu+++u5x11llVMEtgbVPSg9osGSKd3syE42Zp9sbWveIJbgnHCdwpCWw5jvPOO69MF/6a2xv2de6Dbt4Tnu/lB4apxzfd9hLsM7N37nGe6YeO5vdSJ+cy3VIPmW/Wn+t1fnRI73d6oqdOWDbXdxPG62Cc+7mnK3nWcl1nus+tI0CAAAECBAgQIPBMFhCUW7buMyUotzxt1QkQIECAAAECBAgQIDA2AoJyy6YWlFuCqU6AAAECBAgQIECAAIGeCQjKLRtMUG4JpjoBAgQIECBAgAABAgR6JiAot2wwQbklmOoECBAgQIAAAQIECBDomYCg3LLBBOWWYKoTIECAAAECBAgQIECgZwKCcssGE5RbgqlOgAABAgQIECBAgACBngkIyi0bTFBuCaY6AQIECBAgQIAAAQIEeiYgKLdsMEG5JZjqBAgQIECAAAECBAgQ6JmAoNyywQTllmCqEyBAgAABAgQIECBAoGcCgnLLBhOUW4KpToAAAQIECBAgQIAAgZ4JCMotG0xQbgmmOgECBAgQIECAAAECBHomICi3bDBBuSWY6gQIECBAgAABAgQIEOiZgKDcssEE5ZZgqhMgQIAAAQIECBAgQKBnAoJyywYTlFuCqU6AAAECBAgQIECAAIGeCQjKLRtMUG4JpjoBAgQIECBAgAABAgR6JiAot2wwQbklmOoECBAgQIAAAQIECBDomYCg3LLBBOWWYKoTIECAAAECBAgQIECgZwKCcssGE5RbgqlOgAABAgQIECBAgACBngkIyi0bTFBuCaY6AQIECBAgQIAAAQIEeiYgKLdsMEG5JZjqBAgQIECAAAECBAgQ6JmAoNyywQTllmCqEyBAgAABAgQIECBAoGcCgnLLBhOUW4KpToAAAQIECBAgQIAAgZ4JCMotG0xQbgmmOgECBAgQIECAAAECBHomICi3bDBBuSWY6gQIECBAgAABAgQIEOiZgKDcssEE5ZZgqhMgQIAAAQIECBAgQKBnAoJyywYTlFuCqU6AAAECBAgQIECAAIGeCQjKLRtMUG4JpjoBAgQIECBAgAABAgR6JiAot2wwQbklmOoECBAgQIAAAQIECBDomYCg3LLBBOWWYKoTIECAAAECBAgQIECgZwKCcssGE5RbgqlOgAABAgQIECBAgACBngkIyi0bTFBuCaY6AQIECBAgQIAAAQIEeiYgKLdsMEG5JZjqBAgQIECAAAECBAgQ6JmAoNyywQTllmCqEyBAgAABAgQIECBAoGcCgnLLBhOUW4KpToAAAQIECBAgQIAAgZ4JCMotG0xQbgmmOgECBAgQIECAAAECBHomICi3bDBBuSWY6gQIECBAgAABAgQIEOiZgKDcssEE5ZZgqhMgQIAAAQIECBAgQKBnAoJyywYTlFuCqU6AAAECBAgQIECAAIGeCQjKLRtMUG4JpjoBAgQIECBAgAABAgR6JiAot2wwQbklmOoECBAgQIAAAQIECBDomYCg3LLBBOWWYKoTIECAAAECBAgQIECgZwKCcssGE5RbgqlOgAABAgQIECBAgACBngkIyi0bTFBuCaY6AQIECBAgQIAAAQIEeiYgKLdsMEG5JZjqBAgQIECAAAECBAgQ6JmAoNyywQTllmCqEyBAgAABAgQIECBAoGcCgnLLBhOUW4KNSfWVK1dOOtP169eXe+65Z851kyp4Q4AAAQIECBAgQIBAJwQE5ZbNICi3BBuD6ieccELZaqutyqmnnjo423322acsWLCg5B9YXaZbV3/mLwECBAgQIECAAAEC3REQlFu2haDcEmwMqh9//PFVUD7llFMGZ7v33nuXbbbZpixdunTWdYMPvSBAgAABAgQIECBAoDMCgnLLphCUW4KNSfUVK1ZMOtN169aViYmJOddNquANAQIECBAgQIAAAQKdEBCUWzaDoNwSTHUCBAgQIECAAAECBAj0TEBQbtlggnJLMNUJECBAgAABAgQIECDQMwFBuWWDCcotwVQnQIAAAQIECBAgQIBAzwQE5ZYNJii3BFOdAAECBAgQIECAAAECPRMQlFs2mKDcEkx1AgQIECBAgAABAgQI9ExAUG7ZYIJySzDVCRAgQIAAAQIECBAg0DMBQbllgwnKLcFUJ0CAAAECBAgQIECAQM8EBOWWDSYotwRTnQABAgQIECBAgAABAj0TEJRbNpig3BJMdQIECBAgQIAAAQIECPRMQFBu2WCCcksw1QkQIECAAAECBAgQINAzAUG5ZYMJyi3BVCdAgAABAgQIECBAgEDPBATllg0mKLcEU50AAQIECBAgQIAAAQI9ExCUWzaYoNwSTHUCBAgQIECAAAECBAj0TEBQbtlggnJLMNUJECBAgAABAgQIECDQMwFBuWWDCcotwVQnQIAAAQIECBAgQIBAzwQE5ZYNJii3BFOdAAECBAgQIECAAAECPRMQlFs2mKDcEkx1AgQIECBAgAABAgQI9ExAUG7ZYIJySzDVCRAgQIAAAQIECBAg0DMBQbllgwnKLcFUJ0CAAAECBAgQIECAQM8EBOWWDSYotwRTnQABAgQIECBAgAABAj0TEJRbNpig3BJMdQIECBAgQIAAAQIECPRMQFBu2WCCcksw1QkQIECAAAECBAgQINAzAUG5ZYMJyi3BVCdAgAABAgQIECBAgEDPBATllg1WB+XAWRi4BlwDrgHXgGvANeAacA24BlwDroFn5jWwcOHClmlxfqs/a353N/veEpQDZmHgGnANuAZcA64B14BrwDXgGnANuAae2dfA7OlwtJ92KiiPlsLeCRAgQIAAAQIECBAgQIBAKYKyq4AAAQIECBAgQIAAAQIECDQEBOUGhpcECBAgQIAAAQIECBAgQEBQdg0QIECAAAECBAgQIECAAIGGgKDcwPCSAAECBAgQIECAAAECBAgIyq4BAgQIECBAgAABAgQIECDQEBCUGxheEiBAgAABAgQIECBAgAABQdk1QIAAAQIECBAgQIAAAQIEGgKCcgPDSwIECBAgQIAAAQIECBAgICi7BggQIECAAAECBAgQIECAQENAUG5geEmAAAECBAgQIECAAAECBARl1wABAgQIECBAgAABAgQIEGgICMoNDC8JECBAoP8Cjz76aFm5cmVZunRp+de//lWuu+66snDhwrJo0aJy0003ldtvv73cf//9ZcOGDf0/WWdAgAABAgQIPC0CgvLTwmqjBAgQIDCfAmvXri233XZbufLKK8vf//73cumll1bB+N///ne59dZbq88SnBcvXlyuueaaqs75559fBenVq1fP56HaFwECBAgQINADAUG5B43kEAkQIEBgeoEnnnii3HLLLVXwveqqq6re4vQoz1XSm5yAnOCcYJ3wfM8998z1NZ8TIECAAAECYyIgKI9JQztNAgQIPNMEVq1aVS6++OJy9dVXl4mJiU0+vfRG33zzzVVgTnBO+FYIECBAgACB8RYQlMe7/Z09AQIEeimwbNmyKthmuPWWKg8++GDVs3zFFVeUhx56aEtt1nYIECBAgACBHgoIyj1sNIdMgACBcRbIfccXXnhhNXT66XC48cYby0UXXVTWrFnzdGzeNgkQIECAAIEeCAjKPWgkh0iAAAECTwmkJzkh+ekOsUuWLCmXXHJJeeyxx9ATIECAAAECYyggKI9hoztlAgQI9FEg9yRn4q35mqX6hhtuKP/4xz/6SOWYCRAgQIAAgc0UEJQ3E9DXCRAgQODpF3jyySerHt4teU/yXEe9fv36ap/Lly+fq6rPCRAgQIAAgWeYgKD8DGtQp0OAAIFnokCegZzHP813ueuuu0qet7xu3br53rX9ESBAgAABAiMUEJRHiG/XBAgQIDC3QHqTL7jggnL33XfPXflpqJGAfuuttz4NW7ZJAgQIECBAoKsCgnJXW8ZxESBAgEAlcOedd5ZLL710ZBorVqwol1122cj2b8cECBAgQIDA/AsIyvNvbo8ECBAg0EJg0aJFJY+EGlXJsOtMIpbnLCsECBAgQIDAeAgIyuPRzs6SAAECvRXIM40nJiY2+fgXL15czj333E3+fr6Y4dd33HHHZm3DlwkQIECAAIH+CAjK/WkrR0qAAIGxE1i7dm3Vm7s5zzM+8sgjy4IFCzbLLmH7pptu2qxt+DIBAgQIECDQHwFBuT9t5UgJECAwdgIZ7pxhzxs2bNjkc98SQXnZsmXl+uuv3+Rj8EUCBAgQIECgXwKCcr/ay9ESIEBgrAQeeOCB6vFMm3PSWyIo5/nNCxcu3JzD8F0CBAgQIECgRwKCco8ay6ESIEBg3AQ2JSg//PDD5eCDDx4sO+20U9l6660H7/NZ23uWBeVxu/KcLwECBAiMu4CgPO5XgPMnQIBAhwXWrFlTDb3+3//+N/RR5ju77777YHne855Xttpqq8H7fPab3/xm6O2lYp6jfN1117X6jsoECBAgQIBAfwUE5f62nSMnQIDAM14gk3jlHuU8omlTy5YYer1kyZKSCb0UAgQIECBAYDwEBOXxaGdnSYAAgV4KpCc5Qfm+++7b5OPfEkH5H//4R8nwa4UAAQIECBAYDwFBeTza2VkSIECgtwIJqRn6xKhS5wAAFbtJREFUvKllc4NyZtw+//zzNyusb+qx+x4BAgQIECAwGgFBeTTu9kqAAAECQwosX768XH311UPW3rjaSSedVPbbb7+NPxhyzcTERLngggtKm/ukh9y0agQIECBAgEBHBQTljjaMwyJAgACBpwTq+5Tvv//+kZDk+cm5R1khQIAAAQIExkdAUB6ftnamBAgQ6K1AJtJatGjRvB9/wnnukX7ooYfmfd92SIAAAQIECIxOQFAenb09EyBAgMCQAo888kgVWO++++4hv7Flql177bXlpptu2jIbsxUCBAgQIECgNwKCcm+ayoESIEBgvAUy6/TFF19cMhR7PsrSpUvLJZdcUtavXz8fu7MPAgQIECBAoEMCgnKHGsOhECBAgMDsAjfccEO55pprypNPPjl7xc389D//+U/Vg7169erN3JKvEyBAgAABAn0UEJT72GqOmQABAmMq8N///rfkcVEZEr127dqnRWHFihVVSL7zzjuflu3bKAECBAgQINB9AUG5+23kCAkQIECgIZDe5MxEfdlll5V777238cnmv/z3v/9dheS77rpr8zdmCwQIECBAgEBvBQTl3jadAydAgMB4C9xyyy1VqE24Xbdu3WZhrFq1qlxxxRXVMqrHUG3WCfgyAQIECBAgsEUFBOUtymljBAgQIDCfAvfdd181DDuPcMqzjtesWTP07p944omS4dW55znfz+RdGzZsGPr7KhIgQIAAAQLPXAFB+Znbts6MAAECYyMwMTFRDcdO4M2Q7Dx3+fbbby9Znx7iBx54oBqmnSHV6YnOfc6pm1mtly1bVh5//PGxsXKiBAgQIECAwNwCgvLcRmoQIECAQE8EMsFXwnCefZye4jxO6vzzz69C8QUXXFAuv/zyKlDfeuutVYDuyWk5TAIECBAgQGCeBQTleQa3OwIECBAgQIAAAQIECBDotoCg3O32cXQECBAgQIAAAQIECBAgMM8CgvI8g9sdAQIECBAgQIAAAQIECHRbQFDudvs4OgIECBAgQIAAAQIECBCYZwFBeZ7B7Y4AAQIECBAgQIAAAQIEui0gKHe7fRwdAQIECBAgQIAAAQIECMyzgKA8z+B2R4AAAQIECBAgQIAAAQLdFhCUu90+jo4AAQIECBAgQIAAAQIE5llAUJ5ncLsjQIAAAQIECBAgQIAAgW4LCMrdbh9HR4AAAQIECBAgQIAAAQLzLCAozzO43REgQIAAAQIECBAgQIBAtwWetXDhwmJh4BpwDbgGXAOuAdeAa8A14BpwDbgGXAOugaeugWfdeOONxcLANeAacA24BlwDrgHXgGvANeAacA24BlwDT10DepT1qBtR4BpwDbgGXAOuAdeAa8A14BpwDbgGXAONa8A9yt0eGu/oCBAgQIAAAQIECBAgQGCeBQTleQa3OwIECBAgQIAAAQIECBDotoCg3O32cXQECBAgQIAAAQIECBAgMM8CgvI8g9sdAQIECBAgQIAAAQIECHRbQFDudvs4OgIECBAgQIAAAQIECBCYZwFBeZ7B7Y4AAQIECBAgQIAAAQIEui0gKHe7fRwdAQIECBAgQIAAAQIECMyzgKA8z+B2R4AAAQIECBAgQIAAAQLdFhCUu90+jo4AAQIECBAgQIAAAQIE5llAUJ5ncLsjQIAAAQIECBAgQIAAgW4LzFtQfvzxx8v69esHGpdffnn55Cc/WR5++OFq3f/+979y/fXXDz6f+uKqq64qqdMst912W/nd737XXFW9XrVqVfnWt75V1qxZs9FnWXH66aeXRYsWbfRZ9nHaaadttH62FSeffHL55S9/OVsVnxEgQIAAAQIECBAgQIBAjwTmLSh/4xvfKDvssEPZsGFDxXP88ceXBQsWlP/+97/V+4Tkbbfddtqges8995QXvvCF5VOf+tQk2sWLF1fbmBqwv/SlL5VddtllUjBvfjGf51iy3Wb52te+Vvbee+/mqllf33zzzWWbbbYp3/3ud2et50MCBAgQIECAAAECBAgQ6I/AJgXlCy+8sOy2227lmGOOGfpMX/nKV5ajjz56UH///fcve+yxx+B9XqR3OOH573//+6T1eZMw/OxnP7v88Ic/nPTZRz7ykfKGN7xhsG5iYqJsv/325a9//etg3dQXCeuve93rJh1P6rQNyvvuu28V7s8888zyl7/8Zdbl1ltvnXoY3hMgQIAAAQIECBAgQIBABwVaB+XHHnus7LTTTmWrrbYqBxxwwFCndNlll1X1b7rppkH9HXfcsRx55JGD9/WLH/zgB+XSSy+t3076+6tf/aoKy+kJvvbaa8spp5xSvvKVr5T3vOc91fDnvE8Az7bzOsu999472EaGeh9++OHV8sY3vrH63mGHHVZuvPHGqk6boJxQH4PnPOc5cy5bb721XudBK3hBgAABAgQIECBAgACBbgu0Dsqf+cxnqiC61157DRWUn3zyySpYpzc4gTbLu9/97ipkvuIVrxisqz+r/x500EHTyt1xxx3V+gx3ftWrXjVYMjQ7+2iuy+slS5YMtpMg/PnPf36wHHLIIdVx1HW+/vWvDzX0+m9/+1vVk/zlL395sO3ZXuSHhZ/85CezVfEZAQIECBAgQIAAAQIECHREoFVQTi9uekd/85vflNe+9rVDBeWcZ3qOjzrqqJKQnSUhO72xGbpdr5v699hjj21FlHugpw7lnm0DmRjszW9+c3n/+98/qDZMj3Idkt/73vdWPd/p/Z66XHfddYNt5kVCfHq3FQIECBAgQIAAAQIECBDovsDQQXndunUlPcBve9vbqrNKKB126HWTIQF19913L695zWuaq2d9fcQRR5Q3velN1TLTxFltg3LudU6AXb169WDfcwXlHPtb3vKWcuCBB5bzzjuvCvsveMELSnPZbrvtNgrsGZ493ezcgx17QYAAAQIECBAgQIAAAQKdERg6KOde4AS+O++8szr4TQ3K55xzThUwMyw6PcpTl09/+tMlj31qltyb/P3vf78K1x/+8Ier2aozbLq5ZLKw5z73uZPW5fNvfvObzU1Vr3/7299WPeM5p2aZKyin7tq1a6vl/PPPr86j+f28PumkkyYF5YTr9J4nWCsECBAgQIAAAQIECBAg0H2BoYJyJrvKbNS/+MUvBme0qUF5zz33rIJjepTTM9tcXv3qV1ePW1q+fPlgP80XH/zgB0uC8gMPPFCOO+64SctLXvKSqmd36vrmMWdbp556arWPhNc8jurss88e7GKYoFxXHjYo33fffdX5XnPNNfVX/SVAgAABAgQIECBAgACBDgvMGZTznOPcj/z2t7990mlsSlDOI5sSUF/0oheV9ABnBu1m2Weffcqhhx7aXDXpdR2UJ60spQrOmcgrwfdjH/vY4NnMzXqPPvpoFbLz3ONM6JXjyARb+c65555bVd2UoHzxxReX5pL9x6Yumek7+1q2bFm9yl8CBAgQIECAAAECBAgQ6LDAnEE5zwhO0MvMzc0ZpRNMMxQ765q9sjOd6+OPP14FyNe//vXl/vvvL7vsssukibROO+20qqd38eLFM22iTBeUM7Q54TrPRV66dGlJz3KGXD/xxBOTtpPh1rmXOM9oTr2c0913310N6c655QeBTQnKuc956pL7mOtS92CvX7++XuUvAQIECBAgQIAAAQIECHRYYM6gnOCa+26nLukVzuReWT9buM25J4S+613vqu4hrh/vlO8kbP/0pz+tZo1Oz25ez1amBuWE76OPPrraTsJvyn/+858q1GeisUxAVpe8zvOXU5pBOe/re6JnCspXXnnlRsF7pqHX9f7yzOYML8990+94xzvq1f4SIECAAAECBAgQIECAQMcF5gzKMx3/TEOvV65cOekrmfzqAx/4QHWP8x//+MdJn+WRSbn3efvtt68eEzXpw2neHH744dXw6XyUCb522GGHqjf3qquumlR7xYoV1bOe87zm9DhPLVODcv35TEE5gffnP/95Xa36O1dQvv7668uvf/3rkh75Rx55pNx1113l9ttvn7QNbwgQIECAAAECBAgQIECgewJbNCifcMIJ1ZDmDDdOueWWW8puu+1Whdn0yjZLgmOCb4ZA577h/fffv2TSsOlKeqS/+MUvVvUyzDkh9Tvf+U41mVcm9pquZN8z9VDPFJRPPPHEagj31O2l93zqrNWXXHJJdexTh3hP/W79PvdD77jjjvVbfwkQIECAAAECBAgQIECgowJbNCgff/zxVXhMT3HKkiVLyn777Vf1puZ9encz+3MeAZVh15kk7Oqrry4333xz9XzmhObcX3zWWWeVNWvWVNvYsGFD1SOd+6EzaVZ6dvOs4vTynnzyySWBddGiRdVkWQnACdvXXnttFabz7OIf/ehHG00aNlNQTi919pOe4D/96U/V8r3vfa/q9V61alV1PPV/7r333upcP/vZz1b1LrrookmTetUTfGV97r9+8YtfXP0wUH/fXwIECBAgQIAAAQIECBDopsAmB+WZTifDnmcq6TXeeuuty7777lsSYqcOi06v7cEHH1yF6PQyX3HFFVVgTk9sZsyuS57lnN7rnXfeudpeAvZMy6677lp/bfB3pqCcIdKZGCzfyQRf9QRmP/vZzwbfbb4444wzqsCeIeAJ/jMt2c5BBx1Uzc7d/L7XBAgQIECAAAECBAgQINA9gS0elGc7xUyaNbVndrr6ua85PcV1mZiYqF9u9Dc9zg8++GA1iVcm8sr2M6t2JvrKZ9OVPCoqPcbZj0KAAAECBAgQIECAAAECBJoC8xqUmzv2mgABAgQIECBAgAABAgQIdFFAUO5iqzgmAgQIECBAgAABAgQIEBiZgKA8Mno7JkCAAAECBAgQIECAAIEuCgjKXWwVx0SAAAECBAgQIECAAAECIxMQlEdGb8cECBAgQIAAAQIECBAg0EUBQbmLreKYCBAgQIAAAQIECBAgQGBkAoLyyOjtmAABAgQIECBAgAABAgS6KCAod7FVHBMBAgQIECBAgAABAgQIjExAUB4ZvR0TIECAAAECBAgQIECAQBcFBOUutopjIkCAAAECBAgQIECAAIGRCQjKI6O3YwIECBAgQIAAAQIECBDoooCg3MVWcUwECBAgQIAAAQIECBAgMDIBQXlk9HZMgAABAgQIECBAgAABAl0UEJS72CqOiQABAgQIECBAgAABAgRGJiAoj4zejgkQIECAAAECBAgQIECgiwKCchdbxTERIECAAAECBAgQIECAwMgEBOWR0dsxAQIECBAgQIAAAQIECHRRQFDuYqs4JgIECBAgQIAAAQIECBAYmYCgPDJ6OyZAgAABAgQIECBAgACBLgoIyl1sFcdEgAABAgQIECBAgAABAiMTEJRHRm/HBAgQIECAAAECBAgQINBFAUG5i63imAgQIECAAAECBAgQIEBgZAKC8sjo7ZgAAQIECBAgQIAAAQIEuiggKHexVRwTAQIECBAgQIAAAQIECIxMQFAeGb0dEyBAgAABAgQIECBAgEAXBQTlLraKYyJAgAABAgQIECBAgACBkQkIyiOjt2MCBAgQIECAAAECBAgQ6KKAoNzFVnFMBAgQIECAAAECBAgQIDAyAUF5ZPR2TIAAAQIECBAgQIAAAQJdFBCUu9gqjokAAQIECBAgQIAAAQIERiYgKI+M3o4JECBAgAABAgQIECBAoIsCgnIXW8UxESBAgAABAgQIECBAgMDIBATlkdHbMQECBAgQIECAAAECBAh0UUBQ7mKrOCYCBAgQIECAAAECBAgQGJmAoDwyejsmQIAAAQIECBAgQIAAgS4KCMpdbBXHRIAAAQIECBAgQIAAAQIjExCUR0ZvxwQIECBAgAABAgQIECDQRQFBuYut4pgIECBAgAABAgQIECBAYGQCgvLI6O2YAAECBAgQIECAAAECBLooICh3sVUcEwECBAgQIECAAAECBAiMTEBQHhm9HRMgQIAAAQIECBAgQIBAFwUE5S62imMiQIAAAQIECBAgQIAAgZEJCMojo7djAgQIECBAgAABAgQIEOiigKDcxVZxTAQIECBAgAABAgQIECAwMgFBeWT0dkyAAAECBAgQIECAAAECXRQQlLvYKo6JAAECBAgQIECAAAECBEYmICiPjN6OCRAgQIAAAQIECBAgQKCLAoJyF1vFMREgQIAAAQIECBAgQIDAyAQE5ZHR2zEBAgQIECBAgAABAgQIdFFAUO5iqzgmAgQIECBAgAABAgQIEBiZgKA8Mno7JkCAAAECBAgQIECAAIEuCgjKXWwVx0SAAAECBAgQIECAAAECIxMQlEdGb8cECBAgQIAAAQIECBAg0EUBQbmLreKYCBAgQIAAAQIECBAgQGBkAoLyyOjteFiBlStXTqq6fv36cs8998y5blIFbwgQIECAAAECBAgQIDCkgKA8JJRqoxE44YQTylZbbVVOPfXUwQHss88+ZcGCBeW2226bdd3gQy8IECBAgAABAgQIECDQQkBQboGl6vwLHH/88VVQPuWUUwY733vvvcs222xTli5dOuu6wYdeECBAgAABAgQIECBAoIWAoNwCS9XRCKxYsWLSjtetW1cmJibmXDepgjcECBAgQIAAAQIECBAYUkBQHhJKNQIECBAgQIAAAQIECBAYDwFBeTza2VkSIECAAAECBAgQIECAwJACgvKQUKoRIECAAAECBAgQIECAwHgICMrj0c7OkgABAgQIECBAgAABAgSGFBCUh4RSjQABAgQIECBAgAABAgTGQ0BQHo92dpYECBAgQIAAAQIECBAgMKSAoDwklGoECBAgQIAAAQIECBAgMB4CgvJ4tLOzJECAAAECBAgQIECAAIEhBQTlIaFUI0CAAAECBAgQIECAAIHxEBCUx6OdnSUBAgQIECBAgAABAgQIDCkgKA8JpRoBAgQIECBAgAABAgQIjIeAoDwe7ewsCRAgQIAAAQIECBAgQGBIAUF5SCjVCBAgQIAAAQIECBAgQGA8BATl8WhnZ0mAAAECBAgQIECAAAECQwoIykNCqUaAAAECBAgQIECAAAEC4yEgKI9HOztLAgQIECBAgAABAgQIEBhSQFAeEko1AgQIECBAgAABAgQIEBgPAUF5PNrZWRIgQIAAAQIECBAgQIDAkAKC8pBQqhEgQIAAAQIECBAgQIDAeAgIyuPRzs6SAAECBAgQIECAAAECBIYUEJSHhFKNAAECBAgQIECAAAECBMZDQFAej3Z2lgQIECBAgAABAgQIECAwpICgPCSUagQIECBAgAABAgQIECAwHgLPuu2224qFgWvANeAacA24BlwDrgHXgGvANeAacA24Bp66Bp61cOHCYmHgGnANuAZcA64B14BrwDXgGnANuAZcA66Bp64BQ6/HY+SAsyRAgAABAgQIECBAgACBIQUE5SGhVCNAgAABAgQIECBAgACB8RAQlMejnZ0lAQIECBAgQIAAAQIECAwp8P8Asmb0mfUJJUMAAAAASUVORK5CYII=;" vertex="1" parent="1">
          <mxGeometry x="600" y="398.56" width="550" height="472.89" as="geometry" />
        </mxCell>
        <mxCell id="7osTF7Cn3CsnB_B4Gb6I-27" style="edgeStyle=orthogonalEdgeStyle;rounded=0;orthogonalLoop=1;jettySize=auto;html=1;exitX=0.5;exitY=1;exitDx=0;exitDy=0;entryX=0.5;entryY=0;entryDx=0;entryDy=0;" edge="1" parent="1" source="7osTF7Cn3CsnB_B4Gb6I-24" target="7osTF7Cn3CsnB_B4Gb6I-10">
          <mxGeometry relative="1" as="geometry" />
        </mxCell>
        <mxCell id="7osTF7Cn3CsnB_B4Gb6I-24" value="判断下载游戏" style="rounded=0;whiteSpace=wrap;html=1;" vertex="1" parent="1">
          <mxGeometry x="272.5" y="500" width="105" height="30" as="geometry" />
        </mxCell>
        <mxCell id="7osTF7Cn3CsnB_B4Gb6I-28" value="" style="rounded=1;whiteSpace=wrap;html=1;fillColor=#dae8fc;strokeColor=#6c8ebf;" vertex="1" parent="1">
          <mxGeometry x="110" y="450" width="50" height="10" as="geometry" />
        </mxCell>
        <mxCell id="7osTF7Cn3CsnB_B4Gb6I-29" value="" style="rounded=1;whiteSpace=wrap;html=1;fillColor=#d5e8d4;strokeColor=#82b366;" vertex="1" parent="1">
          <mxGeometry x="110" y="470" width="50" height="10" as="geometry" />
        </mxCell>
        <mxCell id="7osTF7Cn3CsnB_B4Gb6I-30" value="或" style="text;html=1;strokeColor=none;fillColor=none;align=center;verticalAlign=middle;whiteSpace=wrap;rounded=0;" vertex="1" parent="1">
          <mxGeometry x="160" y="465" width="40" height="20" as="geometry" />
        </mxCell>
        <mxCell id="7osTF7Cn3CsnB_B4Gb6I-31" value="且" style="text;html=1;strokeColor=none;fillColor=none;align=center;verticalAlign=middle;whiteSpace=wrap;rounded=0;" vertex="1" parent="1">
          <mxGeometry x="160" y="445" width="40" height="20" as="geometry" />
        </mxCell>
      </root>
    </mxGraphModel>
  </diagram>
</mxfile>
